Padauk-BookBold.ufo
<glyph name="exclam" format="2">
  <advance width="295"/>
  <unicode hex="0021"/>
  <outline>
    <contour>
      <point x="148" y="813" type="curve" smooth="yes"/>
      <point x="184" y="813"/>
      <point x="206" y="782"/>
      <point x="208" y="751" type="curve" smooth="yes"/>
      <point x="210" y="723"/>
      <point x="212" y="690"/>
      <point x="212" y="652" type="curve" smooth="yes"/>
      <point x="212" y="502"/>
      <point x="196" y="345"/>
      <point x="183" y="267" type="curve" smooth="yes"/>
      <point x="177" y="230"/>
      <point x="172" y="210"/>
      <point x="148" y="210" type="curve" smooth="yes"/>
      <point x="124" y="210"/>
      <point x="119" y="230"/>
      <point x="113" y="267" type="curve" smooth="yes"/>
      <point x="100" y="345"/>
      <point x="84" y="502"/>
      <point x="84" y="652" type="curve" smooth="yes"/>
      <point x="84" y="690"/>
      <point x="86" y="723"/>
      <point x="88" y="751" type="curve" smooth="yes"/>
      <point x="90" y="782"/>
      <point x="112" y="813"/>
    </contour>
    <contour>
      <point x="240" y="67" type="curve" smooth="yes"/>
      <point x="240" y="17"/>
      <point x="198" y="-23"/>
      <point x="148" y="-23" type="curve" smooth="yes"/>
      <point x="98" y="-23"/>
      <point x="56" y="17"/>
      <point x="56" y="67" type="curve" smooth="yes"/>
      <point x="56" y="117"/>
      <point x="98" y="157"/>
      <point x="148" y="157" type="curve" smooth="yes"/>
      <point x="198" y="157"/>
      <point x="240" y="117"/>
    </contour>
  </outline>
</glyph>
<glyph name="quotedbl" format="2">
  <advance width="463"/>
  <unicode hex="0022"/>
  <outline>
    <contour>
      <point x="291" y="384" type="line"/>
      <point x="378" y="384" type="line"/>
      <point x="400" y="643" type="line"/>
      <point x="267" y="643" type="line"/>
    </contour>
    <contour>
      <point x="85" y="384" type="line"/>
      <point x="172" y="384" type="line"/>
      <point x="195" y="643" type="line"/>
      <point x="63" y="643" type="line"/>
    </contour>
  </outline>
</glyph>
<glyph name="numbersign" format="2">
  <advance width="1148"/>
  <unicode hex="0023"/>
  <outline>
    <contour>
      <point x="648" y="512" type="line"/>
      <point x="516" y="512" type="line"/>
      <point x="500" y="380" type="line"/>
      <point x="632" y="380" type="line"/>
    </contour>
    <contour>
      <point x="1038" y="152" type="line"/>
      <point x="830" y="152" type="line"/>
      <point x="804" y="-46" type="line"/>
      <point x="576" y="-46" type="line"/>
      <point x="602" y="152" type="line"/>
      <point x="470" y="152" type="line"/>
      <point x="444" y="-46" type="line"/>
      <point x="216" y="-46" type="line"/>
      <point x="242" y="152" type="line"/>
      <point x="110" y="152" type="line"/>
      <point x="110" y="380" type="line"/>
      <point x="272" y="380" type="line"/>
      <point x="288" y="512" type="line"/>
      <point x="110" y="512" type="line"/>
      <point x="110" y="740" type="line"/>
      <point x="318" y="740" type="line"/>
      <point x="350" y="966" type="line"/>
      <point x="578" y="966" type="line"/>
      <point x="546" y="740" type="line"/>
      <point x="678" y="740" type="line"/>
      <point x="710" y="966" type="line"/>
      <point x="938" y="966" type="line"/>
      <point x="906" y="740" type="line"/>
      <point x="1038" y="740" type="line"/>
      <point x="1038" y="512" type="line"/>
      <point x="876" y="512" type="line"/>
      <point x="860" y="380" type="line"/>
      <point x="1038" y="380" type="line"/>
    </contour>
  </outline>
</glyph>
<glyph name="dollar" format="2">
  <advance width="1022"/>
  <unicode hex="0024"/>
  <outline>
    <contour>
      <point x="738" y="350" type="curve" smooth="yes"/>
      <point x="738" y="422"/>
      <point x="678" y="480"/>
      <point x="558" y="524" type="curve"/>
      <point x="558" y="182" type="line"/>
      <point x="648" y="198"/>
      <point x="738" y="252"/>
    </contour>
    <contour>
      <point x="464" y="786" type="curve"/>
      <point x="464" y="1106" type="line"/>
      <point x="366" y="1080"/>
      <point x="318" y="1026"/>
      <point x="318" y="942" type="curve" smooth="yes"/>
      <point x="318" y="878"/>
      <point x="366" y="826"/>
    </contour>
    <contour>
      <point x="972" y="374" type="curve" smooth="yes"/>
      <point x="972" y="142"/>
      <point x="760" y="0"/>
      <point x="558" y="-24" type="curve"/>
      <point x="558" y="-184" type="line"/>
      <point x="464" y="-184" type="line"/>
      <point x="464" y="-24" type="line"/>
      <point x="214" y="4"/>
      <point x="50" y="152"/>
      <point x="50" y="404" type="curve"/>
      <point x="290" y="404" type="line"/>
      <point x="290" y="270"/>
      <point x="348" y="198"/>
      <point x="464" y="182" type="curve"/>
      <point x="464" y="552" type="line"/>
      <point x="250" y="622"/>
      <point x="84" y="674"/>
      <point x="84" y="912" type="curve" smooth="yes"/>
      <point x="84" y="1142"/>
      <point x="286" y="1308"/>
      <point x="464" y="1308" type="curve"/>
      <point x="464" y="1416" type="line"/>
      <point x="558" y="1416" type="line"/>
      <point x="558" y="1310" type="line"/>
      <point x="768" y="1310"/>
      <point x="938" y="1158"/>
      <point x="938" y="926" type="curve"/>
      <point x="696" y="926" type="line"/>
      <point x="696" y="1034"/>
      <point x="650" y="1096"/>
      <point x="558" y="1112" type="curve"/>
      <point x="558" y="752" type="line"/>
      <point x="780" y="686"/>
      <point x="972" y="622"/>
    </contour>
  </outline>
</glyph>
<glyph name="percent" format="2">
  <advance width="1602"/>
  <unicode hex="0025"/>
  <outline>
    <contour>
      <point x="1292" y="158" type="curve" smooth="yes"/>
      <point x="1292" y="204"/>
      <point x="1248" y="252"/>
      <point x="1206" y="252" type="curve" smooth="yes"/>
      <point x="1152" y="252"/>
      <point x="1112" y="204"/>
      <point x="1112" y="158" type="curve" smooth="yes"/>
      <point x="1112" y="108"/>
      <point x="1152" y="62"/>
      <point x="1206" y="62" type="curve" smooth="yes"/>
      <point x="1248" y="62"/>
      <point x="1292" y="108"/>
    </contour>
    <contour>
      <point x="488" y="704" type="curve" smooth="yes"/>
      <point x="488" y="752"/>
      <point x="446" y="800"/>
      <point x="404" y="800" type="curve" smooth="yes"/>
      <point x="350" y="800"/>
      <point x="308" y="752"/>
      <point x="308" y="704" type="curve" smooth="yes"/>
      <point x="308" y="656"/>
      <point x="350" y="612"/>
      <point x="404" y="612" type="curve" smooth="yes"/>
      <point x="446" y="612"/>
      <point x="488" y="656"/>
    </contour>
    <contour>
      <point x="1476" y="158" type="curve" smooth="yes"/>
      <point x="1476" y="14"/>
      <point x="1350" y="-118"/>
      <point x="1206" y="-118" type="curve" smooth="yes"/>
      <point x="1056" y="-118"/>
      <point x="930" y="14"/>
      <point x="930" y="158" type="curve" smooth="yes"/>
      <point x="930" y="306"/>
      <point x="1056" y="434"/>
      <point x="1206" y="434" type="curve" smooth="yes"/>
      <point x="1350" y="434"/>
      <point x="1476" y="306"/>
    </contour>
    <contour>
      <point x="672" y="704" type="curve" smooth="yes"/>
      <point x="672" y="564"/>
      <point x="546" y="432"/>
      <point x="404" y="432" type="curve" smooth="yes"/>
      <point x="252" y="432"/>
      <point x="126" y="564"/>
      <point x="126" y="704" type="curve" smooth="yes"/>
      <point x="126" y="854"/>
      <point x="252" y="984"/>
      <point x="404" y="984" type="curve" smooth="yes"/>
      <point x="546" y="984"/>
      <point x="672" y="854"/>
    </contour>
    <contour>
      <point x="1242" y="858" type="line"/>
      <point x="536" y="-138" type="line"/>
      <point x="362" y="8" type="line"/>
      <point x="1056" y="996" type="line"/>
    </contour>
  </outline>
</glyph>
<glyph name="ampersand" format="2">
  <advance width="1406"/>
  <unicode hex="0026"/>
  <outline>
    <contour>
      <point x="830" y="228" type="curve"/>
      <point x="676" y="366"/>
      <point x="558" y="486"/>
      <point x="474" y="590" type="curve"/>
      <point x="390" y="506"/>
      <point x="348" y="434"/>
      <point x="348" y="372" type="curve" smooth="yes"/>
      <point x="348" y="226"/>
      <point x="476" y="152"/>
      <point x="602" y="152" type="curve" smooth="yes"/>
      <point x="704" y="152"/>
      <point x="780" y="178"/>
    </contour>
    <contour>
      <point x="710" y="1026" type="curve" smooth="yes"/>
      <point x="710" y="1074"/>
      <point x="646" y="1134"/>
      <point x="582" y="1134" type="curve" smooth="yes"/>
      <point x="494" y="1134"/>
      <point x="432" y="1084"/>
      <point x="432" y="1020" type="curve" smooth="yes"/>
      <point x="432" y="968"/>
      <point x="472" y="900"/>
      <point x="552" y="816" type="curve"/>
      <point x="628" y="868"/>
      <point x="710" y="948"/>
    </contour>
    <contour>
      <point x="1388" y="0" type="curve"/>
      <point x="1080" y="0" type="line"/>
      <point x="984" y="90" type="line"/>
      <point x="898" y="14"/>
      <point x="768" y="-24"/>
      <point x="596" y="-24" type="curve" smooth="yes"/>
      <point x="352" y="-24"/>
      <point x="96" y="78"/>
      <point x="96" y="348" type="curve" smooth="yes"/>
      <point x="96" y="518"/>
      <point x="184" y="646"/>
      <point x="362" y="732" type="curve"/>
      <point x="252" y="820"/>
      <point x="198" y="924"/>
      <point x="198" y="1046" type="curve" smooth="yes"/>
      <point x="198" y="1242"/>
      <point x="416" y="1310"/>
      <point x="572" y="1310" type="curve" smooth="yes"/>
      <point x="732" y="1310"/>
      <point x="930" y="1244"/>
      <point x="930" y="1062" type="curve" smooth="yes"/>
      <point x="930" y="882"/>
      <point x="792" y="782"/>
      <point x="666" y="692" type="curve"/>
      <point x="734" y="604"/>
      <point x="828" y="506"/>
      <point x="950" y="396" type="curve"/>
      <point x="978" y="470"/>
      <point x="992" y="554"/>
      <point x="992" y="644" type="curve" smooth="yes"/>
      <point x="992" y="656"/>
      <point x="992" y="666"/>
      <point x="992" y="678" type="curve"/>
      <point x="1236" y="678" type="line"/>
      <point x="1222" y="522"/>
      <point x="1188" y="368"/>
      <point x="1122" y="234" type="curve"/>
      <point x="1180" y="164"/>
      <point x="1268" y="86"/>
    </contour>
  </outline>
</glyph>
<glyph name="quotesingle" format="2">
  <advance width="732"/>
  <unicode hex="0027"/>
  <outline>
    <contour>
      <point x="498" y="1286" type="line"/>
      <point x="452" y="768" type="line"/>
      <point x="278" y="768" type="line"/>
      <point x="230" y="1286" type="line"/>
    </contour>
  </outline>
</glyph>
<glyph name="parenleft" format="2">
  <advance width="463"/>
  <unicode hex="0028"/>
  <outline>
    <contour>
      <point x="289" y="-471" type="curve"/>
      <point x="424" y="-471" type="line"/>
      <point x="262" y="-271"/>
      <point x="187" y="-24"/>
      <point x="187" y="225" type="curve" smooth="yes"/>
      <point x="187" y="457"/>
      <point x="267" y="704"/>
      <point x="424" y="924" type="curve"/>
      <point x="294" y="924" type="line"/>
      <point x="149" y="720"/>
      <point x="73" y="492"/>
      <point x="73" y="225" type="curve" smooth="yes"/>
      <point x="73" y="-43"/>
      <point x="134" y="-276"/>
    </contour>
  </outline>
</glyph>
<glyph name="parenright" format="2">
  <advance width="930"/>
  <unicode hex="0029"/>
  <outline>
    <contour>
      <point x="782" y="450" type="curve" smooth="yes"/>
      <point x="782" y="-84"/>
      <point x="660" y="-556"/>
      <point x="350" y="-942" type="curve"/>
      <point x="80" y="-942" type="line"/>
      <point x="410" y="-544"/>
      <point x="554" y="-46"/>
      <point x="554" y="450" type="curve" smooth="yes"/>
      <point x="554" y="914"/>
      <point x="398" y="1408"/>
      <point x="80" y="1848" type="curve"/>
      <point x="342" y="1848" type="line"/>
      <point x="628" y="1440"/>
      <point x="782" y="984"/>
    </contour>
  </outline>
</glyph>
<glyph name="asterisk" format="2">
  <advance width="1140"/>
  <unicode hex="002A"/>
  <outline>
    <contour>
      <point x="1028" y="792" type="line"/>
      <point x="914" y="596" type="line"/>
      <point x="686" y="732" type="line"/>
      <point x="686" y="464" type="line"/>
      <point x="462" y="464" type="line"/>
      <point x="462" y="732" type="line"/>
      <point x="234" y="596" type="line"/>
      <point x="110" y="788" type="line"/>
      <point x="350" y="926" type="line"/>
      <point x="110" y="1062" type="line"/>
      <point x="234" y="1254" type="line"/>
      <point x="458" y="1124" type="line"/>
      <point x="458" y="1388" type="line"/>
      <point x="686" y="1388" type="line"/>
      <point x="686" y="1124" type="line"/>
      <point x="914" y="1254" type="line"/>
      <point x="1028" y="1058" type="line"/>
      <point x="798" y="926" type="line"/>
    </contour>
  </outline>
</glyph>
<glyph name="plus" format="2">
  <advance width="1164"/>
  <unicode hex="002B"/>
  <outline>
    <contour>
      <point x="978" y="566" type="line"/>
      <point x="978" y="338" type="line"/>
      <point x="696" y="338" type="line"/>
      <point x="696" y="54" type="line"/>
      <point x="468" y="54" type="line"/>
      <point x="468" y="338" type="line"/>
      <point x="186" y="338" type="line"/>
      <point x="186" y="566" type="line"/>
      <point x="468" y="566" type="line"/>
      <point x="468" y="852" type="line"/>
      <point x="696" y="852" type="line"/>
      <point x="696" y="566" type="line"/>
    </contour>
  </outline>
</glyph>
<glyph name="comma" format="2">
  <advance width="516"/>
  <unicode hex="002C"/>
  <outline>
    <contour>
      <point x="434" y="134" type="curve" smooth="yes"/>
      <point x="434" y="-40"/>
      <point x="320" y="-214"/>
      <point x="198" y="-292" type="curve"/>
      <point x="174" y="-256" type="line"/>
      <point x="228" y="-212"/>
      <point x="284" y="-112"/>
      <point x="284" y="-10" type="curve" smooth="yes"/>
      <point x="284" y="4"/>
      <point x="284" y="12"/>
      <point x="282" y="26" type="curve"/>
      <point x="256" y="8"/>
      <point x="176" y="-16"/>
      <point x="144" y="-16" type="curve" smooth="yes"/>
      <point x="116" y="-16"/>
      <point x="80" y="46"/>
      <point x="80" y="134" type="curve" smooth="yes"/>
      <point x="80" y="230"/>
      <point x="158" y="320"/>
      <point x="254" y="320" type="curve" smooth="yes"/>
      <point x="368" y="320"/>
      <point x="434" y="222"/>
    </contour>
  </outline>
</glyph>
<glyph name="hyphen" format="2">
  <advance width="1014"/>
  <unicode hex="002D"/>
  <outline>
    <contour>
      <point x="902" y="554" type="line"/>
      <point x="902" y="326" type="line"/>
      <point x="110" y="326" type="line"/>
      <point x="110" y="554" type="line"/>
    </contour>
  </outline>
</glyph>
<glyph name="period" format="2">
  <advance width="265"/>
  <unicode hex="002E"/>
  <outline>
    <contour>
      <point x="133" y="-23" type="curve" smooth="yes"/>
      <point x="180" y="-23"/>
      <point x="225" y="18"/>
      <point x="225" y="67" type="curve" smooth="yes"/>
      <point x="225" y="117"/>
      <point x="180" y="157"/>
      <point x="133" y="157" type="curve" smooth="yes"/>
      <point x="84" y="157"/>
      <point x="40" y="117"/>
      <point x="40" y="67" type="curve" smooth="yes"/>
      <point x="40" y="18"/>
      <point x="84" y="-23"/>
    </contour>
  </outline>
</glyph>
<glyph name="slash" format="2">
  <advance width="1116"/>
  <unicode hex="002F"/>
  <outline>
    <contour>
      <point x="1004" y="1494" type="line"/>
      <point x="288" y="-550" type="line"/>
      <point x="110" y="-372" type="line"/>
      <point x="824" y="1662" type="line"/>
    </contour>
  </outline>
</glyph>
<glyph name="zero" format="2">
  <advance width="1022"/>
  <unicode hex="0030"/>
  <outline>
    <contour>
      <point x="702" y="644" type="curve" smooth="yes"/>
      <point x="702" y="876"/>
      <point x="694" y="1134"/>
      <point x="512" y="1134" type="curve" smooth="yes"/>
      <point x="326" y="1134"/>
      <point x="318" y="870"/>
      <point x="318" y="644" type="curve" smooth="yes"/>
      <point x="318" y="416"/>
      <point x="326" y="152"/>
      <point x="512" y="152" type="curve" smooth="yes"/>
      <point x="694" y="152"/>
      <point x="702" y="416"/>
    </contour>
    <contour>
      <point x="960" y="644" type="curve" smooth="yes"/>
      <point x="960" y="198"/>
      <point x="810" y="-24"/>
      <point x="512" y="-24" type="curve" smooth="yes"/>
      <point x="212" y="-24"/>
      <point x="62" y="198"/>
      <point x="62" y="644" type="curve" smooth="yes"/>
      <point x="62" y="1088"/>
      <point x="212" y="1310"/>
      <point x="512" y="1310" type="curve" smooth="yes"/>
      <point x="810" y="1310"/>
      <point x="960" y="1088"/>
    </contour>
  </outline>
</glyph>
<glyph name="one" format="2">
  <advance width="511"/>
  <unicode hex="0031"/>
  <outline>
    <contour>
      <point x="361" y="0" type="line"/>
      <point x="241" y="0" type="line"/>
      <point x="241" y="517" type="line"/>
      <point x="195" y="478"/>
      <point x="144" y="450"/>
      <point x="88" y="433" type="curve"/>
      <point x="88" y="543" type="line"/>
      <point x="153" y="568"/>
      <point x="207" y="601"/>
      <point x="250" y="643" type="curve"/>
      <point x="361" y="643" type="line"/>
    </contour>
  </outline>
</glyph>
<glyph name="two" format="2">
  <advance width="1022"/>
  <unicode hex="0032"/>
  <outline>
    <contour>
      <point x="966" y="0" type="line"/>
      <point x="56" y="0" type="line"/>
      <point x="56" y="230" type="line"/>
      <point x="608" y="642"/>
      <point x="714" y="844"/>
      <point x="714" y="938" type="curve" smooth="yes"/>
      <point x="714" y="1032"/>
      <point x="644" y="1116"/>
      <point x="552" y="1116" type="curve" smooth="yes"/>
      <point x="444" y="1116"/>
      <point x="362" y="1036"/>
      <point x="362" y="932" type="curve"/>
      <point x="104" y="932" type="line"/>
      <point x="104" y="1174"/>
      <point x="328" y="1310"/>
      <point x="546" y="1310" type="curve" smooth="yes"/>
      <point x="782" y="1310"/>
      <point x="966" y="1174"/>
      <point x="966" y="948" type="curve" smooth="yes"/>
      <point x="966" y="764"/>
      <point x="846" y="552"/>
      <point x="332" y="204" type="curve"/>
      <point x="966" y="204" type="line"/>
    </contour>
  </outline>
</glyph>
<glyph name="three" format="2">
  <advance width="1022"/>
  <unicode hex="0033"/>
  <outline>
    <contour>
      <point x="938" y="362" type="curve" smooth="yes"/>
      <point x="938" y="130"/>
      <point x="720" y="-24"/>
      <point x="512" y="-24" type="curve" smooth="yes"/>
      <point x="226" y="-24"/>
      <point x="84" y="104"/>
      <point x="84" y="362" type="curve"/>
      <point x="336" y="362" type="line"/>
      <point x="336" y="248"/>
      <point x="402" y="170"/>
      <point x="498" y="170" type="curve" smooth="yes"/>
      <point x="610" y="170"/>
      <point x="686" y="244"/>
      <point x="686" y="380" type="curve" smooth="yes"/>
      <point x="686" y="562"/>
      <point x="570" y="572"/>
      <point x="366" y="572" type="curve"/>
      <point x="366" y="768" type="line"/>
      <point x="536" y="770"/>
      <point x="656" y="798"/>
      <point x="656" y="932" type="curve" smooth="yes"/>
      <point x="656" y="1048"/>
      <point x="600" y="1116"/>
      <point x="504" y="1116" type="curve" smooth="yes"/>
      <point x="402" y="1116"/>
      <point x="332" y="1054"/>
      <point x="332" y="948" type="curve"/>
      <point x="84" y="948" type="line"/>
      <point x="84" y="1172"/>
      <point x="254" y="1310"/>
      <point x="512" y="1310" type="curve" smooth="yes"/>
      <point x="750" y="1310"/>
      <point x="906" y="1160"/>
      <point x="906" y="942" type="curve" smooth="yes"/>
      <point x="906" y="786"/>
      <point x="792" y="716"/>
      <point x="668" y="672" type="curve"/>
      <point x="810" y="634"/>
      <point x="938" y="554"/>
    </contour>
  </outline>
</glyph>
<glyph name="four" format="2">
  <advance width="1022"/>
  <unicode hex="0034"/>
  <outline>
    <contour>
      <point x="582" y="486" type="line"/>
      <point x="582" y="1050" type="line"/>
      <point x="258" y="486" type="line"/>
    </contour>
    <contour>
      <point x="984" y="282" type="line"/>
      <point x="822" y="282" type="line"/>
      <point x="822" y="0" type="line"/>
      <point x="582" y="0" type="line"/>
      <point x="582" y="282" type="line"/>
      <point x="38" y="282" type="line"/>
      <point x="38" y="512" type="line"/>
      <point x="512" y="1286" type="line"/>
      <point x="822" y="1286" type="line"/>
      <point x="822" y="486" type="line"/>
      <point x="984" y="486" type="line"/>
    </contour>
  </outline>
</glyph>
<glyph name="five" format="2">
  <advance width="511"/>
  <unicode hex="0035"/>
  <outline>
    <contour>
      <point x="477" y="226" type="curve" smooth="yes"/>
      <point x="477" y="86"/>
      <point x="374" y="-12"/>
      <point x="241" y="-12" type="curve" smooth="yes"/>
      <point x="125" y="-12"/>
      <point x="42" y="48"/>
      <point x="34" y="163" type="curve"/>
      <point x="154" y="163" type="line"/>
      <point x="154" y="111"/>
      <point x="183" y="85"/>
      <point x="241" y="85" type="curve" smooth="yes"/>
      <point x="318" y="85"/>
      <point x="351" y="153"/>
      <point x="351" y="219" type="curve" smooth="yes"/>
      <point x="351" y="292"/>
      <point x="320" y="328"/>
      <point x="258" y="328" type="curve" smooth="yes"/>
      <point x="207" y="328"/>
      <point x="182" y="308"/>
      <point x="157" y="259" type="curve"/>
      <point x="43" y="259" type="line"/>
      <point x="61" y="643" type="line"/>
      <point x="441" y="643" type="line"/>
      <point x="441" y="541" type="line"/>
      <point x="178" y="541" type="line"/>
      <point x="169" y="373" type="line"/>
      <point x="195" y="404"/>
      <point x="239" y="420"/>
      <point x="300" y="420" type="curve" smooth="yes"/>
      <point x="409" y="420"/>
      <point x="477" y="325"/>
    </contour>
  </outline>
</glyph>
<glyph name="six" format="2">
  <advance width="1022"/>
  <unicode hex="0036"/>
  <outline>
    <contour>
      <point x="702" y="408" type="curve" smooth="yes"/>
      <point x="702" y="566"/>
      <point x="644" y="644"/>
      <point x="528" y="644" type="curve" smooth="yes"/>
      <point x="410" y="644"/>
      <point x="350" y="566"/>
      <point x="350" y="408" type="curve" smooth="yes"/>
      <point x="350" y="250"/>
      <point x="410" y="170"/>
      <point x="528" y="170" type="curve" smooth="yes"/>
      <point x="644" y="170"/>
      <point x="702" y="250"/>
    </contour>
    <contour>
      <point x="962" y="434" type="curve" smooth="yes"/>
      <point x="962" y="216"/>
      <point x="832" y="-24"/>
      <point x="510" y="-24" type="curve" smooth="yes"/>
      <point x="162" y="-24"/>
      <point x="60" y="278"/>
      <point x="60" y="584" type="curve" smooth="yes"/>
      <point x="60" y="914"/>
      <point x="148" y="1310"/>
      <point x="540" y="1310" type="curve" smooth="yes"/>
      <point x="750" y="1310"/>
      <point x="920" y="1172"/>
      <point x="938" y="966" type="curve"/>
      <point x="690" y="966" type="line"/>
      <point x="690" y="1048"/>
      <point x="628" y="1116"/>
      <point x="546" y="1116" type="curve" smooth="yes"/>
      <point x="356" y="1116"/>
      <point x="308" y="796"/>
      <point x="308" y="668" type="curve"/>
      <point x="376" y="758"/>
      <point x="444" y="824"/>
      <point x="614" y="824" type="curve" smooth="yes"/>
      <point x="838" y="824"/>
      <point x="962" y="628"/>
    </contour>
  </outline>
</glyph>
<glyph name="seven" format="2">
  <advance width="511"/>
  <unicode hex="0037"/>
  <outline>
    <contour>
      <point x="471" y="519" type="line"/>
      <point x="253" y="0" type="line"/>
      <point x="105" y="0" type="line"/>
      <point x="351" y="541" type="line"/>
      <point x="40" y="541" type="line"/>
      <point x="40" y="643" type="line"/>
      <point x="471" y="643" type="line"/>
    </contour>
  </outline>
</glyph>
<glyph name="eight" format="2">
  <advance width="1022"/>
  <unicode hex="0038"/>
  <outline>
    <contour>
      <point x="702" y="378" type="curve" smooth="yes"/>
      <point x="702" y="492"/>
      <point x="632" y="584"/>
      <point x="512" y="584" type="curve" smooth="yes"/>
      <point x="392" y="584"/>
      <point x="326" y="486"/>
      <point x="326" y="378" type="curve" smooth="yes"/>
      <point x="326" y="264"/>
      <point x="398" y="170"/>
      <point x="512" y="170" type="curve" smooth="yes"/>
      <point x="632" y="170"/>
      <point x="702" y="270"/>
    </contour>
    <contour>
      <point x="672" y="950" type="curve" smooth="yes"/>
      <point x="672" y="1054"/>
      <point x="606" y="1116"/>
      <point x="512" y="1116" type="curve" smooth="yes"/>
      <point x="416" y="1116"/>
      <point x="350" y="1054"/>
      <point x="350" y="950" type="curve" smooth="yes"/>
      <point x="350" y="846"/>
      <point x="416" y="786"/>
      <point x="512" y="786" type="curve" smooth="yes"/>
      <point x="606" y="786"/>
      <point x="672" y="846"/>
    </contour>
    <contour>
      <point x="960" y="332" type="curve" smooth="yes"/>
      <point x="960" y="68"/>
      <point x="734" y="-24"/>
      <point x="512" y="-24" type="curve" smooth="yes"/>
      <point x="272" y="-24"/>
      <point x="62" y="76"/>
      <point x="62" y="332" type="curve" smooth="yes"/>
      <point x="62" y="538"/>
      <point x="178" y="644"/>
      <point x="306" y="690" type="curve"/>
      <point x="186" y="732"/>
      <point x="84" y="812"/>
      <point x="84" y="980" type="curve" smooth="yes"/>
      <point x="84" y="1232"/>
      <point x="306" y="1310"/>
      <point x="512" y="1310" type="curve" smooth="yes"/>
      <point x="718" y="1310"/>
      <point x="938" y="1244"/>
      <point x="938" y="972" type="curve" smooth="yes"/>
      <point x="938" y="810"/>
      <point x="816" y="732"/>
      <point x="698" y="690" type="curve"/>
      <point x="828" y="650"/>
      <point x="960" y="546"/>
    </contour>
  </outline>
</glyph>
<glyph name="nine" format="2">
  <advance width="1022"/>
  <unicode hex="0039"/>
  <outline>
    <contour>
      <point x="672" y="878" type="curve" smooth="yes"/>
      <point x="672" y="1036"/>
      <point x="612" y="1116"/>
      <point x="494" y="1116" type="curve" smooth="yes"/>
      <point x="376" y="1116"/>
      <point x="318" y="1036"/>
      <point x="318" y="878" type="curve" smooth="yes"/>
      <point x="318" y="720"/>
      <point x="376" y="642"/>
      <point x="494" y="642" type="curve" smooth="yes"/>
      <point x="612" y="642"/>
      <point x="672" y="720"/>
    </contour>
    <contour>
      <point x="962" y="698" type="curve" smooth="yes"/>
      <point x="962" y="372"/>
      <point x="860" y="-24"/>
      <point x="482" y="-24" type="curve" smooth="yes"/>
      <point x="290" y="-24"/>
      <point x="84" y="122"/>
      <point x="84" y="320" type="curve"/>
      <point x="332" y="320" type="line"/>
      <point x="332" y="232"/>
      <point x="394" y="170"/>
      <point x="476" y="170" type="curve" smooth="yes"/>
      <point x="666" y="170"/>
      <point x="714" y="484"/>
      <point x="714" y="614" type="curve"/>
      <point x="660" y="520"/>
      <point x="538" y="462"/>
      <point x="408" y="462" type="curve" smooth="yes"/>
      <point x="162" y="462"/>
      <point x="60" y="686"/>
      <point x="60" y="852" type="curve" smooth="yes"/>
      <point x="60" y="1082"/>
      <point x="202" y="1310"/>
      <point x="512" y="1310" type="curve" smooth="yes"/>
      <point x="878" y="1310"/>
      <point x="962" y="984"/>
    </contour>
  </outline>
</glyph>
<glyph name="colon" format="2">
  <advance width="530"/>
  <unicode hex="003A"/>
  <outline>
    <contour>
      <point x="450" y="134" type="curve" smooth="yes"/>
      <point x="450" y="36"/>
      <point x="360" y="-46"/>
      <point x="266" y="-46" type="curve" smooth="yes"/>
      <point x="168" y="-46"/>
      <point x="80" y="36"/>
      <point x="80" y="134" type="curve" smooth="yes"/>
      <point x="80" y="234"/>
      <point x="168" y="314"/>
      <point x="266" y="314" type="curve" smooth="yes"/>
      <point x="360" y="314"/>
      <point x="450" y="234"/>
    </contour>
    <contour>
      <point x="450" y="752" type="curve" smooth="yes"/>
      <point x="450" y="654"/>
      <point x="360" y="572"/>
      <point x="266" y="572" type="curve" smooth="yes"/>
      <point x="168" y="572"/>
      <point x="80" y="654"/>
      <point x="80" y="752" type="curve" smooth="yes"/>
      <point x="80" y="852"/>
      <point x="168" y="932"/>
      <point x="266" y="932" type="curve" smooth="yes"/>
      <point x="360" y="932"/>
      <point x="450" y="852"/>
    </contour>
  </outline>
</glyph>
<glyph name="semicolon" format="2">
  <advance width="530"/>
  <unicode hex="003B"/>
  <outline>
    <contour>
      <point x="434" y="134" type="curve" smooth="yes"/>
      <point x="434" y="-42"/>
      <point x="320" y="-210"/>
      <point x="198" y="-292" type="curve"/>
      <point x="156" y="-256" type="line"/>
      <point x="212" y="-210"/>
      <point x="284" y="-106"/>
      <point x="284" y="-4" type="curve" smooth="yes"/>
      <point x="284" y="6"/>
      <point x="284" y="18"/>
      <point x="282" y="26" type="curve"/>
      <point x="242" y="10"/>
      <point x="164" y="-16"/>
      <point x="144" y="-16" type="curve" smooth="yes"/>
      <point x="128" y="-16"/>
      <point x="80" y="22"/>
      <point x="80" y="134" type="curve" smooth="yes"/>
      <point x="80" y="230"/>
      <point x="158" y="320"/>
      <point x="254" y="320" type="curve" smooth="yes"/>
      <point x="368" y="320"/>
      <point x="434" y="222"/>
    </contour>
    <contour>
      <point x="450" y="752" type="curve" smooth="yes"/>
      <point x="450" y="654"/>
      <point x="360" y="572"/>
      <point x="266" y="572" type="curve" smooth="yes"/>
      <point x="168" y="572"/>
      <point x="80" y="654"/>
      <point x="80" y="752" type="curve" smooth="yes"/>
      <point x="80" y="852"/>
      <point x="168" y="932"/>
      <point x="266" y="932" type="curve" smooth="yes"/>
      <point x="360" y="932"/>
      <point x="450" y="852"/>
    </contour>
  </outline>
</glyph>
<glyph name="less" format="2">
  <advance width="1782"/>
  <unicode hex="003C"/>
  <outline>
    <contour>
      <point x="1424" y="240" type="line"/>
      <point x="1424" y="68" type="line"/>
      <point x="356" y="476" type="line"/>
      <point x="356" y="590" type="line"/>
      <point x="1424" y="998" type="line"/>
      <point x="1424" y="828" type="line"/>
      <point x="638" y="534" type="line"/>
    </contour>
  </outline>
</glyph>
<glyph name="equal" format="2">
  <advance width="1182"/>
  <unicode hex="003D"/>
  <outline>
    <contour>
      <point x="1130" y="770" type="line"/>
      <point x="1130" y="542" type="line"/>
      <point x="50" y="542" type="line"/>
      <point x="50" y="770" type="line"/>
    </contour>
    <contour>
      <point x="1130" y="350" type="line"/>
      <point x="1130" y="122" type="line"/>
      <point x="50" y="122" type="line"/>
      <point x="50" y="350" type="line"/>
    </contour>
  </outline>
</glyph>
<glyph name="greater" format="2">
  <advance width="1782"/>
  <unicode hex="003E"/>
  <outline>
    <contour>
      <point x="1424" y="590" type="line"/>
      <point x="1424" y="476" type="line"/>
      <point x="356" y="68" type="line"/>
      <point x="356" y="240" type="line"/>
      <point x="1142" y="534" type="line"/>
      <point x="356" y="828" type="line"/>
      <point x="356" y="998" type="line"/>
    </contour>
  </outline>
</glyph>
<glyph name="question" format="2">
  <advance width="896"/>
  <unicode hex="003F"/>
  <outline>
    <contour>
      <point x="786" y="1162" type="curve" smooth="yes"/>
      <point x="786" y="850"/>
      <point x="518" y="886"/>
      <point x="518" y="692" type="curve" smooth="yes"/>
      <point x="518" y="400" type="line"/>
      <point x="290" y="400" type="line"/>
      <point x="290" y="726" type="line" smooth="yes"/>
      <point x="290" y="962"/>
      <point x="560" y="954"/>
      <point x="560" y="1162" type="curve" smooth="yes"/>
      <point x="560" y="1240"/>
      <point x="478" y="1314"/>
      <point x="404" y="1314" type="curve" smooth="yes"/>
      <point x="324" y="1314"/>
      <point x="252" y="1248"/>
      <point x="252" y="1134" type="curve" smooth="yes"/>
      <point x="252" y="1116" type="line"/>
      <point x="24" y="1116" type="line"/>
      <point x="24" y="1134" type="line" smooth="yes"/>
      <point x="24" y="1330"/>
      <point x="174" y="1546"/>
      <point x="404" y="1546" type="curve" smooth="yes"/>
      <point x="638" y="1546"/>
      <point x="786" y="1348"/>
    </contour>
    <contour>
      <point x="538" y="116" type="curve" smooth="yes"/>
      <point x="538" y="44"/>
      <point x="480" y="-22"/>
      <point x="402" y="-22" type="curve" smooth="yes"/>
      <point x="322" y="-22"/>
      <point x="270" y="52"/>
      <point x="270" y="116" type="curve" smooth="yes"/>
      <point x="270" y="180"/>
      <point x="322" y="242"/>
      <point x="402" y="242" type="curve" smooth="yes"/>
      <point x="480" y="242"/>
      <point x="538" y="180"/>
    </contour>
  </outline>
</glyph>
<glyph name="at" format="2">
  <advance width="1854"/>
  <unicode hex="0040"/>
  <outline>
    <contour>
      <point x="1100" y="470" type="curve" smooth="yes"/>
      <point x="1100" y="632"/>
      <point x="1042" y="714"/>
      <point x="924" y="714" type="curve" smooth="yes"/>
      <point x="794" y="714"/>
      <point x="744" y="554"/>
      <point x="744" y="452" type="curve" smooth="yes"/>
      <point x="744" y="342"/>
      <point x="792" y="200"/>
      <point x="918" y="200" type="curve" smooth="yes"/>
      <point x="1058" y="200"/>
      <point x="1100" y="362"/>
    </contour>
    <contour>
      <point x="1782" y="546" type="curve" smooth="yes"/>
      <point x="1782" y="308"/>
      <point x="1666" y="6"/>
      <point x="1398" y="6" type="curve" smooth="yes"/>
      <point x="1276" y="6"/>
      <point x="1190" y="54"/>
      <point x="1140" y="150" type="curve"/>
      <point x="1066" y="60"/>
      <point x="980" y="14"/>
      <point x="882" y="14" type="curve" smooth="yes"/>
      <point x="646" y="14"/>
      <point x="494" y="234"/>
      <point x="494" y="446" type="curve" smooth="yes"/>
      <point x="494" y="676"/>
      <point x="624" y="900"/>
      <point x="866" y="900" type="curve" smooth="yes"/>
      <point x="954" y="900"/>
      <point x="1032" y="860"/>
      <point x="1100" y="782" type="curve"/>
      <point x="1100" y="872" type="line"/>
      <point x="1344" y="872" type="line"/>
      <point x="1344" y="284" type="line" smooth="yes"/>
      <point x="1344" y="222"/>
      <point x="1380" y="192"/>
      <point x="1418" y="192" type="curve" smooth="yes"/>
      <point x="1488" y="192"/>
      <point x="1538" y="316"/>
      <point x="1538" y="476" type="curve" smooth="yes"/>
      <point x="1538" y="850"/>
      <point x="1320" y="1106"/>
      <point x="954" y="1106" type="curve" smooth="yes"/>
      <point x="568" y="1106"/>
      <point x="318" y="784"/>
      <point x="318" y="426" type="curve" smooth="yes"/>
      <point x="318" y="96"/>
      <point x="616" y="-168"/>
      <point x="912" y="-168" type="curve" smooth="yes"/>
      <point x="1110" y="-168"/>
      <point x="1258" y="-150"/>
      <point x="1356" y="-112" type="curve"/>
      <point x="1356" y="-348" type="line"/>
      <point x="1188" y="-368"/>
      <point x="1066" y="-378"/>
      <point x="992" y="-378" type="curve" smooth="yes"/>
      <point x="478" y="-378"/>
      <point x="72" y="-60"/>
      <point x="72" y="452" type="curve" smooth="yes"/>
      <point x="72" y="966"/>
      <point x="488" y="1310"/>
      <point x="966" y="1310" type="curve" smooth="yes"/>
      <point x="1424" y="1310"/>
      <point x="1782" y="996"/>
    </contour>
  </outline>
</glyph>
<glyph name="A" format="2">
  <advance width="1266"/>
  <unicode hex="0041"/>
  <outline>
    <contour>
      <point x="806" y="476" type="line"/>
      <point x="632" y="998" type="line"/>
      <point x="450" y="476" type="line"/>
    </contour>
    <contour>
      <point x="1248" y="0" type="line"/>
      <point x="986" y="0" type="line"/>
      <point x="882" y="276" type="line"/>
      <point x="374" y="276" type="line"/>
      <point x="276" y="0" type="line"/>
      <point x="18" y="0" type="line"/>
      <point x="500" y="1286" type="line"/>
      <point x="764" y="1286" type="line"/>
    </contour>
  </outline>
</glyph>
<glyph name="B" format="2">
  <advance width="600"/>
  <unicode hex="0042"/>
  <outline>
    <contour>
      <point x="63" y="0" type="line"/>
      <point x="336" y="0" type="line" smooth="yes"/>
      <point x="426" y="0"/>
      <point x="552" y="58"/>
      <point x="552" y="166" type="curve" smooth="yes"/>
      <point x="552" y="266"/>
      <point x="486" y="305"/>
      <point x="393" y="333" type="curve"/>
      <point x="461" y="363"/>
      <point x="520" y="401"/>
      <point x="520" y="486" type="curve" smooth="yes"/>
      <point x="520" y="591"/>
      <point x="428" y="643"/>
      <point x="327" y="643" type="curve" smooth="yes"/>
      <point x="63" y="643" type="line"/>
    </contour>
    <contour>
      <point x="195" y="102" type="line"/>
      <point x="195" y="282" type="line"/>
      <point x="289" y="282" type="line" smooth="yes"/>
      <point x="349" y="282"/>
      <point x="415" y="260"/>
      <point x="415" y="192" type="curve" smooth="yes"/>
      <point x="415" y="126"/>
      <point x="358" y="102"/>
      <point x="289" y="102" type="curve" smooth="yes"/>
    </contour>
    <contour>
      <point x="195" y="382" type="line"/>
      <point x="195" y="541" type="line"/>
      <point x="289" y="541" type="line" smooth="yes"/>
      <point x="336" y="541"/>
      <point x="388" y="515"/>
      <point x="388" y="460" type="curve" smooth="yes"/>
      <point x="388" y="410"/>
      <point x="333" y="382"/>
      <point x="280" y="382" type="curve" smooth="yes"/>
    </contour>
  </outline>
</glyph>
<glyph name="C" format="2">
  <advance width="1296"/>
  <unicode hex="0043"/>
  <outline>
    <contour>
      <point x="1200" y="432" type="line"/>
      <point x="1170" y="150"/>
      <point x="914" y="-24"/>
      <point x="660" y="-24" type="curve" smooth="yes"/>
      <point x="260" y="-24"/>
      <point x="96" y="298"/>
      <point x="96" y="644" type="curve" smooth="yes"/>
      <point x="96" y="1008"/>
      <point x="286" y="1310"/>
      <point x="660" y="1310" type="curve" smooth="yes"/>
      <point x="984" y="1310"/>
      <point x="1158" y="1166"/>
      <point x="1184" y="878" type="curve"/>
      <point x="926" y="878" type="line"/>
      <point x="904" y="1028"/>
      <point x="822" y="1106"/>
      <point x="660" y="1106" type="curve" smooth="yes"/>
      <point x="440" y="1106"/>
      <point x="366" y="924"/>
      <point x="366" y="644" type="curve" smooth="yes"/>
      <point x="366" y="356"/>
      <point x="440" y="176"/>
      <point x="660" y="176" type="curve" smooth="yes"/>
      <point x="820" y="176"/>
      <point x="886" y="296"/>
      <point x="912" y="432" type="curve"/>
    </contour>
  </outline>
</glyph>
<glyph name="D" format="2">
  <advance width="1298"/>
  <unicode hex="0044"/>
  <outline>
    <contour>
      <point x="936" y="644" type="curve" smooth="yes"/>
      <point x="936" y="936"/>
      <point x="796" y="1082"/>
      <point x="516" y="1082" type="curve" smooth="yes"/>
      <point x="390" y="1082" type="line"/>
      <point x="390" y="204" type="line"/>
      <point x="516" y="204" type="line" smooth="yes"/>
      <point x="796" y="204"/>
      <point x="936" y="350"/>
    </contour>
    <contour>
      <point x="1200" y="644" type="curve" smooth="yes"/>
      <point x="1200" y="218"/>
      <point x="906" y="0"/>
      <point x="516" y="0" type="curve" smooth="yes"/>
      <point x="126" y="0" type="line"/>
      <point x="126" y="1286" type="line"/>
      <point x="516" y="1286" type="line" smooth="yes"/>
      <point x="926" y="1286"/>
      <point x="1200" y="1048"/>
    </contour>
  </outline>
</glyph>
<glyph name="E" format="2">
  <advance width="1116"/>
  <unicode hex="0045"/>
  <outline>
    <contour>
      <point x="992" y="0" type="line"/>
      <point x="126" y="0" type="line"/>
      <point x="126" y="1286" type="line"/>
      <point x="974" y="1286" type="line"/>
      <point x="974" y="1082" type="line"/>
      <point x="380" y="1082" type="line"/>
      <point x="380" y="764" type="line"/>
      <point x="938" y="764" type="line"/>
      <point x="938" y="570" type="line"/>
      <point x="380" y="570" type="line"/>
      <point x="380" y="204" type="line"/>
      <point x="992" y="204" type="line"/>
    </contour>
  </outline>
</glyph>
<glyph name="F" format="2">
  <advance width="1040"/>
  <unicode hex="0046"/>
  <outline>
    <contour>
      <point x="906" y="560" type="line"/>
      <point x="390" y="560" type="line"/>
      <point x="390" y="0" type="line"/>
      <point x="126" y="0" type="line"/>
      <point x="126" y="1286" type="line"/>
      <point x="942" y="1286" type="line"/>
      <point x="942" y="1082" type="line"/>
      <point x="390" y="1082" type="line"/>
      <point x="390" y="764" type="line"/>
      <point x="906" y="764" type="line"/>
    </contour>
  </outline>
</glyph>
<glyph name="G" format="2">
  <advance width="1382"/>
  <unicode hex="0047"/>
  <outline>
    <contour>
      <point x="1256" y="56" type="line"/>
      <point x="1060" y="2"/>
      <point x="906" y="-24"/>
      <point x="794" y="-24" type="curve" smooth="yes"/>
      <point x="376" y="-24"/>
      <point x="96" y="222"/>
      <point x="96" y="630" type="curve" smooth="yes"/>
      <point x="96" y="1020"/>
      <point x="374" y="1310"/>
      <point x="750" y="1310" type="curve" smooth="yes"/>
      <point x="1078" y="1310"/>
      <point x="1272" y="1162"/>
      <point x="1272" y="882" type="curve"/>
      <point x="1004" y="882" type="line"/>
      <point x="998" y="1040"/>
      <point x="880" y="1106"/>
      <point x="740" y="1106" type="curve" smooth="yes"/>
      <point x="462" y="1106"/>
      <point x="366" y="854"/>
      <point x="366" y="624" type="curve" smooth="yes"/>
      <point x="366" y="356"/>
      <point x="528" y="180"/>
      <point x="788" y="180" type="curve" smooth="yes"/>
      <point x="826" y="180"/>
      <point x="892" y="188"/>
      <point x="986" y="206" type="curve"/>
      <point x="986" y="470" type="line"/>
      <point x="756" y="470" type="line"/>
      <point x="756" y="684" type="line"/>
      <point x="1256" y="684" type="line"/>
    </contour>
  </outline>
</glyph>
<glyph name="H" format="2">
  <advance width="1274"/>
  <unicode hex="0048"/>
  <outline>
    <contour>
      <point x="1148" y="0" type="line"/>
      <point x="890" y="0" type="line"/>
      <point x="890" y="570" type="line"/>
      <point x="384" y="570" type="line"/>
      <point x="384" y="0" type="line"/>
      <point x="126" y="0" type="line"/>
      <point x="126" y="1286" type="line"/>
      <point x="384" y="1286" type="line"/>
      <point x="384" y="774" type="line"/>
      <point x="890" y="774" type="line"/>
      <point x="890" y="1286" type="line"/>
      <point x="1148" y="1286" type="line"/>
    </contour>
  </outline>
</glyph>
<glyph name="I" format="2">
  <advance width="516"/>
  <unicode hex="0049"/>
  <outline>
    <contour>
      <point x="390" y="0" type="line"/>
      <point x="126" y="0" type="line"/>
      <point x="126" y="1286" type="line"/>
      <point x="390" y="1286" type="line"/>
    </contour>
  </outline>
</glyph>
<glyph name="J" format="2">
  <advance width="1116"/>
  <unicode hex="004A"/>
  <outline>
    <contour>
      <point x="992" y="380" type="line" smooth="yes"/>
      <point x="992" y="126"/>
      <point x="764" y="-24"/>
      <point x="536" y="-24" type="curve" smooth="yes"/>
      <point x="212" y="-24"/>
      <point x="96" y="124"/>
      <point x="96" y="404" type="curve"/>
      <point x="366" y="404" type="line"/>
      <point x="366" y="254"/>
      <point x="420" y="180"/>
      <point x="528" y="180" type="curve" smooth="yes"/>
      <point x="672" y="180"/>
      <point x="726" y="244"/>
      <point x="726" y="396" type="curve" smooth="yes"/>
      <point x="726" y="1290" type="line"/>
      <point x="992" y="1290" type="line"/>
    </contour>
  </outline>
</glyph>
<glyph name="K" format="2">
  <advance width="1238"/>
  <unicode hex="004B"/>
  <outline>
    <contour>
      <point x="1176" y="0" type="line"/>
      <point x="854" y="0" type="line"/>
      <point x="390" y="644" type="line"/>
      <point x="390" y="0" type="line"/>
      <point x="126" y="0" type="line"/>
      <point x="126" y="1286" type="line"/>
      <point x="390" y="1286" type="line"/>
      <point x="390" y="734" type="line"/>
      <point x="818" y="1286" type="line"/>
      <point x="1122" y="1286" type="line"/>
      <point x="668" y="710" type="line"/>
    </contour>
  </outline>
</glyph>
<glyph name="L" format="2">
  <advance width="1016"/>
  <unicode hex="004C"/>
  <outline>
    <contour>
      <point x="972" y="0" type="line"/>
      <point x="126" y="0" type="line"/>
      <point x="126" y="1286" type="line"/>
      <point x="390" y="1286" type="line"/>
      <point x="390" y="204" type="line"/>
      <point x="972" y="204" type="line"/>
    </contour>
  </outline>
</glyph>
<glyph name="M" format="2">
  <advance width="1656"/>
  <unicode hex="004D"/>
  <outline>
    <contour>
      <point x="1532" y="0" type="line"/>
      <point x="1280" y="0" type="line"/>
      <point x="1280" y="1068" type="line"/>
      <point x="956" y="0" type="line"/>
      <point x="698" y="0" type="line"/>
      <point x="374" y="1068" type="line"/>
      <point x="374" y="0" type="line"/>
      <point x="126" y="0" type="line"/>
      <point x="126" y="1286" type="line"/>
      <point x="552" y="1286" type="line"/>
      <point x="828" y="356" type="line"/>
      <point x="1104" y="1292" type="line"/>
      <point x="1532" y="1292" type="line"/>
    </contour>
  </outline>
</glyph>
<glyph name="N" format="2">
  <advance width="684"/>
  <unicode hex="004E"/>
  <outline>
    <contour>
      <point x="622" y="0" type="line"/>
      <point x="435" y="0" type="line"/>
      <point x="187" y="514" type="line"/>
      <point x="187" y="0" type="line"/>
      <point x="63" y="0" type="line"/>
      <point x="63" y="643" type="line"/>
      <point x="249" y="643" type="line"/>
      <point x="496" y="129" type="line"/>
      <point x="496" y="643" type="line"/>
      <point x="622" y="643" type="line"/>
    </contour>
  </outline>
</glyph>
<glyph name="O" format="2">
  <advance width="1416"/>
  <unicode hex="004F"/>
  <outline>
    <contour>
      <point x="1046" y="644" type="curve" smooth="yes"/>
      <point x="1046" y="952"/>
      <point x="934" y="1106"/>
      <point x="708" y="1106" type="curve" smooth="yes"/>
      <point x="482" y="1106"/>
      <point x="368" y="952"/>
      <point x="368" y="644" type="curve" smooth="yes"/>
      <point x="368" y="334"/>
      <point x="482" y="180"/>
      <point x="708" y="180" type="curve" smooth="yes"/>
      <point x="934" y="180"/>
      <point x="1046" y="334"/>
    </contour>
    <contour>
      <point x="1316" y="644" type="curve" smooth="yes"/>
      <point x="1316" y="256"/>
      <point x="1098" y="-24"/>
      <point x="708" y="-24" type="curve" smooth="yes"/>
      <point x="296" y="-24"/>
      <point x="96" y="276"/>
      <point x="96" y="644" type="curve" smooth="yes"/>
      <point x="96" y="1032"/>
      <point x="318" y="1310"/>
      <point x="708" y="1310" type="curve" smooth="yes"/>
      <point x="1116" y="1310"/>
      <point x="1316" y="1008"/>
    </contour>
  </outline>
</glyph>
<glyph name="P" format="2">
  <advance width="1170"/>
  <unicode hex="0050"/>
  <outline>
    <contour>
      <point x="804" y="884" type="curve" smooth="yes"/>
      <point x="804" y="1032"/>
      <point x="692" y="1082"/>
      <point x="516" y="1082" type="curve" smooth="yes"/>
      <point x="390" y="1082" type="line"/>
      <point x="390" y="692" type="line"/>
      <point x="516" y="692" type="line" smooth="yes"/>
      <point x="680" y="692"/>
      <point x="804" y="736"/>
    </contour>
    <contour>
      <point x="1070" y="884" type="curve" smooth="yes"/>
      <point x="1070" y="598"/>
      <point x="826" y="488"/>
      <point x="582" y="488" type="curve" smooth="yes"/>
      <point x="390" y="488" type="line"/>
      <point x="390" y="0" type="line"/>
      <point x="126" y="0" type="line"/>
      <point x="126" y="1286" type="line"/>
      <point x="582" y="1286" type="line" smooth="yes"/>
      <point x="846" y="1286"/>
      <point x="1070" y="1160"/>
    </contour>
  </outline>
</glyph>
<glyph name="Q" format="2">
  <advance width="1488"/>
  <unicode hex="0051"/>
  <outline>
    <contour>
      <point x="1046" y="644" type="curve" smooth="yes"/>
      <point x="1046" y="952"/>
      <point x="934" y="1106"/>
      <point x="708" y="1106" type="curve" smooth="yes"/>
      <point x="482" y="1106"/>
      <point x="368" y="952"/>
      <point x="368" y="644" type="curve" smooth="yes"/>
      <point x="368" y="334"/>
      <point x="482" y="180"/>
      <point x="708" y="180" type="curve" smooth="yes"/>
      <point x="934" y="180"/>
      <point x="1046" y="334"/>
    </contour>
    <contour>
      <point x="1424" y="0" type="line"/>
      <point x="962" y="0" type="line"/>
      <point x="824" y="-16"/>
      <point x="740" y="-24"/>
      <point x="708" y="-24" type="curve" smooth="yes"/>
      <point x="296" y="-24"/>
      <point x="96" y="276"/>
      <point x="96" y="644" type="curve" smooth="yes"/>
      <point x="96" y="1032"/>
      <point x="318" y="1310"/>
      <point x="708" y="1310" type="curve" smooth="yes"/>
      <point x="1116" y="1310"/>
      <point x="1316" y="1008"/>
      <point x="1316" y="644" type="curve" smooth="yes"/>
      <point x="1316" y="470"/>
      <point x="1266" y="326"/>
      <point x="1166" y="210" type="curve"/>
      <point x="1424" y="210" type="line"/>
    </contour>
  </outline>
</glyph>
<glyph name="R" format="2">
  <advance width="607"/>
  <unicode hex="0052"/>
  <outline>
    <contour>
      <point x="426" y="450" type="curve" smooth="yes"/>
      <point x="426" y="510"/>
      <point x="363" y="541"/>
      <point x="312" y="541" type="curve" smooth="yes"/>
      <point x="195" y="541" type="line"/>
      <point x="195" y="364" type="line"/>
      <point x="303" y="364" type="line" smooth="yes"/>
      <point x="353" y="364"/>
      <point x="426" y="396"/>
    </contour>
    <contour>
      <point x="574" y="0" type="curve"/>
      <point x="438" y="0" type="line"/>
      <point x="421" y="53"/>
      <point x="419" y="104"/>
      <point x="412" y="154" type="curve" smooth="yes"/>
      <point x="403" y="220"/>
      <point x="375" y="262"/>
      <point x="312" y="262" type="curve" smooth="yes"/>
      <point x="195" y="262" type="line"/>
      <point x="195" y="0" type="line"/>
      <point x="63" y="0" type="line"/>
      <point x="63" y="643" type="line"/>
      <point x="312" y="643" type="line" smooth="yes"/>
      <point x="477" y="643"/>
      <point x="559" y="586"/>
      <point x="559" y="471" type="curve" smooth="yes"/>
      <point x="559" y="389"/>
      <point x="486" y="344"/>
      <point x="423" y="319" type="curve"/>
      <point x="466" y="309"/>
      <point x="504" y="296"/>
      <point x="520" y="257" type="curve" smooth="yes"/>
      <point x="545" y="197"/>
      <point x="550" y="42"/>
    </contour>
  </outline>
</glyph>
<glyph name="S" format="2">
  <advance width="607"/>
  <unicode hex="0053"/>
  <outline>
    <contour>
      <point x="559" y="187" type="curve" smooth="yes"/>
      <point x="559" y="53"/>
      <point x="418" y="-12"/>
      <point x="306" y="-12" type="curve" smooth="yes"/>
      <point x="170" y="-12"/>
      <point x="48" y="59"/>
      <point x="48" y="202" type="curve"/>
      <point x="183" y="202" type="line"/>
      <point x="186" y="120"/>
      <point x="234" y="90"/>
      <point x="309" y="90" type="curve" smooth="yes"/>
      <point x="363" y="90"/>
      <point x="430" y="117"/>
      <point x="430" y="175" type="curve" smooth="yes"/>
      <point x="430" y="309"/>
      <point x="67" y="238"/>
      <point x="67" y="456" type="curve" smooth="yes"/>
      <point x="67" y="585"/>
      <point x="199" y="655"/>
      <point x="309" y="655" type="curve" smooth="yes"/>
      <point x="435" y="655"/>
      <point x="541" y="594"/>
      <point x="541" y="463" type="curve"/>
      <point x="406" y="463" type="line"/>
      <point x="406" y="521"/>
      <point x="363" y="558"/>
      <point x="309" y="558" type="curve" smooth="yes"/>
      <point x="259" y="558"/>
      <point x="195" y="526"/>
      <point x="195" y="471" type="curve" smooth="yes"/>
      <point x="195" y="343"/>
      <point x="559" y="408"/>
    </contour>
  </outline>
</glyph>
<glyph name="T" format="2">
  <advance width="567"/>
  <unicode hex="0054"/>
  <outline>
    <contour>
      <point x="540" y="541" type="line"/>
      <point x="349" y="541" type="line"/>
      <point x="349" y="0" type="line"/>
      <point x="216" y="0" type="line"/>
      <point x="216" y="541" type="line"/>
      <point x="27" y="541" type="line"/>
      <point x="27" y="643" type="line"/>
      <point x="540" y="643" type="line"/>
    </contour>
  </outline>
</glyph>
<glyph name="U" format="2">
  <advance width="1346"/>
  <unicode hex="0055"/>
  <outline>
    <contour>
      <point x="1224" y="530" type="line" smooth="yes"/>
      <point x="1224" y="184"/>
      <point x="986" y="-24"/>
      <point x="660" y="-24" type="curve" smooth="yes"/>
      <point x="312" y="-24"/>
      <point x="126" y="206"/>
      <point x="126" y="530" type="curve" smooth="yes"/>
      <point x="126" y="1286" type="line"/>
      <point x="390" y="1286" type="line"/>
      <point x="390" y="530" type="line" smooth="yes"/>
      <point x="390" y="296"/>
      <point x="482" y="180"/>
      <point x="668" y="180" type="curve" smooth="yes"/>
      <point x="860" y="180"/>
      <point x="956" y="296"/>
      <point x="956" y="530" type="curve" smooth="yes"/>
      <point x="956" y="1286" type="line"/>
      <point x="1224" y="1286" type="line"/>
    </contour>
  </outline>
</glyph>
<glyph name="V" format="2">
  <advance width="1314"/>
  <unicode hex="0056"/>
  <outline>
    <contour>
      <point x="1296" y="1286" type="line"/>
      <point x="806" y="0" type="line"/>
      <point x="492" y="0" type="line"/>
      <point x="18" y="1286" type="line"/>
      <point x="302" y="1286" type="line"/>
      <point x="656" y="296" type="line"/>
      <point x="1014" y="1286" type="line"/>
    </contour>
  </outline>
</glyph>
<glyph name="W" format="2">
  <advance width="1782"/>
  <unicode hex="0057"/>
  <outline>
    <contour>
      <point x="1764" y="1286" type="line"/>
      <point x="1442" y="0" type="line"/>
      <point x="1140" y="0" type="line"/>
      <point x="890" y="962" type="line"/>
      <point x="642" y="0" type="line"/>
      <point x="338" y="0" type="line"/>
      <point x="18" y="1286" type="line"/>
      <point x="302" y="1286" type="line"/>
      <point x="498" y="320" type="line"/>
      <point x="750" y="1286" type="line"/>
      <point x="1032" y="1286" type="line"/>
      <point x="1280" y="320" type="line"/>
      <point x="1478" y="1286" type="line"/>
    </contour>
  </outline>
</glyph>
<glyph name="X" format="2">
  <advance width="1236"/>
  <unicode hex="0058"/>
  <outline>
    <contour>
      <point x="1214" y="0" type="line"/>
      <point x="912" y="0" type="line"/>
      <point x="594" y="488" type="line"/>
      <point x="284" y="0" type="line"/>
      <point x="18" y="0" type="line"/>
      <point x="464" y="668" type="line"/>
      <point x="56" y="1286" type="line"/>
      <point x="356" y="1286" type="line"/>
      <point x="632" y="852" type="line"/>
      <point x="906" y="1286" type="line"/>
      <point x="1182" y="1286" type="line"/>
      <point x="762" y="668" type="line"/>
    </contour>
  </outline>
</glyph>
<glyph name="Y" format="2">
  <advance width="1166"/>
  <unicode hex="0059"/>
  <outline>
    <contour>
      <point x="1146" y="1286" type="line"/>
      <point x="716" y="486" type="line"/>
      <point x="716" y="0" type="line"/>
      <point x="450" y="0" type="line"/>
      <point x="450" y="486" type="line"/>
      <point x="18" y="1286" type="line"/>
      <point x="312" y="1286" type="line"/>
      <point x="582" y="746" type="line"/>
      <point x="852" y="1286" type="line"/>
    </contour>
  </outline>
</glyph>
<glyph name="Z" format="2">
  <advance width="1128"/>
  <unicode hex="005A"/>
  <outline>
    <contour>
      <point x="1046" y="0" type="line"/>
      <point x="80" y="0" type="line"/>
      <point x="80" y="222" type="line"/>
      <point x="726" y="1082" type="line"/>
      <point x="120" y="1082" type="line"/>
      <point x="120" y="1286" type="line"/>
      <point x="1034" y="1286" type="line"/>
      <point x="1034" y="1062" type="line"/>
      <point x="386" y="204" type="line"/>
      <point x="1046" y="204" type="line"/>
    </contour>
  </outline>
</glyph>
<glyph name="bracketleft" format="2">
  <advance width="696"/>
  <unicode hex="005B"/>
  <outline>
    <contour>
      <point x="548" y="-354" type="line"/>
      <point x="146" y="-354" type="line"/>
      <point x="146" y="1286" type="line"/>
      <point x="548" y="1286" type="line"/>
      <point x="548" y="1124" type="line"/>
      <point x="362" y="1124" type="line"/>
      <point x="362" y="-192" type="line"/>
      <point x="548" y="-192" type="line"/>
    </contour>
  </outline>
</glyph>
<glyph name="backslash" format="2">
  <advance width="1116"/>
  <unicode hex="005C"/>
  <outline>
    <contour>
      <point x="1004" y="-372" type="line"/>
      <point x="828" y="-550" type="line"/>
      <point x="110" y="1494" type="line"/>
      <point x="290" y="1662" type="line"/>
    </contour>
  </outline>
</glyph>
<glyph name="bracketright" format="2">
  <advance width="696"/>
  <unicode hex="005D"/>
  <outline>
    <contour>
      <point x="548" y="-354" type="line"/>
      <point x="146" y="-354" type="line"/>
      <point x="146" y="-192" type="line"/>
      <point x="336" y="-192" type="line"/>
      <point x="336" y="1124" type="line"/>
      <point x="146" y="1124" type="line"/>
      <point x="146" y="1286" type="line"/>
      <point x="548" y="1286" type="line"/>
    </contour>
  </outline>
</glyph>
<glyph name="asciicircum" format="2">
  <advance width="577"/>
  <unicode hex="005E"/>
  <anchor x="226" y="495" name="UM"/>
  <anchor x="291" y="465" name="_U"/>
  <outline>
    <contour>
      <point x="522" y="609" type="line"/>
      <point x="460" y="547" type="line"/>
      <point x="289" y="718" type="line"/>
      <point x="117" y="547" type="line"/>
      <point x="55" y="609" type="line"/>
      <point x="289" y="843" type="line"/>
    </contour>
  </outline>
</glyph>
<glyph name="underscore" format="2">
  <advance width="1154"/>
  <unicode hex="005F"/>
  <outline>
    <contour>
      <point x="1154" y="-400" type="line"/>
      <point x="0" y="-400" type="line"/>
      <point x="0" y="-172" type="line"/>
      <point x="1154" y="-172" type="line"/>
    </contour>
  </outline>
</glyph>
<glyph name="grave" format="2">
  <advance width="225"/>
  <unicode hex="0060"/>
  <outline>
    <contour>
      <point x="175" y="534" type="line"/>
      <point x="112" y="534" type="line"/>
      <point x="-23" y="694" type="line"/>
      <point x="94" y="694" type="line"/>
    </contour>
  </outline>
</glyph>
<glyph name="a" format="2">
  <advance width="490"/>
  <unicode hex="0061"/>
  <outline>
    <contour>
      <point x="318" y="222" type="curve"/>
      <point x="306" y="223"/>
      <point x="292" y="223"/>
      <point x="276" y="223" type="curve" smooth="yes"/>
      <point x="200" y="223"/>
      <point x="162" y="193"/>
      <point x="162" y="132" type="curve" smooth="yes"/>
      <point x="162" y="97"/>
      <point x="192" y="67"/>
      <point x="231" y="67" type="curve" smooth="yes"/>
      <point x="308" y="67"/>
      <point x="318" y="141"/>
    </contour>
    <contour>
      <point x="450" y="0" type="curve"/>
      <point x="340" y="0" type="line"/>
      <point x="337" y="11"/>
      <point x="330" y="39"/>
      <point x="328" y="52" type="curve"/>
      <point x="273" y="3"/>
      <point x="246" y="-12"/>
      <point x="193" y="-12" type="curve" smooth="yes"/>
      <point x="107" y="-12"/>
      <point x="40" y="41"/>
      <point x="40" y="124" type="curve" smooth="yes"/>
      <point x="40" y="250"/>
      <point x="151" y="291"/>
      <point x="252" y="291" type="curve" smooth="yes"/>
      <point x="318" y="291" type="line"/>
      <point x="317" y="350"/>
      <point x="309" y="387"/>
      <point x="246" y="387" type="curve" smooth="yes"/>
      <point x="192" y="387"/>
      <point x="185" y="365"/>
      <point x="177" y="322" type="curve"/>
      <point x="58" y="322" type="line"/>
      <point x="58" y="401"/>
      <point x="130" y="457"/>
      <point x="249" y="457" type="curve" smooth="yes"/>
      <point x="317" y="457"/>
      <point x="404" y="436"/>
      <point x="426" y="367" type="curve" smooth="yes"/>
      <point x="433" y="345"/>
      <point x="436" y="309"/>
      <point x="436" y="259" type="curve" smooth="yes"/>
      <point x="436" y="160" type="line" smooth="yes"/>
      <point x="436" y="96"/>
      <point x="441" y="35"/>
    </contour>
  </outline>
</glyph>
<glyph name="b" format="2">
  <advance width="546"/>
  <unicode hex="0062"/>
  <outline>
    <contour>
      <point x="387" y="216" type="curve" smooth="yes"/>
      <point x="387" y="282"/>
      <point x="361" y="382"/>
      <point x="276" y="382" type="curve" smooth="yes"/>
      <point x="210" y="382"/>
      <point x="177" y="328"/>
      <point x="177" y="220" type="curve" smooth="yes"/>
      <point x="177" y="160"/>
      <point x="202" y="67"/>
      <point x="280" y="67" type="curve" smooth="yes"/>
      <point x="358" y="67"/>
      <point x="386" y="147"/>
    </contour>
    <contour>
      <point x="507" y="216" type="curve" smooth="yes"/>
      <point x="507" y="81"/>
      <point x="426" y="-12"/>
      <point x="301" y="-12" type="curve" smooth="yes"/>
      <point x="246" y="-12"/>
      <point x="201" y="12"/>
      <point x="178" y="51" type="curve"/>
      <point x="178" y="0" type="line"/>
      <point x="58" y="0" type="line"/>
      <point x="58" y="643" type="line"/>
      <point x="178" y="643" type="line"/>
      <point x="178" y="405" type="line"/>
      <point x="206" y="435"/>
      <point x="246" y="457"/>
      <point x="309" y="457" type="curve" smooth="yes"/>
      <point x="466" y="457"/>
      <point x="507" y="318"/>
    </contour>
  </outline>
</glyph>
<glyph name="c" format="2">
  <advance width="920"/>
  <unicode hex="0063"/>
  <outline>
    <contour>
      <point x="474" y="-24" type="curve" smooth="yes"/>
      <point x="720" y="-24"/>
      <point x="842" y="92"/>
      <point x="842" y="326" type="curve"/>
      <point x="762" y="326"/>
      <point x="682" y="326"/>
      <point x="602" y="326" type="curve"/>
      <point x="600" y="222"/>
      <point x="578" y="126"/>
      <point x="464" y="126" type="curve" smooth="yes"/>
      <point x="342" y="126"/>
      <point x="308" y="210"/>
      <point x="308" y="440" type="curve" smooth="yes"/>
      <point x="308" y="692"/>
      <point x="358" y="764"/>
      <point x="486" y="764" type="curve" smooth="yes"/>
      <point x="556" y="764"/>
      <point x="596" y="702"/>
      <point x="606" y="578" type="curve"/>
      <point x="684" y="578"/>
      <point x="764" y="578"/>
      <point x="842" y="578" type="curve"/>
      <point x="842" y="802"/>
      <point x="720" y="914"/>
      <point x="474" y="914" type="curve" smooth="yes"/>
      <point x="226" y="914"/>
      <point x="80" y="746"/>
      <point x="80" y="434" type="curve" smooth="yes"/>
      <point x="80" y="128"/>
      <point x="212" y="-24"/>
    </contour>
  </outline>
</glyph>
<glyph name="d" format="2">
  <advance width="1092"/>
  <unicode hex="0064"/>
  <outline>
    <contour>
      <point x="738" y="440" type="curve" smooth="yes"/>
      <point x="738" y="656"/>
      <point x="672" y="764"/>
      <point x="540" y="764" type="curve" smooth="yes"/>
      <point x="368" y="764"/>
      <point x="318" y="564"/>
      <point x="318" y="432" type="curve" smooth="yes"/>
      <point x="318" y="296"/>
      <point x="378" y="134"/>
      <point x="530" y="134" type="curve" smooth="yes"/>
      <point x="684" y="134"/>
      <point x="738" y="320"/>
    </contour>
    <contour>
      <point x="974" y="0" type="line"/>
      <point x="734" y="0" type="line"/>
      <point x="734" y="122" type="line"/>
      <point x="656" y="24"/>
      <point x="576" y="-24"/>
      <point x="492" y="-24" type="curve" smooth="yes"/>
      <point x="218" y="-24"/>
      <point x="80" y="188"/>
      <point x="80" y="432" type="curve" smooth="yes"/>
      <point x="80" y="736"/>
      <point x="234" y="914"/>
      <point x="474" y="914" type="curve" smooth="yes"/>
      <point x="588" y="914"/>
      <point x="662" y="888"/>
      <point x="734" y="810" type="curve"/>
      <point x="734" y="1286" type="line"/>
      <point x="974" y="1286" type="line"/>
    </contour>
  </outline>
</glyph>
<glyph name="e" format="2">
  <advance width="984"/>
  <unicode hex="0065"/>
  <outline>
    <contour>
      <point x="654" y="548" type="line"/>
      <point x="654" y="560"/>
      <point x="654" y="570"/>
      <point x="652" y="582" type="curve" smooth="yes"/>
      <point x="644" y="704"/>
      <point x="592" y="764"/>
      <point x="492" y="764" type="curve" smooth="yes"/>
      <point x="382" y="764"/>
      <point x="326" y="692"/>
      <point x="326" y="548" type="curve"/>
    </contour>
    <contour>
      <point x="888" y="276" type="line"/>
      <point x="868" y="76"/>
      <point x="736" y="-24"/>
      <point x="492" y="-24" type="curve" smooth="yes"/>
      <point x="186" y="-24"/>
      <point x="80" y="182"/>
      <point x="80" y="440" type="curve" smooth="yes"/>
      <point x="80" y="716"/>
      <point x="222" y="914"/>
      <point x="506" y="914" type="curve" smooth="yes"/>
      <point x="796" y="914"/>
      <point x="906" y="696"/>
      <point x="906" y="464" type="curve" smooth="yes"/>
      <point x="906" y="440"/>
      <point x="904" y="418"/>
      <point x="902" y="396" type="curve"/>
      <point x="326" y="396" type="line"/>
      <point x="328" y="230"/>
      <point x="352" y="126"/>
      <point x="498" y="126" type="curve" smooth="yes"/>
      <point x="584" y="126"/>
      <point x="632" y="176"/>
      <point x="644" y="276" type="curve"/>
    </contour>
  </outline>
</glyph>
<glyph name="f" format="2">
  <advance width="632"/>
  <unicode hex="0066"/>
  <outline>
    <contour>
      <point x="632" y="1124" type="line"/>
      <point x="600" y="1142"/>
      <point x="566" y="1152"/>
      <point x="530" y="1152" type="curve" smooth="yes"/>
      <point x="442" y="1152"/>
      <point x="420" y="1108"/>
      <point x="420" y="1020" type="curve" smooth="yes"/>
      <point x="420" y="890" type="line"/>
      <point x="606" y="890" type="line"/>
      <point x="606" y="738" type="line"/>
      <point x="420" y="738" type="line"/>
      <point x="420" y="0" type="line"/>
      <point x="176" y="0" type="line"/>
      <point x="176" y="738" type="line"/>
      <point x="18" y="738" type="line"/>
      <point x="18" y="890" type="line"/>
      <point x="176" y="890" type="line"/>
      <point x="176" y="1026" type="line" smooth="yes"/>
      <point x="176" y="1234"/>
      <point x="266" y="1310"/>
      <point x="452" y="1310" type="curve" smooth="yes"/>
      <point x="508" y="1310"/>
      <point x="568" y="1300"/>
      <point x="632" y="1278" type="curve"/>
    </contour>
  </outline>
</glyph>
<glyph name="g" format="2">
  <advance width="1092"/>
  <unicode hex="0067"/>
  <outline>
    <contour>
      <point x="738" y="440" type="curve" smooth="yes"/>
      <point x="738" y="656"/>
      <point x="672" y="764"/>
      <point x="540" y="764" type="curve" smooth="yes"/>
      <point x="368" y="764"/>
      <point x="318" y="564"/>
      <point x="318" y="432" type="curve" smooth="yes"/>
      <point x="318" y="292"/>
      <point x="380" y="164"/>
      <point x="530" y="164" type="curve" smooth="yes"/>
      <point x="680" y="164"/>
      <point x="738" y="318"/>
    </contour>
    <contour>
      <point x="974" y="8" type="line" smooth="yes"/>
      <point x="974" y="-226"/>
      <point x="816" y="-354"/>
      <point x="534" y="-354" type="curve" smooth="yes"/>
      <point x="210" y="-354"/>
      <point x="128" y="-222"/>
      <point x="128" y="-94" type="curve"/>
      <point x="368" y="-94" type="line"/>
      <point x="368" y="-156"/>
      <point x="430" y="-202"/>
      <point x="536" y="-202" type="curve" smooth="yes"/>
      <point x="700" y="-202"/>
      <point x="734" y="-124"/>
      <point x="734" y="150" type="curve"/>
      <point x="656" y="52"/>
      <point x="576" y="2"/>
      <point x="492" y="2" type="curve" smooth="yes"/>
      <point x="224" y="2"/>
      <point x="80" y="184"/>
      <point x="80" y="432" type="curve" smooth="yes"/>
      <point x="80" y="736"/>
      <point x="234" y="914"/>
      <point x="474" y="914" type="curve" smooth="yes"/>
      <point x="588" y="914"/>
      <point x="660" y="878"/>
      <point x="734" y="810" type="curve"/>
      <point x="734" y="890" type="line"/>
      <point x="974" y="890" type="line"/>
    </contour>
  </outline>
</glyph>
<glyph name="h" format="2">
  <advance width="1062"/>
  <unicode hex="0068"/>
  <outline>
    <contour>
      <point x="948" y="0" type="line"/>
      <point x="704" y="0" type="line"/>
      <point x="704" y="534" type="line" smooth="yes"/>
      <point x="704" y="692"/>
      <point x="652" y="770"/>
      <point x="546" y="770" type="curve" smooth="yes"/>
      <point x="422" y="770"/>
      <point x="356" y="618"/>
      <point x="356" y="516" type="curve" smooth="yes"/>
      <point x="356" y="0" type="line"/>
      <point x="116" y="0" type="line"/>
      <point x="116" y="1286" type="line"/>
      <point x="356" y="1286" type="line"/>
      <point x="356" y="798" type="line"/>
      <point x="420" y="882"/>
      <point x="510" y="914"/>
      <point x="648" y="914" type="curve" smooth="yes"/>
      <point x="852" y="914"/>
      <point x="948" y="782"/>
      <point x="948" y="606" type="curve" smooth="yes"/>
    </contour>
  </outline>
</glyph>
<glyph name="i" format="2">
  <advance width="470"/>
  <unicode hex="0069"/>
  <outline>
    <contour>
      <point x="356" y="0" type="line"/>
      <point x="116" y="0" type="line"/>
      <point x="116" y="890" type="line"/>
      <point x="356" y="890" type="line"/>
    </contour>
    <contour>
      <point x="374" y="1052" type="line"/>
      <point x="96" y="1052" type="line"/>
      <point x="96" y="1286" type="line"/>
      <point x="374" y="1286" type="line"/>
    </contour>
  </outline>
</glyph>
<glyph name="j" format="2">
  <advance width="626"/>
  <unicode hex="006A"/>
  <outline>
    <contour>
      <point x="512" y="-144" type="line" smooth="yes"/>
      <point x="512" y="-286"/>
      <point x="392" y="-376"/>
      <point x="224" y="-376" type="curve" smooth="yes"/>
      <point x="136" y="-376"/>
      <point x="34" y="-348"/>
      <point x="-36" y="-288" type="curve"/>
      <point x="72" y="-138" type="line"/>
      <point x="104" y="-166"/>
      <point x="136" y="-180"/>
      <point x="170" y="-180" type="curve" smooth="yes"/>
      <point x="226" y="-180"/>
      <point x="270" y="-146"/>
      <point x="270" y="-90" type="curve" smooth="yes"/>
      <point x="270" y="890" type="line"/>
      <point x="512" y="890" type="line"/>
    </contour>
    <contour>
      <point x="528" y="1286" type="line"/>
      <point x="528" y="1052" type="line"/>
      <point x="252" y="1052" type="line"/>
      <point x="252" y="1286" type="line"/>
    </contour>
  </outline>
</glyph>
<glyph name="k" format="2">
  <advance width="490"/>
  <unicode hex="006B"/>
  <outline>
    <contour>
      <point x="477" y="0" type="line"/>
      <point x="330" y="0" type="line"/>
      <point x="178" y="232" type="line"/>
      <point x="178" y="0" type="line"/>
      <point x="58" y="0" type="line"/>
      <point x="58" y="643" type="line"/>
      <point x="178" y="643" type="line"/>
      <point x="178" y="268" type="line"/>
      <point x="318" y="445" type="line"/>
      <point x="462" y="445" type="line"/>
      <point x="301" y="253" type="line"/>
    </contour>
  </outline>
</glyph>
<glyph name="l" format="2">
  <advance width="470"/>
  <unicode hex="006C"/>
  <outline>
    <contour>
      <point x="356" y="0" type="line"/>
      <point x="116" y="0" type="line"/>
      <point x="116" y="1286" type="line"/>
      <point x="356" y="1286" type="line"/>
    </contour>
  </outline>
</glyph>
<glyph name="m" format="2">
  <advance width="1626"/>
  <unicode hex="006D"/>
  <outline>
    <contour>
      <point x="1508" y="0" type="line"/>
      <point x="1268" y="0" type="line"/>
      <point x="1268" y="570" type="line" smooth="yes"/>
      <point x="1268" y="676"/>
      <point x="1204" y="764"/>
      <point x="1116" y="764" type="curve" smooth="yes"/>
      <point x="1012" y="764"/>
      <point x="932" y="644"/>
      <point x="932" y="528" type="curve" smooth="yes"/>
      <point x="932" y="0" type="line"/>
      <point x="692" y="0" type="line"/>
      <point x="692" y="570" type="line" smooth="yes"/>
      <point x="692" y="676"/>
      <point x="636" y="764"/>
      <point x="542" y="764" type="curve" smooth="yes"/>
      <point x="422" y="764"/>
      <point x="356" y="626"/>
      <point x="356" y="516" type="curve" smooth="yes"/>
      <point x="356" y="0" type="line"/>
      <point x="116" y="0" type="line"/>
      <point x="116" y="890" type="line"/>
      <point x="356" y="890" type="line"/>
      <point x="356" y="766" type="line"/>
      <point x="430" y="874"/>
      <point x="510" y="914"/>
      <point x="636" y="914" type="curve" smooth="yes"/>
      <point x="768" y="914"/>
      <point x="846" y="878"/>
      <point x="908" y="750" type="curve"/>
      <point x="998" y="882"/>
      <point x="1068" y="914"/>
      <point x="1206" y="914" type="curve" smooth="yes"/>
      <point x="1410" y="914"/>
      <point x="1508" y="774"/>
      <point x="1508" y="584" type="curve" smooth="yes"/>
    </contour>
  </outline>
</glyph>
<glyph name="n" format="2">
  <advance width="1062"/>
  <unicode hex="006E"/>
  <outline>
    <contour>
      <point x="924" y="0" type="line"/>
      <point x="680" y="0" type="line"/>
      <point x="680" y="534" type="line" smooth="yes"/>
      <point x="680" y="692"/>
      <point x="628" y="770"/>
      <point x="522" y="770" type="curve" smooth="yes"/>
      <point x="404" y="770"/>
      <point x="332" y="662"/>
      <point x="332" y="488" type="curve" smooth="yes"/>
      <point x="332" y="0" type="line"/>
      <point x="92" y="0" type="line"/>
      <point x="92" y="890" type="line"/>
      <point x="332" y="890" type="line"/>
      <point x="332" y="780" type="line"/>
      <point x="404" y="890"/>
      <point x="484" y="914"/>
      <point x="624" y="914" type="curve" smooth="yes"/>
      <point x="814" y="914"/>
      <point x="924" y="798"/>
      <point x="924" y="606" type="curve" smooth="yes"/>
    </contour>
  </outline>
</glyph>
<glyph name="o" format="2">
  <advance width="1080"/>
  <unicode hex="006F"/>
  <outline>
    <contour>
      <point x="756" y="444" type="curve" smooth="yes"/>
      <point x="756" y="656"/>
      <point x="684" y="762"/>
      <point x="540" y="762" type="curve" smooth="yes"/>
      <point x="398" y="762"/>
      <point x="320" y="646"/>
      <point x="320" y="444" type="curve" smooth="yes"/>
      <point x="320" y="244"/>
      <point x="398" y="128"/>
      <point x="540" y="128" type="curve" smooth="yes"/>
      <point x="684" y="128"/>
      <point x="756" y="234"/>
    </contour>
    <contour>
      <point x="998" y="444" type="curve" smooth="yes"/>
      <point x="998" y="168"/>
      <point x="806" y="-24"/>
      <point x="540" y="-24" type="curve" smooth="yes"/>
      <point x="262" y="-24"/>
      <point x="80" y="182"/>
      <point x="80" y="444" type="curve" smooth="yes"/>
      <point x="80" y="718"/>
      <point x="272" y="914"/>
      <point x="540" y="914" type="curve" smooth="yes"/>
      <point x="820" y="914"/>
      <point x="998" y="706"/>
    </contour>
  </outline>
</glyph>
<glyph name="p" format="2">
  <advance width="546"/>
  <unicode hex="0070"/>
  <outline>
    <contour>
      <point x="58" y="-177" type="line"/>
      <point x="178" y="-177" type="line"/>
      <point x="178" y="40" type="line"/>
      <point x="219" y="0"/>
      <point x="249" y="-12"/>
      <point x="309" y="-12" type="curve" smooth="yes"/>
      <point x="429" y="-12"/>
      <point x="507" y="77"/>
      <point x="507" y="229" type="curve" smooth="yes"/>
      <point x="507" y="358"/>
      <point x="433" y="457"/>
      <point x="301" y="457" type="curve" smooth="yes"/>
      <point x="257" y="457"/>
      <point x="216" y="433"/>
      <point x="178" y="384" type="curve"/>
      <point x="178" y="445" type="line"/>
      <point x="58" y="445" type="line"/>
    </contour>
    <contour>
      <point x="276" y="63" type="curve" smooth="yes"/>
      <point x="210" y="63"/>
      <point x="177" y="117"/>
      <point x="177" y="225" type="curve" smooth="yes"/>
      <point x="177" y="285"/>
      <point x="202" y="378"/>
      <point x="280" y="378" type="curve" smooth="yes"/>
      <point x="357" y="378"/>
      <point x="387" y="298"/>
      <point x="387" y="229" type="curve" smooth="yes"/>
      <point x="387" y="163"/>
      <point x="361" y="63"/>
    </contour>
  </outline>
</glyph>
<glyph name="q" format="2">
  <advance width="1092"/>
  <unicode hex="0071"/>
  <outline>
    <contour>
      <point x="738" y="450" type="curve" smooth="yes"/>
      <point x="738" y="580"/>
      <point x="680" y="756"/>
      <point x="530" y="756" type="curve" smooth="yes"/>
      <point x="372" y="756"/>
      <point x="318" y="584"/>
      <point x="318" y="458" type="curve" smooth="yes"/>
      <point x="318" y="314"/>
      <point x="374" y="126"/>
      <point x="540" y="126" type="curve" smooth="yes"/>
      <point x="672" y="126"/>
      <point x="738" y="234"/>
    </contour>
    <contour>
      <point x="974" y="-354" type="line"/>
      <point x="734" y="-354" type="line"/>
      <point x="734" y="80" type="line"/>
      <point x="646" y="0"/>
      <point x="594" y="-24"/>
      <point x="474" y="-24" type="curve" smooth="yes"/>
      <point x="234" y="-24"/>
      <point x="80" y="154"/>
      <point x="80" y="458" type="curve" smooth="yes"/>
      <point x="80" y="722"/>
      <point x="228" y="914"/>
      <point x="492" y="914" type="curve" smooth="yes"/>
      <point x="596" y="914"/>
      <point x="676" y="866"/>
      <point x="734" y="768" type="curve"/>
      <point x="734" y="890" type="line"/>
      <point x="974" y="890" type="line"/>
    </contour>
  </outline>
</glyph>
<glyph name="r" format="2">
  <advance width="692"/>
  <unicode hex="0072"/>
  <outline>
    <contour>
      <point x="660" y="710" type="line"/>
      <point x="458" y="710"/>
      <point x="356" y="626"/>
      <point x="356" y="456" type="curve" smooth="yes"/>
      <point x="356" y="0" type="line"/>
      <point x="116" y="0" type="line"/>
      <point x="116" y="890" type="line"/>
      <point x="356" y="890" type="line"/>
      <point x="356" y="752" type="line"/>
      <point x="418" y="872"/>
      <point x="486" y="914"/>
      <point x="660" y="914" type="curve"/>
    </contour>
  </outline>
</glyph>
<glyph name="s" format="2">
  <advance width="926"/>
  <unicode hex="0073"/>
  <outline>
    <contour>
      <point x="846" y="278" type="curve" smooth="yes"/>
      <point x="846" y="62"/>
      <point x="646" y="-24"/>
      <point x="452" y="-24" type="curve" smooth="yes"/>
      <point x="240" y="-24"/>
      <point x="80" y="60"/>
      <point x="80" y="276" type="curve"/>
      <point x="320" y="276" type="line"/>
      <point x="324" y="164"/>
      <point x="368" y="126"/>
      <point x="474" y="126" type="curve" smooth="yes"/>
      <point x="548" y="126"/>
      <point x="614" y="174"/>
      <point x="614" y="246" type="curve" smooth="yes"/>
      <point x="614" y="434"/>
      <point x="102" y="320"/>
      <point x="102" y="648" type="curve" smooth="yes"/>
      <point x="102" y="802"/>
      <point x="248" y="914"/>
      <point x="464" y="914" type="curve" smooth="yes"/>
      <point x="704" y="914"/>
      <point x="824" y="820"/>
      <point x="824" y="630" type="curve"/>
      <point x="584" y="630" type="line"/>
      <point x="582" y="726"/>
      <point x="554" y="764"/>
      <point x="452" y="764" type="curve" smooth="yes"/>
      <point x="380" y="764"/>
      <point x="336" y="714"/>
      <point x="336" y="658" type="curve" smooth="yes"/>
      <point x="336" y="514"/>
      <point x="846" y="608"/>
    </contour>
  </outline>
</glyph>
<glyph name="t" format="2">
  <advance width="373"/>
  <unicode hex="0074"/>
  <outline>
    <contour>
      <point x="259" y="-11" type="curve" smooth="yes"/>
      <point x="291" y="-11"/>
      <point x="322" y="-6"/>
      <point x="351" y="4" type="curve"/>
      <point x="351" y="79" type="line"/>
      <point x="337" y="74"/>
      <point x="322" y="72"/>
      <point x="306" y="72" type="curve" smooth="yes"/>
      <point x="259" y="72"/>
      <point x="235" y="95"/>
      <point x="235" y="142" type="curve" smooth="yes"/>
      <point x="235" y="369" type="line"/>
      <point x="342" y="369" type="line"/>
      <point x="342" y="445" type="line"/>
      <point x="235" y="445" type="line"/>
      <point x="235" y="577" type="line"/>
      <point x="115" y="514" type="line"/>
      <point x="115" y="445" type="line"/>
      <point x="27" y="445" type="line"/>
      <point x="27" y="369" type="line"/>
      <point x="115" y="369" type="line"/>
      <point x="115" y="108" type="line" smooth="yes"/>
      <point x="115" y="33"/>
      <point x="188" y="-11"/>
    </contour>
  </outline>
</glyph>
<glyph name="u" format="2">
  <advance width="1062"/>
  <unicode hex="0075"/>
  <outline>
    <contour>
      <point x="948" y="0" type="line"/>
      <point x="704" y="0" type="line"/>
      <point x="704" y="120" type="line"/>
      <point x="632" y="6"/>
      <point x="560" y="-24"/>
      <point x="416" y="-24" type="curve" smooth="yes"/>
      <point x="226" y="-24"/>
      <point x="116" y="86"/>
      <point x="116" y="284" type="curve" smooth="yes"/>
      <point x="116" y="890" type="line"/>
      <point x="356" y="890" type="line"/>
      <point x="356" y="356" type="line" smooth="yes"/>
      <point x="356" y="198"/>
      <point x="410" y="120"/>
      <point x="516" y="120" type="curve" smooth="yes"/>
      <point x="642" y="120"/>
      <point x="704" y="210"/>
      <point x="704" y="392" type="curve" smooth="yes"/>
      <point x="704" y="890" type="line"/>
      <point x="948" y="890" type="line"/>
    </contour>
  </outline>
</glyph>
<glyph name="v" format="2">
  <advance width="968"/>
  <unicode hex="0076"/>
  <outline>
    <contour>
      <point x="950" y="890" type="line"/>
      <point x="618" y="0" type="line"/>
      <point x="350" y="0" type="line"/>
      <point x="18" y="890" type="line"/>
      <point x="276" y="890" type="line"/>
      <point x="486" y="270" type="line"/>
      <point x="692" y="890" type="line"/>
    </contour>
  </outline>
</glyph>
<glyph name="w" format="2">
  <advance width="1526"/>
  <unicode hex="0077"/>
  <outline>
    <contour>
      <point x="1506" y="890" type="line"/>
      <point x="1236" y="0" type="line"/>
      <point x="950" y="0" type="line"/>
      <point x="762" y="624" type="line"/>
      <point x="576" y="0" type="line"/>
      <point x="290" y="0" type="line"/>
      <point x="18" y="890" type="line"/>
      <point x="266" y="890" type="line"/>
      <point x="438" y="302" type="line"/>
      <point x="624" y="890" type="line"/>
      <point x="900" y="890" type="line"/>
      <point x="1088" y="302" type="line"/>
      <point x="1260" y="890" type="line"/>
    </contour>
  </outline>
</glyph>
<glyph name="x" format="2">
  <advance width="974"/>
  <unicode hex="0078"/>
  <outline>
    <contour>
      <point x="956" y="0" type="line"/>
      <point x="672" y="0" type="line"/>
      <point x="470" y="318" type="line"/>
      <point x="284" y="0" type="line"/>
      <point x="18" y="0" type="line"/>
      <point x="336" y="476" type="line"/>
      <point x="48" y="890" type="line"/>
      <point x="332" y="890" type="line"/>
      <point x="506" y="626" type="line"/>
      <point x="660" y="890" type="line"/>
      <point x="926" y="890" type="line"/>
      <point x="644" y="476" type="line"/>
    </contour>
  </outline>
</glyph>
<glyph name="y" format="2">
  <advance width="966"/>
  <unicode hex="0079"/>
  <outline>
    <contour>
      <point x="950" y="890" type="line"/>
      <point x="554" y="-210" type="line" smooth="yes"/>
      <point x="520" y="-304"/>
      <point x="406" y="-364"/>
      <point x="276" y="-364" type="curve" smooth="yes"/>
      <point x="166" y="-364"/>
      <point x="52" y="-310"/>
      <point x="0" y="-204" type="curve"/>
      <point x="150" y="-84" type="line"/>
      <point x="172" y="-140"/>
      <point x="210" y="-168"/>
      <point x="264" y="-168" type="curve" smooth="yes"/>
      <point x="298" y="-168"/>
      <point x="322" y="-146"/>
      <point x="338" y="-102" type="curve" smooth="yes"/>
      <point x="374" y="0" type="line"/>
      <point x="18" y="890" type="line"/>
      <point x="290" y="890" type="line"/>
      <point x="498" y="320" type="line"/>
      <point x="692" y="890" type="line"/>
    </contour>
  </outline>
</glyph>
<glyph name="z" format="2">
  <advance width="906"/>
  <unicode hex="007A"/>
  <outline>
    <contour>
      <point x="824" y="0" type="line"/>
      <point x="80" y="0" type="line"/>
      <point x="80" y="188" type="line"/>
      <point x="552" y="738" type="line"/>
      <point x="90" y="738" type="line"/>
      <point x="90" y="890" type="line"/>
      <point x="800" y="890" type="line"/>
      <point x="800" y="702" type="line"/>
      <point x="330" y="150" type="line"/>
      <point x="824" y="150" type="line"/>
    </contour>
  </outline>
</glyph>
<glyph name="braceleft" format="2">
  <advance width="884"/>
  <unicode hex="007B"/>
  <outline>
    <contour>
      <point x="774" y="-796" type="line"/>
      <point x="362" y="-796"/>
      <point x="332" y="-382"/>
      <point x="332" y="138" type="curve" smooth="yes"/>
      <point x="332" y="282"/>
      <point x="140" y="318"/>
      <point x="140" y="452" type="curve" smooth="yes"/>
      <point x="140" y="584"/>
      <point x="332" y="624"/>
      <point x="332" y="768" type="curve" smooth="yes"/>
      <point x="332" y="1286"/>
      <point x="362" y="1700"/>
      <point x="774" y="1700" type="curve"/>
      <point x="774" y="1476" type="line"/>
      <point x="590" y="1476"/>
      <point x="560" y="1212"/>
      <point x="560" y="740" type="curve" smooth="yes"/>
      <point x="560" y="534"/>
      <point x="410" y="472"/>
      <point x="410" y="452" type="curve" smooth="yes"/>
      <point x="410" y="432"/>
      <point x="560" y="376"/>
      <point x="560" y="162" type="curve" smooth="yes"/>
      <point x="560" y="-308"/>
      <point x="590" y="-574"/>
      <point x="774" y="-574" type="curve"/>
    </contour>
  </outline>
</glyph>
<glyph name="bar" format="2">
  <advance width="700"/>
  <unicode hex="007C"/>
  <outline>
    <contour>
      <point x="458" y="-460" type="line"/>
      <point x="242" y="-460" type="line"/>
      <point x="242" y="1418" type="line"/>
      <point x="458" y="1418" type="line"/>
    </contour>
  </outline>
</glyph>
<glyph name="braceright" format="2">
  <advance width="882"/>
  <unicode hex="007D"/>
  <outline>
    <contour>
      <point x="740" y="452" type="curve" smooth="yes"/>
      <point x="740" y="320"/>
      <point x="552" y="280"/>
      <point x="552" y="138" type="curve" smooth="yes"/>
      <point x="552" y="-382"/>
      <point x="522" y="-796"/>
      <point x="110" y="-796" type="curve"/>
      <point x="110" y="-570" type="line"/>
      <point x="294" y="-570"/>
      <point x="324" y="-306"/>
      <point x="324" y="164" type="curve" smooth="yes"/>
      <point x="324" y="372"/>
      <point x="476" y="432"/>
      <point x="476" y="452" type="curve" smooth="yes"/>
      <point x="476" y="472"/>
      <point x="324" y="530"/>
      <point x="324" y="740" type="curve" smooth="yes"/>
      <point x="324" y="1212"/>
      <point x="294" y="1478"/>
      <point x="110" y="1478" type="curve"/>
      <point x="110" y="1700" type="line"/>
      <point x="522" y="1700"/>
      <point x="552" y="1290"/>
      <point x="552" y="770" type="curve" smooth="yes"/>
      <point x="552" y="624"/>
      <point x="740" y="586"/>
    </contour>
  </outline>
</glyph>
<glyph name="asciitilde" format="2">
  <advance width="576"/>
  <unicode hex="007E"/>
  <outline>
    <contour>
      <point x="454" y="310" type="line"/>
      <point x="430" y="287"/>
      <point x="393" y="267"/>
      <point x="369" y="267" type="curve" smooth="yes"/>
      <point x="316" y="267"/>
      <point x="300" y="322"/>
      <point x="204" y="322" type="curve" smooth="yes"/>
      <point x="163" y="322"/>
      <point x="103" y="306"/>
      <point x="55" y="253" type="curve"/>
      <point x="91" y="157" type="line"/>
      <point x="138" y="207"/>
      <point x="178" y="219"/>
      <point x="204" y="219" type="curve" smooth="yes"/>
      <point x="247" y="219"/>
      <point x="283" y="163"/>
      <point x="369" y="163" type="curve" smooth="yes"/>
      <point x="416" y="163"/>
      <point x="472" y="186"/>
      <point x="520" y="231" type="curve"/>
    </contour>
  </outline>
</glyph>
<glyph name="sterling" format="2">
  <advance width="588"/>
  <unicode hex="00A3"/>
  <outline>
    <contour>
      <point x="57" y="0" type="line"/>
      <point x="497" y="0" type="line"/>
      <point x="497" y="76" type="line"/>
      <point x="243" y="76" type="line"/>
      <point x="243" y="327" type="line"/>
      <point x="363" y="327" type="line"/>
      <point x="363" y="402" type="line"/>
      <point x="243" y="402" type="line"/>
      <point x="243" y="493" type="line"/>
      <point x="243" y="554"/>
      <point x="268" y="580"/>
      <point x="312" y="580" type="curve"/>
      <point x="348" y="580"/>
      <point x="378" y="564"/>
      <point x="378" y="501" type="curve"/>
      <point x="498" y="501" type="line"/>
      <point x="498" y="579"/>
      <point x="475" y="655"/>
      <point x="310" y="655" type="curve"/>
      <point x="173" y="655"/>
      <point x="122" y="589"/>
      <point x="122" y="497" type="curve"/>
      <point x="122" y="402" type="line"/>
      <point x="57" y="402" type="line"/>
      <point x="57" y="327" type="line"/>
      <point x="122" y="327" type="line"/>
      <point x="122" y="76" type="line"/>
      <point x="57" y="76" type="line"/>
    </contour>
  </outline>
</glyph>
<glyph name="brokenbar" format="2">
  <advance width="353"/>
  <unicode hex="00A6"/>
  <outline>
    <contour>
      <point x="151" y="273" type="line"/>
      <point x="196" y="273" type="line"/>
      <point x="196" y="629" type="line"/>
      <point x="151" y="629" type="line"/>
    </contour>
    <contour>
      <point x="151" y="-203" type="line"/>
      <point x="196" y="-203" type="line"/>
      <point x="196" y="153" type="line"/>
      <point x="151" y="153" type="line"/>
    </contour>
  </outline>
</glyph>
<glyph name="section" format="2">
  <advance width="479"/>
  <unicode hex="00A7"/>
  <outline>
    <contour>
      <point x="361" y="594" type="line"/>
      <point x="309" y="629"/>
      <point x="292" y="632"/>
      <point x="223" y="632" type="curve" smooth="yes"/>
      <point x="118" y="632"/>
      <point x="48" y="548"/>
      <point x="48" y="484" type="curve" smooth="yes"/>
      <point x="48" y="425"/>
      <point x="90" y="381"/>
      <point x="128" y="357" type="curve"/>
      <point x="84" y="333"/>
      <point x="36" y="278"/>
      <point x="36" y="209" type="curve" smooth="yes"/>
      <point x="36" y="70"/>
      <point x="278" y="68"/>
      <point x="278" y="-21" type="curve" smooth="yes"/>
      <point x="278" y="-57"/>
      <point x="226" y="-94"/>
      <point x="169" y="-92" type="curve" smooth="yes"/>
      <point x="137" y="-91"/>
      <point x="110" y="-83"/>
      <point x="49" y="-47" type="curve"/>
      <point x="49" y="-143" type="line"/>
      <point x="89" y="-170"/>
      <point x="177" y="-178"/>
      <point x="195" y="-178" type="curve" smooth="yes"/>
      <point x="277" y="-178"/>
      <point x="390" y="-116"/>
      <point x="390" y="-3" type="curve" smooth="yes"/>
      <point x="390" y="56"/>
      <point x="329" y="101"/>
      <point x="295" y="122" type="curve"/>
      <point x="329" y="142"/>
      <point x="388" y="186"/>
      <point x="388" y="253" type="curve" smooth="yes"/>
      <point x="388" y="391"/>
      <point x="161" y="412"/>
      <point x="161" y="491" type="curve" smooth="yes"/>
      <point x="161" y="518"/>
      <point x="194" y="549"/>
      <point x="231" y="549" type="curve" smooth="yes"/>
      <point x="262" y="549"/>
      <point x="303" y="540"/>
      <point x="361" y="506" type="curve"/>
    </contour>
    <contour>
      <point x="216" y="312" type="curve"/>
      <point x="229" y="312"/>
      <point x="285" y="287"/>
      <point x="285" y="240" type="curve" smooth="yes"/>
      <point x="285" y="215"/>
      <point x="246" y="177"/>
      <point x="200" y="165" type="curve"/>
      <point x="186" y="168"/>
      <point x="136" y="193"/>
      <point x="136" y="228" type="curve" smooth="yes"/>
      <point x="136" y="267"/>
      <point x="186" y="312"/>
    </contour>
  </outline>
</glyph>
<glyph name="copyright" format="2">
  <advance width="889"/>
  <unicode hex="00A9"/>
  <outline>
    <contour>
      <point x="394" y="-14" type="curve"/>
      <point x="579" y="-14"/>
      <point x="727" y="135"/>
      <point x="727" y="320" type="curve"/>
      <point x="727" y="504"/>
      <point x="579" y="654"/>
      <point x="394" y="654" type="curve"/>
      <point x="210" y="654"/>
      <point x="61" y="504"/>
      <point x="61" y="320" type="curve"/>
      <point x="61" y="135"/>
      <point x="210" y="-14"/>
    </contour>
    <contour>
      <point x="397" y="120" type="curve"/>
      <point x="475" y="120"/>
      <point x="563" y="166"/>
      <point x="563" y="279" type="curve"/>
      <point x="459" y="279" type="line"/>
      <point x="459" y="224"/>
      <point x="446" y="188"/>
      <point x="394" y="188" type="curve"/>
      <point x="325" y="188"/>
      <point x="322" y="247"/>
      <point x="322" y="321" type="curve"/>
      <point x="322" y="388"/>
      <point x="320" y="457"/>
      <point x="402" y="457" type="curve"/>
      <point x="436" y="457"/>
      <point x="457" y="430"/>
      <point x="461" y="374" type="curve"/>
      <point x="563" y="374" type="line"/>
      <point x="563" y="450"/>
      <point x="515" y="525"/>
      <point x="397" y="525" type="curve"/>
      <point x="299" y="525"/>
      <point x="220" y="453"/>
      <point x="220" y="318" type="curve"/>
      <point x="220" y="214"/>
      <point x="274" y="120"/>
    </contour>
    <contour>
      <point x="394" y="44" type="curve"/>
      <point x="243" y="44"/>
      <point x="120" y="167"/>
      <point x="120" y="320" type="curve"/>
      <point x="120" y="471"/>
      <point x="243" y="595"/>
      <point x="394" y="595" type="curve"/>
      <point x="546" y="595"/>
      <point x="669" y="471"/>
      <point x="669" y="320" type="curve"/>
      <point x="669" y="167"/>
      <point x="546" y="44"/>
    </contour>
  </outline>
</glyph>
<glyph name="registered" format="2">
  <advance width="889"/>
  <unicode hex="00AE"/>
  <outline>
    <contour>
      <point x="394" y="-14" type="curve"/>
      <point x="579" y="-14"/>
      <point x="727" y="135"/>
      <point x="727" y="320" type="curve"/>
      <point x="727" y="504"/>
      <point x="579" y="654"/>
      <point x="394" y="654" type="curve"/>
      <point x="210" y="654"/>
      <point x="61" y="504"/>
      <point x="61" y="320" type="curve"/>
      <point x="61" y="135"/>
      <point x="210" y="-14"/>
    </contour>
    <contour>
      <point x="394" y="44" type="curve"/>
      <point x="243" y="44"/>
      <point x="120" y="167"/>
      <point x="120" y="320" type="curve"/>
      <point x="120" y="471"/>
      <point x="243" y="595"/>
      <point x="394" y="595" type="curve"/>
      <point x="546" y="595"/>
      <point x="669" y="471"/>
      <point x="669" y="320" type="curve"/>
      <point x="669" y="167"/>
      <point x="546" y="44"/>
    </contour>
    <contour>
      <point x="255" y="132" type="line"/>
      <point x="335" y="132" type="line"/>
      <point x="335" y="288" type="line"/>
      <point x="404" y="288" type="line"/>
      <point x="451" y="288"/>
      <point x="460" y="257"/>
      <point x="466" y="220" type="curve"/>
      <point x="469" y="191"/>
      <point x="470" y="158"/>
      <point x="481" y="132" type="curve"/>
      <point x="562" y="132" type="line"/>
      <point x="538" y="202"/>
      <point x="546" y="262"/>
      <point x="526" y="293" type="curve"/>
      <point x="510" y="318"/>
      <point x="483" y="318"/>
      <point x="471" y="322" type="curve"/>
      <point x="483" y="329"/>
      <point x="553" y="349"/>
      <point x="553" y="413" type="curve"/>
      <point x="553" y="465"/>
      <point x="528" y="517"/>
      <point x="404" y="517" type="curve"/>
      <point x="255" y="517" type="line"/>
    </contour>
    <contour>
      <point x="335" y="350" type="line"/>
      <point x="335" y="456" type="line"/>
      <point x="404" y="456" type="line"/>
      <point x="439" y="456"/>
      <point x="473" y="437"/>
      <point x="473" y="402" type="curve"/>
      <point x="473" y="371"/>
      <point x="434" y="350"/>
      <point x="399" y="350" type="curve"/>
    </contour>
  </outline>
</glyph>
<glyph name="degree" format="2">
  <advance width="328"/>
  <unicode hex="00B0"/>
  <outline>
    <contour>
      <point x="149" y="512" type="curve"/>
      <point x="203" y="512"/>
      <point x="247" y="556"/>
      <point x="247" y="610" type="curve"/>
      <point x="247" y="664"/>
      <point x="203" y="708"/>
      <point x="149" y="708" type="curve"/>
      <point x="95" y="708"/>
      <point x="51" y="664"/>
      <point x="51" y="610" type="curve"/>
      <point x="51" y="556"/>
      <point x="95" y="512"/>
    </contour>
    <contour>
      <point x="149" y="548" type="curve"/>
      <point x="114" y="548"/>
      <point x="87" y="575"/>
      <point x="87" y="610" type="curve"/>
      <point x="87" y="645"/>
      <point x="114" y="672"/>
      <point x="149" y="672" type="curve"/>
      <point x="184" y="672"/>
      <point x="211" y="645"/>
      <point x="211" y="610" type="curve"/>
      <point x="211" y="575"/>
      <point x="184" y="548"/>
    </contour>
  </outline>
</glyph>
<glyph name="twosuperior" format="2">
  <advance width="337"/>
  <unicode hex="00B2"/>
  <outline>
    <contour>
      <point x="309" y="612" type="curve" smooth="yes"/>
      <point x="309" y="670"/>
      <point x="250" y="710"/>
      <point x="175" y="710" type="curve" smooth="yes"/>
      <point x="93" y="710"/>
      <point x="33" y="661"/>
      <point x="33" y="609" type="curve"/>
      <point x="128" y="609" type="line"/>
      <point x="128" y="641"/>
      <point x="148" y="658"/>
      <point x="177" y="658" type="curve" smooth="yes"/>
      <point x="195" y="658"/>
      <point x="216" y="644"/>
      <point x="216" y="610" type="curve" smooth="yes"/>
      <point x="216" y="558"/>
      <point x="49" y="439"/>
      <point x="28" y="421" type="curve"/>
      <point x="28" y="359" type="line"/>
      <point x="300" y="359" type="line"/>
      <point x="300" y="414" type="line"/>
      <point x="119" y="414" type="line"/>
      <point x="177" y="454"/>
      <point x="309" y="523"/>
    </contour>
  </outline>
</glyph>
<glyph name="threesuperior" format="2">
  <advance width="354"/>
  <unicode hex="00B3"/>
  <outline>
    <contour>
      <point x="175" y="350" type="curve" smooth="yes"/>
      <point x="257" y="350"/>
      <point x="312" y="409"/>
      <point x="312" y="453" type="curve" smooth="yes"/>
      <point x="312" y="512"/>
      <point x="265" y="526"/>
      <point x="231" y="536" type="curve" smooth="yes"/>
      <point x="266" y="549"/>
      <point x="302" y="563"/>
      <point x="302" y="608" type="curve" smooth="yes"/>
      <point x="302" y="672"/>
      <point x="242" y="707"/>
      <point x="175" y="707" type="curve" smooth="yes"/>
      <point x="99" y="707"/>
      <point x="42" y="672"/>
      <point x="42" y="609" type="curve"/>
      <point x="130" y="609" type="line"/>
      <point x="130" y="640"/>
      <point x="143" y="655"/>
      <point x="173" y="655" type="curve" smooth="yes"/>
      <point x="199" y="655"/>
      <point x="209" y="639"/>
      <point x="209" y="606" type="curve" smooth="yes"/>
      <point x="209" y="565"/>
      <point x="170" y="562"/>
      <point x="131" y="562" type="curve"/>
      <point x="131" y="510" type="line"/>
      <point x="187" y="510"/>
      <point x="218" y="508"/>
      <point x="218" y="458" type="curve" smooth="yes"/>
      <point x="218" y="421"/>
      <point x="204" y="403"/>
      <point x="171" y="403" type="curve" smooth="yes"/>
      <point x="141" y="403"/>
      <point x="131" y="421"/>
      <point x="131" y="453" type="curve"/>
      <point x="42" y="453" type="line"/>
      <point x="42" y="400"/>
      <point x="71" y="350"/>
    </contour>
  </outline>
</glyph>
<glyph name="acute" format="2">
  <advance width="227"/>
  <unicode hex="00B4"/>
  <outline>
    <contour>
      <point x="104" y="614" type="line"/>
      <point x="239" y="775" type="line"/>
      <point x="123" y="775" type="line"/>
      <point x="42" y="614" type="line"/>
    </contour>
  </outline>
</glyph>
<glyph name="micro" format="2">
  <advance width="630"/>
  <unicode hex="00B5"/>
  <outline>
    <contour>
      <point x="67" y="-177" type="line"/>
      <point x="187" y="-177" type="line"/>
      <point x="187" y="20" type="line"/>
      <point x="216" y="-1"/>
      <point x="245" y="-12"/>
      <point x="267" y="-12" type="curve"/>
      <point x="313" y="-12"/>
      <point x="347" y="15"/>
      <point x="369" y="58" type="curve"/>
      <point x="401" y="0"/>
      <point x="417" y="-12"/>
      <point x="513" y="-12" type="curve"/>
      <point x="536" y="-12"/>
      <point x="559" y="-4"/>
      <point x="580" y="8" type="curve"/>
      <point x="580" y="83" type="line"/>
      <point x="564" y="73"/>
      <point x="553" y="69"/>
      <point x="531" y="67" type="curve"/>
      <point x="506" y="65"/>
      <point x="482" y="85"/>
      <point x="482" y="134" type="curve"/>
      <point x="482" y="445" type="line"/>
      <point x="361" y="445" type="line"/>
      <point x="361" y="187" type="line"/>
      <point x="361" y="117"/>
      <point x="330" y="68"/>
      <point x="267" y="68" type="curve"/>
      <point x="210" y="68"/>
      <point x="187" y="102"/>
      <point x="187" y="169" type="curve"/>
      <point x="187" y="445" type="line"/>
      <point x="67" y="445" type="line"/>
    </contour>
  </outline>
</glyph>
<glyph name="paragraph" format="2">
  <advance width="573"/>
  <unicode hex="00B6"/>
  <outline>
    <contour>
      <point x="411" y="577" type="line"/>
      <point x="465" y="577" type="line"/>
      <point x="465" y="622" type="line"/>
      <point x="224" y="622" type="line"/>
      <point x="156" y="622"/>
      <point x="46" y="561"/>
      <point x="46" y="444" type="curve"/>
      <point x="46" y="328"/>
      <point x="156" y="292"/>
      <point x="215" y="292" type="curve"/>
      <point x="215" y="-164" type="line"/>
      <point x="278" y="-164" type="line"/>
      <point x="278" y="577" type="line"/>
      <point x="349" y="577" type="line"/>
      <point x="349" y="-164" type="line"/>
      <point x="411" y="-164" type="line"/>
    </contour>
  </outline>
</glyph>
<glyph name="cedilla" format="2">
  <advance width="256"/>
  <unicode hex="00B8"/>
  <outline>
    <contour>
      <point x="264" y="-169" type="curve"/>
      <point x="264" y="-108"/>
      <point x="220" y="-77"/>
      <point x="139" y="-77" type="curve"/>
      <point x="139" y="-32" type="line"/>
      <point x="95" y="-32" type="line"/>
      <point x="95" y="-122" type="line"/>
      <point x="95" y="-122"/>
      <point x="188" y="-115"/>
      <point x="188" y="-170" type="curve"/>
      <point x="188" y="-191"/>
      <point x="168" y="-199"/>
      <point x="138" y="-199" type="curve"/>
      <point x="111" y="-199"/>
      <point x="77" y="-195"/>
      <point x="42" y="-187" type="curve"/>
      <point x="42" y="-241" type="line"/>
      <point x="83" y="-247"/>
      <point x="111" y="-249"/>
      <point x="127" y="-249" type="curve"/>
      <point x="194" y="-249"/>
      <point x="264" y="-227"/>
    </contour>
  </outline>
</glyph>
<glyph name="ordmasculine" format="2">
  <advance width="422"/>
  <unicode hex="00BA"/>
  <outline>
    <contour>
      <point x="348" y="498" type="curve"/>
      <point x="348" y="580"/>
      <point x="294" y="663"/>
      <point x="187" y="663" type="curve"/>
      <point x="80" y="663"/>
      <point x="26" y="580"/>
      <point x="26" y="498" type="curve"/>
      <point x="26" y="416"/>
      <point x="80" y="334"/>
      <point x="187" y="334" type="curve"/>
      <point x="294" y="334"/>
      <point x="348" y="416"/>
    </contour>
    <contour>
      <point x="33" y="237" type="line"/>
      <point x="347" y="237" type="line"/>
      <point x="347" y="278" type="line"/>
      <point x="33" y="278" type="line"/>
    </contour>
    <contour>
      <point x="263" y="498" type="curve"/>
      <point x="263" y="427"/>
      <point x="236" y="387"/>
      <point x="187" y="387" type="curve"/>
      <point x="138" y="387"/>
      <point x="111" y="427"/>
      <point x="111" y="498" type="curve"/>
      <point x="111" y="570"/>
      <point x="138" y="610"/>
      <point x="187" y="610" type="curve"/>
      <point x="236" y="610"/>
      <point x="263" y="570"/>
    </contour>
  </outline>
</glyph>
<glyph name="onequarter" format="2">
  <advance width="723"/>
  <unicode hex="00BC"/>
  <outline>
    <contour>
      <point x="644" y="61" type="line"/>
      <point x="684" y="61" type="line"/>
      <point x="684" y="116" type="line"/>
      <point x="644" y="116" type="line"/>
      <point x="644" y="329" type="line"/>
      <point x="542" y="329" type="line"/>
      <point x="400" y="123" type="line"/>
      <point x="400" y="61" type="line"/>
      <point x="559" y="61" type="line"/>
      <point x="559" y="-14" type="line"/>
      <point x="644" y="-14" type="line"/>
    </contour>
    <contour>
      <point x="207" y="-14" type="line"/>
      <point x="587" y="654" type="line"/>
      <point x="498" y="654" type="line"/>
      <point x="119" y="-14" type="line"/>
    </contour>
    <contour>
      <point x="122" y="310" type="line"/>
      <point x="212" y="310" type="line"/>
      <point x="212" y="654" type="line"/>
      <point x="136" y="654" type="line"/>
      <point x="136" y="654"/>
      <point x="101" y="621"/>
      <point x="39" y="600" type="curve"/>
      <point x="39" y="541" type="line"/>
      <point x="39" y="541"/>
      <point x="77" y="554"/>
      <point x="122" y="586" type="curve"/>
    </contour>
    <contour>
      <point x="559" y="248" type="line"/>
      <point x="559" y="116" type="line"/>
      <point x="475" y="116" type="line"/>
    </contour>
  </outline>
</glyph>
<glyph name="onehalf" format="2">
  <advance width="722"/>
  <unicode hex="00BD"/>
  <outline>
    <contour>
      <point x="99" y="-14" type="line"/>
      <point x="187" y="-14" type="line"/>
      <point x="567" y="654" type="line"/>
      <point x="479" y="654" type="line"/>
    </contour>
    <contour>
      <point x="121" y="310" type="line"/>
      <point x="211" y="310" type="line"/>
      <point x="211" y="654" type="line"/>
      <point x="135" y="654" type="line"/>
      <point x="135" y="654"/>
      <point x="100" y="621"/>
      <point x="38" y="600" type="curve"/>
      <point x="38" y="541" type="line"/>
      <point x="38" y="541"/>
      <point x="76" y="554"/>
      <point x="121" y="586" type="curve"/>
    </contour>
    <contour>
      <point x="403" y="-5" type="line"/>
      <point x="675" y="-5" type="line"/>
      <point x="675" y="49" type="line"/>
      <point x="495" y="49" type="line"/>
      <point x="553" y="89"/>
      <point x="684" y="158"/>
      <point x="684" y="247" type="curve"/>
      <point x="684" y="305"/>
      <point x="626" y="345"/>
      <point x="550" y="345" type="curve"/>
      <point x="468" y="345"/>
      <point x="408" y="296"/>
      <point x="408" y="244" type="curve"/>
      <point x="504" y="244" type="line"/>
      <point x="504" y="276"/>
      <point x="523" y="293"/>
      <point x="553" y="293" type="curve"/>
      <point x="570" y="293"/>
      <point x="592" y="280"/>
      <point x="592" y="246" type="curve"/>
      <point x="592" y="193"/>
      <point x="424" y="74"/>
      <point x="403" y="56" type="curve"/>
    </contour>
  </outline>
</glyph>
<glyph name="AE" format="2">
  <advance width="907"/>
  <unicode hex="00C6"/>
  <outline>
    <contour>
      <point x="411" y="0" type="line"/>
      <point x="845" y="0" type="line"/>
      <point x="845" y="98" type="line"/>
      <point x="540" y="98" type="line"/>
      <point x="540" y="283" type="line"/>
      <point x="818" y="283" type="line"/>
      <point x="818" y="383" type="line"/>
      <point x="540" y="383" type="line"/>
      <point x="540" y="550" type="line"/>
      <point x="836" y="550" type="line"/>
      <point x="836" y="643" type="line"/>
      <point x="358" y="643" type="line"/>
      <point x="10" y="0" type="line"/>
      <point x="138" y="0" type="line"/>
      <point x="219" y="153" type="line"/>
      <point x="411" y="154" type="line"/>
    </contour>
    <contour>
      <point x="419" y="531" type="line"/>
      <point x="419" y="253" type="line"/>
      <point x="272" y="253" type="line"/>
    </contour>
  </outline>
</glyph>
<glyph name="Ccedilla" format="2">
  <advance width="647"/>
  <unicode hex="00C7"/>
  <outline>
    <contour>
      <point x="599" y="215" type="curve"/>
      <point x="455" y="215" type="line"/>
      <point x="441" y="144"/>
      <point x="417" y="88"/>
      <point x="329" y="88" type="curve"/>
      <point x="196" y="88"/>
      <point x="182" y="211"/>
      <point x="182" y="321" type="curve"/>
      <point x="182" y="430"/>
      <point x="196" y="552"/>
      <point x="329" y="552" type="curve"/>
      <point x="417" y="552"/>
      <point x="437" y="523"/>
      <point x="462" y="439" type="curve"/>
      <point x="591" y="439" type="line"/>
      <point x="581" y="564"/>
      <point x="513" y="655"/>
      <point x="329" y="655" type="curve"/>
      <point x="160" y="655"/>
      <point x="48" y="533"/>
      <point x="48" y="321" type="curve"/>
      <point x="48" y="153"/>
      <point x="118" y="7"/>
      <point x="292" y="-11" type="curve"/>
      <point x="292" y="-90" type="line"/>
      <point x="292" y="-90"/>
      <point x="386" y="-83"/>
      <point x="386" y="-138" type="curve"/>
      <point x="386" y="-160"/>
      <point x="363" y="-167"/>
      <point x="332" y="-167" type="curve"/>
      <point x="306" y="-167"/>
      <point x="273" y="-162"/>
      <point x="240" y="-155" type="curve"/>
      <point x="240" y="-209" type="line"/>
      <point x="281" y="-215"/>
      <point x="309" y="-217"/>
      <point x="325" y="-217" type="curve"/>
      <point x="392" y="-217"/>
      <point x="461" y="-195"/>
      <point x="461" y="-137" type="curve"/>
      <point x="461" y="-76"/>
      <point x="418" y="-45"/>
      <point x="337" y="-45" type="curve"/>
      <point x="337" y="-13" type="line"/>
      <point x="473" y="-9"/>
      <point x="592" y="91"/>
    </contour>
  </outline>
</glyph>
<glyph name="multiply" format="2">
  <advance width="1094"/>
  <unicode hex="00D7"/>
  <outline>
    <contour>
      <point x="912" y="248" type="line"/>
      <point x="750" y="86" type="line"/>
      <point x="552" y="288" type="line"/>
      <point x="350" y="86" type="line"/>
      <point x="188" y="246" type="line"/>
      <point x="390" y="450" type="line"/>
      <point x="192" y="648" type="line"/>
      <point x="350" y="810" type="line"/>
      <point x="552" y="608" type="line"/>
      <point x="752" y="812" type="line"/>
      <point x="914" y="650" type="line"/>
      <point x="714" y="450" type="line"/>
    </contour>
  </outline>
</glyph>
<glyph name="Oslash" format="2">
  <advance width="777"/>
  <unicode hex="00D8"/>
  <outline>
    <contour>
      <point x="102" y="-53" type="line"/>
      <point x="192" y="46" type="line"/>
      <point x="241" y="6"/>
      <point x="307" y="-18"/>
      <point x="390" y="-18" type="curve" smooth="yes"/>
      <point x="597" y="-18"/>
      <point x="695" y="127"/>
      <point x="695" y="317" type="curve" smooth="yes"/>
      <point x="695" y="401"/>
      <point x="676" y="476"/>
      <point x="636" y="535" type="curve"/>
      <point x="729" y="639" type="line"/>
      <point x="676" y="686" type="line"/>
      <point x="588" y="587" type="line"/>
      <point x="539" y="627"/>
      <point x="473" y="651"/>
      <point x="390" y="651" type="curve" smooth="yes"/>
      <point x="183" y="651"/>
      <point x="85" y="506"/>
      <point x="85" y="317" type="curve" smooth="yes"/>
      <point x="85" y="233"/>
      <point x="104" y="157"/>
      <point x="144" y="99" type="curve"/>
      <point x="48" y="-5" type="line"/>
    </contour>
    <contour>
      <point x="236" y="201" type="line"/>
      <point x="225" y="235"/>
      <point x="220" y="275"/>
      <point x="220" y="317" type="curve" smooth="yes"/>
      <point x="220" y="445"/>
      <point x="262" y="549"/>
      <point x="390" y="549" type="curve" smooth="yes"/>
      <point x="444" y="549"/>
      <point x="482" y="530"/>
      <point x="509" y="500" type="curve"/>
    </contour>
    <contour>
      <point x="390" y="84" type="curve" smooth="yes"/>
      <point x="336" y="84"/>
      <point x="298" y="102"/>
      <point x="271" y="133" type="curve"/>
      <point x="544" y="433" type="line"/>
      <point x="555" y="399"/>
      <point x="560" y="359"/>
      <point x="560" y="317" type="curve" smooth="yes"/>
      <point x="560" y="188"/>
      <point x="518" y="84"/>
    </contour>
  </outline>
</glyph>
<glyph name="Thorn" format="2">
  <advance width="579"/>
  <unicode hex="00DE"/>
  <outline>
    <contour>
      <point x="529" y="339" type="curve"/>
      <point x="529" y="476"/>
      <point x="428" y="535"/>
      <point x="279" y="535" type="curve"/>
      <point x="190" y="535" type="line"/>
      <point x="190" y="643" type="line"/>
      <point x="56" y="643" type="line"/>
      <point x="56" y="0" type="line"/>
      <point x="190" y="0" type="line"/>
      <point x="190" y="145" type="line"/>
      <point x="279" y="145" type="line"/>
      <point x="428" y="145"/>
      <point x="529" y="202"/>
    </contour>
    <contour>
      <point x="396" y="339" type="curve"/>
      <point x="396" y="282"/>
      <point x="367" y="248"/>
      <point x="279" y="248" type="curve"/>
      <point x="190" y="248" type="line"/>
      <point x="190" y="433" type="line"/>
      <point x="279" y="433" type="line"/>
      <point x="367" y="433"/>
      <point x="396" y="396"/>
    </contour>
  </outline>
</glyph>
<glyph name="ae" format="2">
  <advance width="771"/>
  <unicode hex="00E6"/>
  <outline>
    <contour>
      <point x="193" y="-12" type="curve" smooth="yes"/>
      <point x="256" y="-12"/>
      <point x="313" y="3"/>
      <point x="378" y="57" type="curve"/>
      <point x="404" y="18"/>
      <point x="450" y="-12"/>
      <point x="525" y="-12" type="curve" smooth="yes"/>
      <point x="647" y="-12"/>
      <point x="713" y="38"/>
      <point x="723" y="138" type="curve"/>
      <point x="601" y="138" type="line"/>
      <point x="595" y="88"/>
      <point x="571" y="63"/>
      <point x="528" y="63" type="curve" smooth="yes"/>
      <point x="455" y="63"/>
      <point x="443" y="115"/>
      <point x="442" y="198" type="curve"/>
      <point x="730" y="198" type="line"/>
      <point x="731" y="209"/>
      <point x="732" y="220"/>
      <point x="732" y="232" type="curve" smooth="yes"/>
      <point x="732" y="348"/>
      <point x="677" y="457"/>
      <point x="532" y="457" type="curve" smooth="yes"/>
      <point x="475" y="457"/>
      <point x="430" y="441"/>
      <point x="395" y="413" type="curve"/>
      <point x="358" y="446"/>
      <point x="299" y="457"/>
      <point x="249" y="457" type="curve" smooth="yes"/>
      <point x="130" y="457"/>
      <point x="58" y="401"/>
      <point x="58" y="322" type="curve"/>
      <point x="177" y="322" type="line"/>
      <point x="181" y="365"/>
      <point x="192" y="387"/>
      <point x="246" y="387" type="curve" smooth="yes"/>
      <point x="309" y="387"/>
      <point x="317" y="350"/>
      <point x="318" y="291" type="curve"/>
      <point x="252" y="291" type="line" smooth="yes"/>
      <point x="151" y="291"/>
      <point x="40" y="250"/>
      <point x="40" y="124" type="curve" smooth="yes"/>
      <point x="40" y="41"/>
      <point x="107" y="-12"/>
    </contour>
    <contour>
      <point x="231" y="67" type="curve" smooth="yes"/>
      <point x="192" y="67"/>
      <point x="162" y="97"/>
      <point x="162" y="132" type="curve" smooth="yes"/>
      <point x="162" y="193"/>
      <point x="200" y="223"/>
      <point x="276" y="223" type="curve" smooth="yes"/>
      <point x="292" y="223"/>
      <point x="306" y="223"/>
      <point x="318" y="222" type="curve"/>
      <point x="318" y="141"/>
      <point x="308" y="67"/>
    </contour>
    <contour>
      <point x="442" y="274" type="line"/>
      <point x="442" y="346"/>
      <point x="470" y="382"/>
      <point x="525" y="382" type="curve" smooth="yes"/>
      <point x="575" y="382"/>
      <point x="595" y="351"/>
      <point x="605" y="291" type="curve" smooth="yes"/>
      <point x="606" y="285"/>
      <point x="606" y="280"/>
      <point x="606" y="274" type="curve"/>
    </contour>
  </outline>
</glyph>
<glyph name="ccedilla" format="2">
  <advance width="466"/>
  <unicode hex="00E7"/>
  <outline>
    <contour>
      <point x="427" y="163" type="curve"/>
      <point x="307" y="163" type="line"/>
      <point x="307" y="103"/>
      <point x="298" y="63"/>
      <point x="239" y="63" type="curve" smooth="yes"/>
      <point x="163" y="63"/>
      <point x="160" y="138"/>
      <point x="160" y="220" type="curve" smooth="yes"/>
      <point x="160" y="295"/>
      <point x="158" y="382"/>
      <point x="248" y="382" type="curve" smooth="yes"/>
      <point x="286" y="382"/>
      <point x="308" y="351"/>
      <point x="310" y="289" type="curve"/>
      <point x="427" y="289" type="line"/>
      <point x="427" y="382"/>
      <point x="389" y="457"/>
      <point x="244" y="457" type="curve" smooth="yes"/>
      <point x="129" y="457"/>
      <point x="46" y="366"/>
      <point x="46" y="217" type="curve" smooth="yes"/>
      <point x="46" y="107"/>
      <point x="79" y="8"/>
      <point x="201" y="-10" type="curve"/>
      <point x="201" y="-90" type="line"/>
      <point x="201" y="-90"/>
      <point x="295" y="-83"/>
      <point x="295" y="-138" type="curve" smooth="yes"/>
      <point x="295" y="-160"/>
      <point x="272" y="-167"/>
      <point x="241" y="-167" type="curve" smooth="yes"/>
      <point x="214" y="-167"/>
      <point x="181" y="-162"/>
      <point x="148" y="-155" type="curve"/>
      <point x="148" y="-209" type="line"/>
      <point x="189" y="-215"/>
      <point x="218" y="-217"/>
      <point x="234" y="-217" type="curve" smooth="yes"/>
      <point x="301" y="-217"/>
      <point x="370" y="-195"/>
      <point x="370" y="-137" type="curve" smooth="yes"/>
      <point x="370" y="-76"/>
      <point x="300" y="-45"/>
      <point x="246" y="-45" type="curve"/>
      <point x="246" y="-12" type="line"/>
      <point x="349" y="-11"/>
      <point x="427" y="32"/>
    </contour>
  </outline>
</glyph>
<glyph name="igrave" format="2">
  <advance width="265"/>
  <unicode hex="00EC"/>
  <outline>
    <contour>
      <point x="55" y="0" type="line"/>
      <point x="176" y="0" type="line"/>
      <point x="176" y="446" type="line"/>
      <point x="55" y="446" type="line"/>
    </contour>
    <contour>
      <point x="109" y="536" type="line"/>
      <point x="171" y="536" type="line"/>
      <point x="90" y="696" type="line"/>
      <point x="-26" y="696" type="line"/>
    </contour>
  </outline>
</glyph>
<glyph name="icircumflex" format="2">
  <advance width="265"/>
  <unicode hex="00EE"/>
  <outline>
    <contour>
      <point x="258" y="536" type="line"/>
      <point x="177" y="696" type="line"/>
      <point x="52" y="696" type="line"/>
      <point x="-28" y="536" type="line"/>
      <point x="35" y="536" type="line"/>
      <point x="115" y="634" type="line"/>
      <point x="195" y="536" type="line"/>
    </contour>
    <contour>
      <point x="176" y="0" type="line"/>
      <point x="176" y="446" type="line"/>
      <point x="55" y="446" type="line"/>
      <point x="55" y="0" type="line"/>
    </contour>
  </outline>
</glyph>
<glyph name="eth" format="2">
  <advance width="540"/>
  <unicode hex="00F0"/>
  <outline>
    <contour>
      <point x="499" y="221" type="curve" smooth="yes"/>
      <point x="499" y="348"/>
      <point x="446" y="475"/>
      <point x="357" y="565" type="curve"/>
      <point x="472" y="618" type="line"/>
      <point x="451" y="667" type="line"/>
      <point x="314" y="604" type="line"/>
      <point x="276" y="632"/>
      <point x="232" y="654"/>
      <point x="184" y="654" type="curve"/>
      <point x="140" y="623" type="line"/>
      <point x="175" y="612"/>
      <point x="207" y="593"/>
      <point x="236" y="568" type="curve"/>
      <point x="94" y="503" type="line"/>
      <point x="117" y="456" type="line"/>
      <point x="275" y="528" type="line"/>
      <point x="294" y="506"/>
      <point x="313" y="475"/>
      <point x="324" y="449" type="curve"/>
      <point x="304" y="453"/>
      <point x="284" y="456"/>
      <point x="264" y="456" type="curve" smooth="yes"/>
      <point x="122" y="456"/>
      <point x="40" y="362"/>
      <point x="40" y="221" type="curve" smooth="yes"/>
      <point x="40" y="86"/>
      <point x="118" y="-14"/>
      <point x="275" y="-14" type="curve" smooth="yes"/>
      <point x="432" y="-14"/>
      <point x="499" y="86"/>
    </contour>
    <contour>
      <point x="378" y="221" type="curve" smooth="yes"/>
      <point x="378" y="133"/>
      <point x="354" y="61"/>
      <point x="272" y="61" type="curve" smooth="yes"/>
      <point x="190" y="61"/>
      <point x="158" y="133"/>
      <point x="158" y="221" type="curve" smooth="yes"/>
      <point x="158" y="310"/>
      <point x="188" y="380"/>
      <point x="272" y="380" type="curve" smooth="yes"/>
      <point x="354" y="380"/>
      <point x="378" y="310"/>
    </contour>
  </outline>
</glyph>
<glyph name="thorn" format="2">
  <advance width="545"/>
  <unicode hex="00FE"/>
  <outline>
    <contour>
      <point x="58" y="-203" type="line"/>
      <point x="178" y="-203" type="line"/>
      <point x="178" y="14" type="line"/>
      <point x="206" y="-26"/>
      <point x="226" y="-39"/>
      <point x="309" y="-39" type="curve"/>
      <point x="427" y="-39"/>
      <point x="506" y="48"/>
      <point x="506" y="202" type="curve"/>
      <point x="506" y="309"/>
      <point x="451" y="431"/>
      <point x="301" y="431" type="curve"/>
      <point x="230" y="431"/>
      <point x="198" y="398"/>
      <point x="178" y="358" type="curve"/>
      <point x="178" y="616" type="line"/>
      <point x="58" y="616" type="line"/>
    </contour>
    <contour>
      <point x="276" y="37" type="curve"/>
      <point x="198" y="37"/>
      <point x="176" y="121"/>
      <point x="176" y="199" type="curve"/>
      <point x="176" y="273"/>
      <point x="213" y="351"/>
      <point x="280" y="351" type="curve"/>
      <point x="357" y="351"/>
      <point x="386" y="275"/>
      <point x="386" y="202" type="curve"/>
      <point x="386" y="125"/>
      <point x="357" y="37"/>
    </contour>
  </outline>
</glyph>
<glyph name="dotlessi" format="2">
  <advance width="235"/>
  <unicode hex="0131"/>
  <outline>
    <contour>
      <point x="58" y="0" type="line"/>
      <point x="178" y="0" type="line"/>
      <point x="178" y="445" type="line"/>
      <point x="58" y="445" type="line"/>
    </contour>
  </outline>
</glyph>
<glyph name="oe" format="2">
  <advance width="821"/>
  <unicode hex="0153"/>
  <outline>
    <contour>
      <point x="270" y="-14" type="curve" smooth="yes"/>
      <point x="335" y="-14"/>
      <point x="376" y="7"/>
      <point x="411" y="41" type="curve"/>
      <point x="442" y="7"/>
      <point x="497" y="-14"/>
      <point x="565" y="-14" type="curve" smooth="yes"/>
      <point x="658" y="-14"/>
      <point x="755" y="14"/>
      <point x="768" y="136" type="curve"/>
      <point x="646" y="136" type="line"/>
      <point x="640" y="84"/>
      <point x="605" y="61"/>
      <point x="569" y="61" type="curve" smooth="yes"/>
      <point x="495" y="61"/>
      <point x="475" y="121"/>
      <point x="475" y="197" type="curve"/>
      <point x="767" y="197" type="line"/>
      <point x="767" y="205"/>
      <point x="767" y="213"/>
      <point x="767" y="222" type="curve" smooth="yes"/>
      <point x="767" y="312"/>
      <point x="747" y="456"/>
      <point x="573" y="456" type="curve" smooth="yes"/>
      <point x="512" y="456"/>
      <point x="451" y="436"/>
      <point x="416" y="397" type="curve"/>
      <point x="379" y="433"/>
      <point x="337" y="456"/>
      <point x="270" y="456" type="curve" smooth="yes"/>
      <point x="117" y="456"/>
      <point x="40" y="337"/>
      <point x="40" y="221" type="curve" smooth="yes"/>
      <point x="40" y="104"/>
      <point x="117" y="-14"/>
    </contour>
    <contour>
      <point x="270" y="62" type="curve" smooth="yes"/>
      <point x="200" y="62"/>
      <point x="161" y="119"/>
      <point x="161" y="221" type="curve" smooth="yes"/>
      <point x="161" y="322"/>
      <point x="200" y="379"/>
      <point x="270" y="379" type="curve" smooth="yes"/>
      <point x="339" y="379"/>
      <point x="369" y="322"/>
      <point x="369" y="221" type="curve" smooth="yes"/>
      <point x="369" y="119"/>
      <point x="339" y="62"/>
    </contour>
    <contour>
      <point x="475" y="272" type="line"/>
      <point x="475" y="324"/>
      <point x="500" y="380"/>
      <point x="565" y="380" type="curve" smooth="yes"/>
      <point x="629" y="380"/>
      <point x="646" y="325"/>
      <point x="646" y="272" type="curve"/>
    </contour>
  </outline>
</glyph>
<glyph name="Scaron" format="2">
  <advance width="608"/>
  <unicode hex="0160"/>
  <outline>
    <contour>
      <point x="305" y="-14" type="curve" smooth="yes"/>
      <point x="430" y="-14"/>
      <point x="560" y="63"/>
      <point x="560" y="186" type="curve" smooth="yes"/>
      <point x="560" y="412"/>
      <point x="195" y="340"/>
      <point x="195" y="471" type="curve" smooth="yes"/>
      <point x="195" y="528"/>
      <point x="260" y="557"/>
      <point x="309" y="557" type="curve" smooth="yes"/>
      <point x="372" y="557"/>
      <point x="407" y="522"/>
      <point x="407" y="463" type="curve"/>
      <point x="541" y="463" type="line"/>
      <point x="541" y="530"/>
      <point x="508" y="656"/>
      <point x="309" y="656" type="curve" smooth="yes"/>
      <point x="184" y="656"/>
      <point x="66" y="577"/>
      <point x="66" y="456" type="curve" smooth="yes"/>
      <point x="66" y="233"/>
      <point x="430" y="311"/>
      <point x="430" y="174" type="curve" smooth="yes"/>
      <point x="430" y="114"/>
      <point x="357" y="89"/>
      <point x="309" y="89" type="curve" smooth="yes"/>
      <point x="240" y="89"/>
      <point x="182" y="106"/>
      <point x="182" y="201" type="curve"/>
      <point x="48" y="201" type="line"/>
      <point x="48" y="57"/>
      <point x="168" y="-14"/>
    </contour>
    <contour>
      <point x="241" y="732" type="line"/>
      <point x="366" y="732" type="line"/>
      <point x="446" y="893" type="line"/>
      <point x="384" y="893" type="line"/>
      <point x="303" y="795" type="line"/>
      <point x="223" y="893" type="line"/>
      <point x="160" y="893" type="line"/>
    </contour>
  </outline>
</glyph>
<glyph name="scaron" format="2">
  <advance width="464"/>
  <unicode hex="0161"/>
  <outline>
    <contour>
      <point x="413" y="315" type="line"/>
      <point x="413" y="368"/>
      <point x="400" y="457"/>
      <point x="234" y="457" type="curve" smooth="yes"/>
      <point x="125" y="457"/>
      <point x="52" y="401"/>
      <point x="52" y="323" type="curve" smooth="yes"/>
      <point x="52" y="156"/>
      <point x="308" y="219"/>
      <point x="308" y="122" type="curve" smooth="yes"/>
      <point x="308" y="82"/>
      <point x="273" y="62"/>
      <point x="238" y="62" type="curve" smooth="yes"/>
      <point x="172" y="62"/>
      <point x="161" y="93"/>
      <point x="161" y="137" type="curve"/>
      <point x="40" y="137" type="line"/>
      <point x="40" y="62"/>
      <point x="82" y="-14"/>
      <point x="227" y="-14" type="curve" smooth="yes"/>
      <point x="327" y="-14"/>
      <point x="424" y="30"/>
      <point x="424" y="137" type="curve" smooth="yes"/>
      <point x="424" y="307"/>
      <point x="168" y="252"/>
      <point x="168" y="330" type="curve" smooth="yes"/>
      <point x="168" y="355"/>
      <point x="189" y="382"/>
      <point x="227" y="382" type="curve" smooth="yes"/>
      <point x="278" y="382"/>
      <point x="290" y="361"/>
      <point x="293" y="315" type="curve"/>
    </contour>
    <contour>
      <point x="294" y="534" type="line"/>
      <point x="375" y="695" type="line"/>
      <point x="312" y="695" type="line"/>
      <point x="232" y="597" type="line"/>
      <point x="152" y="695" type="line"/>
      <point x="89" y="695" type="line"/>
      <point x="169" y="534" type="line"/>
    </contour>
  </outline>
</glyph>
<glyph name="Zcaron" format="2">
  <advance width="633"/>
  <unicode hex="017D"/>
  <outline>
    <contour>
      <point x="45" y="0" type="line"/>
      <point x="530" y="0" type="line"/>
      <point x="530" y="103" type="line"/>
      <point x="199" y="103" type="line"/>
      <point x="523" y="533" type="line"/>
      <point x="523" y="645" type="line"/>
      <point x="65" y="645" type="line"/>
      <point x="65" y="542" type="line"/>
      <point x="368" y="542" type="line"/>
      <point x="45" y="112" type="line"/>
    </contour>
    <contour>
      <point x="349" y="733" type="line"/>
      <point x="430" y="894" type="line"/>
      <point x="367" y="894" type="line"/>
      <point x="287" y="796" type="line"/>
      <point x="207" y="894" type="line"/>
      <point x="144" y="894" type="line"/>
      <point x="224" y="733" type="line"/>
    </contour>
  </outline>
</glyph>
<glyph name="zcaron" format="2">
  <advance width="463"/>
  <unicode hex="017E"/>
  <outline>
    <contour>
      <point x="45" y="0" type="line"/>
      <point x="418" y="0" type="line"/>
      <point x="418" y="76" type="line"/>
      <point x="170" y="76" type="line"/>
      <point x="407" y="353" type="line"/>
      <point x="407" y="446" type="line"/>
      <point x="49" y="446" type="line"/>
      <point x="49" y="371" type="line"/>
      <point x="282" y="371" type="line"/>
      <point x="45" y="94" type="line"/>
    </contour>
    <contour>
      <point x="294" y="536" type="line"/>
      <point x="374" y="696" type="line"/>
      <point x="312" y="696" type="line"/>
      <point x="232" y="598" type="line"/>
      <point x="151" y="696" type="line"/>
      <point x="89" y="696" type="line"/>
      <point x="169" y="536" type="line"/>
    </contour>
  </outline>
</glyph>
<glyph name="florin" format="2">
  <advance width="528"/>
  <unicode hex="0192"/>
  <outline>
    <contour>
      <point x="-17" y="-211" type="curve"/>
      <point x="101" y="-211"/>
      <point x="152" y="-163"/>
      <point x="191" y="-22" type="curve"/>
      <point x="294" y="343" type="line"/>
      <point x="401" y="343" type="line"/>
      <point x="424" y="430" type="line"/>
      <point x="316" y="430" type="line"/>
      <point x="341" y="523"/>
      <point x="364" y="557"/>
      <point x="405" y="557" type="curve"/>
      <point x="422" y="557"/>
      <point x="437" y="555"/>
      <point x="463" y="540" type="curve"/>
      <point x="484" y="618" type="line"/>
      <point x="456" y="627"/>
      <point x="432" y="631"/>
      <point x="407" y="631" type="curve"/>
      <point x="279" y="631"/>
      <point x="248" y="565"/>
      <point x="209" y="430" type="curve"/>
      <point x="119" y="430" type="line"/>
      <point x="97" y="343" type="line"/>
      <point x="186" y="343" type="line"/>
      <point x="86" y="-15" type="line"/>
      <point x="62" y="-99"/>
      <point x="39" y="-133"/>
      <point x="-9" y="-133" type="curve"/>
      <point x="-22" y="-133"/>
      <point x="-30" y="-131"/>
      <point x="-51" y="-107" type="curve"/>
      <point x="-80" y="-193" type="line"/>
      <point x="-54" y="-207"/>
      <point x="-36" y="-211"/>
    </contour>
  </outline>
</glyph>
<glyph name="circumflex" format="2">
  <advance width="328"/>
  <unicode hex="02C6"/>
  <outline>
    <contour>
      <point x="0" y="614" type="line"/>
      <point x="62" y="614" type="line"/>
      <point x="142" y="712" type="line"/>
      <point x="223" y="614" type="line"/>
      <point x="285" y="614" type="line"/>
      <point x="205" y="775" type="line"/>
      <point x="80" y="775" type="line"/>
    </contour>
  </outline>
</glyph>
<glyph name="caron" format="2">
  <advance width="320"/>
  <unicode hex="02C7"/>
  <outline>
    <contour>
      <point x="80" y="600" type="line"/>
      <point x="205" y="600" type="line"/>
      <point x="286" y="761" type="line"/>
      <point x="223" y="761" type="line"/>
      <point x="143" y="663" type="line"/>
      <point x="62" y="761" type="line"/>
      <point x="0" y="761" type="line"/>
    </contour>
  </outline>
</glyph>
<glyph name="colontriangularmod" format="2">
  <advance width="296"/>
  <unicode hex="02D0"/>
  <outline>
    <contour>
      <point x="40" y="466" type="line"/>
      <point x="148" y="272" type="line"/>
      <point x="256" y="466" type="line"/>
    </contour>
    <contour>
      <point x="40" y="0" type="line"/>
      <point x="256" y="0" type="line"/>
      <point x="148" y="194" type="line"/>
    </contour>
  </outline>
</glyph>
<glyph name="breve" format="2">
  <advance width="320"/>
  <unicode hex="02D8"/>
  <outline>
    <contour>
      <point x="143" y="600" type="curve"/>
      <point x="222" y="600"/>
      <point x="278" y="655"/>
      <point x="286" y="734" type="curve"/>
      <point x="232" y="734" type="line"/>
      <point x="233" y="704"/>
      <point x="174" y="671"/>
      <point x="143" y="671" type="curve"/>
      <point x="112" y="671"/>
      <point x="53" y="704"/>
      <point x="54" y="734" type="curve"/>
      <point x="0" y="734" type="line"/>
      <point x="7" y="655"/>
      <point x="54" y="600"/>
    </contour>
  </outline>
</glyph>
<glyph name="dotaccent" format="2">
  <advance width="120"/>
  <unicode hex="02D9"/>
  <outline>
    <contour>
      <point x="0" y="600" type="line"/>
      <point x="107" y="600" type="line"/>
      <point x="107" y="716" type="line"/>
      <point x="0" y="716" type="line"/>
    </contour>
  </outline>
</glyph>
<glyph name="ogonek" format="2">
  <advance width="208"/>
  <unicode hex="02DB"/>
  <outline>
    <contour>
      <point x="79" y="-230" type="curve"/>
      <point x="95" y="-229"/>
      <point x="149" y="-226"/>
      <point x="149" y="-226" type="curve"/>
      <point x="149" y="-146" type="line"/>
      <point x="149" y="-146"/>
      <point x="133" y="-150"/>
      <point x="115" y="-150" type="curve"/>
      <point x="95" y="-150"/>
      <point x="71" y="-143"/>
      <point x="71" y="-119" type="curve"/>
      <point x="71" y="-59"/>
      <point x="114" y="-25"/>
      <point x="114" y="-25" type="curve"/>
      <point x="71" y="-25" type="line"/>
      <point x="71" y="-25"/>
      <point x="0" y="-84"/>
      <point x="0" y="-145" type="curve"/>
      <point x="0" y="-193"/>
      <point x="28" y="-233"/>
    </contour>
  </outline>
</glyph>
<glyph name="tilde" format="2">
  <advance width="328"/>
  <unicode hex="02DC"/>
  <outline>
    <contour>
      <point x="285" y="740" type="curve"/>
      <point x="240" y="740" type="line"/>
      <point x="233" y="715"/>
      <point x="215" y="708"/>
      <point x="194" y="708" type="curve"/>
      <point x="158" y="708"/>
      <point x="127" y="728"/>
      <point x="91" y="728" type="curve"/>
      <point x="28" y="728"/>
      <point x="4" y="673"/>
      <point x="0" y="630" type="curve"/>
      <point x="46" y="630" type="line"/>
      <point x="53" y="654"/>
      <point x="71" y="662"/>
      <point x="91" y="662" type="curve"/>
      <point x="127" y="662"/>
      <point x="156" y="642"/>
      <point x="191" y="642" type="curve"/>
      <point x="256" y="642"/>
      <point x="280" y="697"/>
    </contour>
  </outline>
</glyph>
<glyph name="hungarumlaut" format="2">
  <advance width="320"/>
  <unicode hex="02DD"/>
  <outline>
    <contour>
      <point x="183" y="600" type="line"/>
      <point x="286" y="761" type="line"/>
      <point x="188" y="761" type="line"/>
      <point x="143" y="600" type="line"/>
    </contour>
    <contour>
      <point x="45" y="600" type="line"/>
      <point x="143" y="761" type="line"/>
      <point x="45" y="761" type="line"/>
      <point x="0" y="600" type="line"/>
    </contour>
  </outline>
</glyph>
<glyph name="pi" format="2">
  <advance width="573"/>
  <unicode hex="03C0"/>
  <outline>
    <contour>
      <point x="495" y="138" type="curve"/>
      <point x="475" y="138" type="line"/>
      <point x="472" y="117"/>
      <point x="468" y="69"/>
      <point x="420" y="69" type="curve"/>
      <point x="374" y="69"/>
      <point x="359" y="111"/>
      <point x="359" y="171" type="curve"/>
      <point x="359" y="211"/>
      <point x="361" y="280"/>
      <point x="370" y="373" type="curve"/>
      <point x="488" y="373" type="line"/>
      <point x="488" y="451" type="line"/>
      <point x="140" y="451" type="line"/>
      <point x="46" y="451"/>
      <point x="18" y="333"/>
      <point x="10" y="313" type="curve"/>
      <point x="26" y="313" type="line"/>
      <point x="46" y="342" type="line"/>
      <point x="56" y="358"/>
      <point x="81" y="373"/>
      <point x="107" y="373" type="curve"/>
      <point x="151" y="373" type="line"/>
      <point x="124" y="159" type="line"/>
      <point x="116" y="93"/>
      <point x="55" y="77"/>
      <point x="55" y="33" type="curve"/>
      <point x="55" y="5"/>
      <point x="73" y="-20"/>
      <point x="104" y="-20" type="curve"/>
      <point x="138" y="-20"/>
      <point x="156" y="5"/>
      <point x="165" y="44" type="curve"/>
      <point x="176" y="95"/>
      <point x="193" y="198"/>
      <point x="208" y="373" type="curve"/>
      <point x="314" y="373" type="line"/>
      <point x="314" y="373"/>
      <point x="295" y="214"/>
      <point x="295" y="155" type="curve"/>
      <point x="295" y="17"/>
      <point x="348" y="-17"/>
      <point x="383" y="-17" type="curve"/>
      <point x="417" y="-17"/>
      <point x="492" y="16"/>
    </contour>
  </outline>
</glyph>
<glyph name="u1000" format="2">
  <advance width="976"/>
  <unicode hex="1000"/>
  <anchor x="490" y="-53" name="BD"/>
  <anchor x="678" y="-53" name="BS"/>
  <anchor x="678" y="-53" name="L"/>
  <anchor x="678" y="495" name="U"/>
  <anchor x="0" y="0" name="_R"/>
  <outline>
    <contour>
      <point x="147" y="-23" type="curve"/>
      <point x="214" y="69" type="line"/>
      <point x="185" y="96"/>
      <point x="167" y="141"/>
      <point x="167" y="205" type="curve" smooth="yes"/>
      <point x="167" y="288"/>
      <point x="226" y="347"/>
      <point x="298" y="347" type="curve" smooth="yes"/>
      <point x="370" y="347"/>
      <point x="429" y="288"/>
      <point x="429" y="205" type="curve" smooth="yes"/>
      <point x="429" y="141"/>
      <point x="411" y="96"/>
      <point x="382" y="69" type="curve"/>
      <point x="449" y="-23" type="line"/>
      <point x="506" y="25"/>
      <point x="543" y="105"/>
      <point x="543" y="205" type="curve" smooth="yes"/>
      <point x="543" y="351"/>
      <point x="433" y="461"/>
      <point x="298" y="461" type="curve" smooth="yes"/>
      <point x="163" y="461"/>
      <point x="53" y="351"/>
      <point x="53" y="205" type="curve" smooth="yes"/>
      <point x="53" y="105"/>
      <point x="90" y="25"/>
    </contour>
    <contour>
      <point x="673" y="-23" type="curve" smooth="yes"/>
      <point x="807" y="-23"/>
      <point x="917" y="87"/>
      <point x="917" y="222" type="curve" smooth="yes"/>
      <point x="917" y="356"/>
      <point x="807" y="466"/>
      <point x="673" y="466" type="curve" smooth="yes"/>
      <point x="586" y="466"/>
      <point x="509" y="420"/>
      <point x="465" y="343" type="curve"/>
      <point x="542" y="214" type="line"/>
      <point x="542" y="293"/>
      <point x="601" y="352"/>
      <point x="673" y="352" type="curve" smooth="yes"/>
      <point x="744" y="352"/>
      <point x="803" y="293"/>
      <point x="803" y="222" type="curve" smooth="yes"/>
      <point x="803" y="150"/>
      <point x="744" y="91"/>
      <point x="673" y="91" type="curve" smooth="yes"/>
      <point x="670" y="91"/>
      <point x="667" y="91"/>
      <point x="664" y="91" type="curve"/>
      <point x="618" y="-17" type="line"/>
      <point x="636" y="-21"/>
      <point x="654" y="-23"/>
    </contour>
  </outline>
</glyph>
<glyph name="u1001" format="2">
  <advance width="1200"/>
  <unicode hex="1001"/>
  <anchor x="566" y="-106" name="BD"/>
  <anchor x="602" y="-106" name="BS"/>
  <anchor x="602" y="-106" name="L"/>
  <anchor x="602" y="990" name="U"/>
  <anchor x="0" y="0" name="_R"/>
  <outline>
    <contour>
      <point x="734" y="216" type="curve"/>
      <point x="684" y="280"/>
      <point x="596" y="326"/>
      <point x="500" y="326" type="curve" smooth="yes"/>
      <point x="460" y="326"/>
      <point x="416" y="320"/>
      <point x="366" y="306" type="curve"/>
      <point x="448" y="204"/>
      <point x="546" y="182"/>
      <point x="602" y="182" type="curve" smooth="yes"/>
      <point x="652" y="182"/>
      <point x="696" y="194"/>
    </contour>
    <contour>
      <point x="1092" y="444" type="curve" smooth="yes"/>
      <point x="1092" y="188"/>
      <point x="898" y="-46"/>
      <point x="602" y="-46" type="curve" smooth="yes"/>
      <point x="412" y="-46"/>
      <point x="114" y="104"/>
      <point x="114" y="372" type="curve"/>
      <point x="274" y="486"/>
      <point x="420" y="512"/>
      <point x="500" y="512" type="curve" smooth="yes"/>
      <point x="596" y="512"/>
      <point x="748" y="472"/>
      <point x="852" y="366" type="curve"/>
      <point x="860" y="388"/>
      <point x="864" y="414"/>
      <point x="864" y="444" type="curve" smooth="yes"/>
      <point x="864" y="490"/>
      <point x="818" y="704"/>
      <point x="602" y="704" type="curve" smooth="yes"/>
      <point x="510" y="704"/>
      <point x="426" y="664"/>
      <point x="356" y="566" type="curve"/>
      <point x="158" y="672" type="line"/>
      <point x="254" y="842"/>
      <point x="424" y="932"/>
      <point x="602" y="932" type="curve" smooth="yes"/>
      <point x="920" y="932"/>
      <point x="1092" y="658"/>
    </contour>
  </outline>
</glyph>
<glyph name="u1002" format="2">
  <advance width="600"/>
  <unicode hex="1002"/>
  <anchor x="292" y="-53" name="BD"/>
  <anchor x="300" y="-53" name="BS"/>
  <anchor x="300" y="-53" name="L"/>
  <anchor x="300" y="495" name="U"/>
  <anchor x="0" y="0" name="_R"/>
  <outline>
    <contour>
      <point x="548" y="201" type="curve" smooth="yes"/>
      <point x="548" y="124"/>
      <point x="518" y="43"/>
      <point x="454" y="-23" type="curve"/>
      <point x="388" y="70" type="line"/>
      <point x="417" y="109"/>
      <point x="433" y="155"/>
      <point x="433" y="198" type="curve" smooth="yes"/>
      <point x="433" y="280"/>
      <point x="383" y="352"/>
      <point x="300" y="352" type="curve" smooth="yes"/>
      <point x="217" y="352"/>
      <point x="168" y="280"/>
      <point x="168" y="199" type="curve" smooth="yes"/>
      <point x="168" y="156"/>
      <point x="182" y="110"/>
      <point x="211" y="70" type="curve"/>
      <point x="145" y="-23" type="line"/>
      <point x="82" y="42"/>
      <point x="53" y="123"/>
      <point x="53" y="200" type="curve" smooth="yes"/>
      <point x="53" y="339"/>
      <point x="146" y="466"/>
      <point x="300" y="466" type="curve" smooth="yes"/>
      <point x="453" y="466"/>
      <point x="548" y="340"/>
    </contour>
  </outline>
</glyph>
<glyph name="u1003" format="2">
  <advance width="969"/>
  <unicode hex="1003"/>
  <anchor x="484" y="-53" name="BD"/>
  <anchor x="670" y="-53" name="BS"/>
  <anchor x="670" y="-53" name="L"/>
  <anchor x="670" y="495" name="U"/>
  <anchor x="0" y="0" name="_R"/>
  <outline>
    <contour>
      <point x="915" y="222" type="curve" smooth="yes"/>
      <point x="915" y="89"/>
      <point x="803" y="-23"/>
      <point x="670" y="-23" type="curve" smooth="yes"/>
      <point x="587" y="-23"/>
      <point x="523" y="22"/>
      <point x="484" y="75" type="curve"/>
      <point x="437" y="12"/>
      <point x="367" y="-23"/>
      <point x="292" y="-23" type="curve" smooth="yes"/>
      <point x="147" y="-23"/>
      <point x="55" y="81"/>
      <point x="55" y="166" type="curve" smooth="yes"/>
      <point x="55" y="319"/>
      <point x="193" y="286"/>
      <point x="193" y="342" type="curve" smooth="yes"/>
      <point x="193" y="359"/>
      <point x="182" y="367"/>
      <point x="168" y="367" type="curve" smooth="yes"/>
      <point x="153" y="367"/>
      <point x="143" y="356"/>
      <point x="139" y="342" type="curve"/>
      <point x="55" y="391" type="line"/>
      <point x="65" y="438"/>
      <point x="118" y="466"/>
      <point x="168" y="466" type="curve" smooth="yes"/>
      <point x="228" y="466"/>
      <point x="292" y="427"/>
      <point x="292" y="342" type="curve" smooth="yes"/>
      <point x="292" y="230"/>
      <point x="169" y="237"/>
      <point x="169" y="166" type="curve" smooth="yes"/>
      <point x="169" y="133"/>
      <point x="216" y="91"/>
      <point x="292" y="91" type="curve" smooth="yes"/>
      <point x="362" y="91"/>
      <point x="421" y="147"/>
      <point x="421" y="240" type="curve" smooth="yes"/>
      <point x="421" y="289"/>
      <point x="413" y="341"/>
      <point x="381" y="373" type="curve"/>
      <point x="447" y="466" type="line"/>
      <point x="513" y="417"/>
      <point x="537" y="333"/>
      <point x="537" y="234" type="curve" smooth="yes"/>
      <point x="537" y="175"/>
      <point x="600" y="91"/>
      <point x="670" y="91" type="curve" smooth="yes"/>
      <point x="742" y="91"/>
      <point x="801" y="151"/>
      <point x="801" y="222" type="curve" smooth="yes"/>
      <point x="801" y="291"/>
      <point x="742" y="352"/>
      <point x="670" y="352" type="curve" smooth="yes"/>
      <point x="664" y="352"/>
      <point x="652" y="350"/>
      <point x="645" y="348" type="curve"/>
      <point x="600" y="453" type="line"/>
      <point x="616" y="463"/>
      <point x="644" y="466"/>
      <point x="670" y="466" type="curve" smooth="yes"/>
      <point x="803" y="466"/>
      <point x="915" y="358"/>
    </contour>
  </outline>
</glyph>
<glyph name="u1004" format="2">
  <advance width="1154"/>
  <unicode hex="1004"/>
  <anchor x="584" y="-106" name="BD"/>
  <anchor x="596" y="-106" name="BS"/>
  <anchor x="596" y="-106" name="L"/>
  <anchor x="596" y="990" name="U"/>
  <anchor x="0" y="0" name="_R"/>
  <outline>
    <contour>
      <point x="1044" y="216" type="line"/>
      <point x="954" y="54"/>
      <point x="780" y="-46"/>
      <point x="596" y="-46" type="curve" smooth="yes"/>
      <point x="332" y="-46"/>
      <point x="110" y="174"/>
      <point x="110" y="444" type="curve" smooth="yes"/>
      <point x="110" y="710"/>
      <point x="332" y="932"/>
      <point x="596" y="932" type="curve" smooth="yes"/>
      <point x="764" y="932"/>
      <point x="958" y="844"/>
      <point x="1044" y="672" type="curve"/>
      <point x="840" y="566" type="line"/>
      <point x="776" y="666"/>
      <point x="696" y="704"/>
      <point x="596" y="704" type="curve" smooth="yes"/>
      <point x="458" y="704"/>
      <point x="338" y="582"/>
      <point x="338" y="444" type="curve" smooth="yes"/>
      <point x="338" y="302"/>
      <point x="458" y="182"/>
      <point x="596" y="182" type="curve" smooth="yes"/>
      <point x="704" y="182"/>
      <point x="788" y="230"/>
      <point x="840" y="320" type="curve"/>
    </contour>
  </outline>
</glyph>
<glyph name="u1005" format="2">
  <advance width="1182"/>
  <unicode hex="1005"/>
  <anchor x="576" y="-106" name="BD"/>
  <anchor x="588" y="-106" name="BS"/>
  <anchor x="588" y="-106" name="L"/>
  <anchor x="588" y="990" name="U"/>
  <anchor x="0" y="0" name="_R"/>
  <outline>
    <contour>
      <point x="588" y="-46" type="curve" smooth="yes"/>
      <point x="858" y="-46"/>
      <point x="1070" y="174"/>
      <point x="1070" y="444" type="curve" smooth="yes"/>
      <point x="1070" y="710"/>
      <point x="858" y="932"/>
      <point x="588" y="932" type="curve" smooth="yes"/>
      <point x="324" y="932"/>
      <point x="110" y="710"/>
      <point x="110" y="444" type="curve" smooth="yes"/>
      <point x="110" y="174"/>
      <point x="328" y="-46"/>
    </contour>
    <contour>
      <point x="432" y="240" type="curve"/>
      <point x="376" y="288"/>
      <point x="338" y="358"/>
      <point x="338" y="444" type="curve" smooth="yes"/>
      <point x="338" y="524"/>
      <point x="376" y="596"/>
      <point x="432" y="644" type="curve"/>
      <point x="478" y="582"/>
      <point x="500" y="516"/>
      <point x="500" y="444" type="curve" smooth="yes"/>
      <point x="500" y="366"/>
      <point x="474" y="298"/>
    </contour>
    <contour>
      <point x="608" y="182" type="curve"/>
      <point x="664" y="270"/>
      <point x="686" y="366"/>
      <point x="686" y="444" type="curve" smooth="yes"/>
      <point x="686" y="518"/>
      <point x="672" y="614"/>
      <point x="608" y="704" type="curve"/>
      <point x="610" y="704"/>
      <point x="614" y="704"/>
      <point x="616" y="704" type="curve" smooth="yes"/>
      <point x="738" y="698"/>
      <point x="842" y="572"/>
      <point x="842" y="444" type="curve" smooth="yes"/>
      <point x="842" y="324"/>
      <point x="742" y="188"/>
      <point x="616" y="182" type="curve" smooth="yes"/>
      <point x="614" y="182"/>
      <point x="610" y="182"/>
    </contour>
  </outline>
</glyph>
<glyph name="u1006" format="2">
  <advance width="1932"/>
  <unicode hex="1006"/>
  <anchor x="974" y="-106" name="BD"/>
  <anchor x="1344" y="-106" name="BS"/>
  <anchor x="1344" y="-106" name="L"/>
  <anchor x="1344" y="990" name="U"/>
  <anchor x="0" y="0" name="_R"/>
  <outline>
    <contour>
      <point x="734" y="216" type="curve"/>
      <point x="678" y="280"/>
      <point x="594" y="326"/>
      <point x="500" y="326" type="curve" smooth="yes"/>
      <point x="458" y="326"/>
      <point x="418" y="324"/>
      <point x="362" y="306" type="curve"/>
      <point x="448" y="204"/>
      <point x="544" y="182"/>
      <point x="600" y="182" type="curve" smooth="yes"/>
      <point x="650" y="182"/>
      <point x="694" y="194"/>
    </contour>
    <contour>
      <point x="1596" y="444" type="curve" smooth="yes"/>
      <point x="1596" y="584"/>
      <point x="1482" y="704"/>
      <point x="1344" y="704" type="curve" smooth="yes"/>
      <point x="1200" y="704"/>
      <point x="1088" y="584"/>
      <point x="1088" y="444" type="curve" smooth="yes"/>
      <point x="1088" y="302"/>
      <point x="1208" y="182"/>
      <point x="1344" y="182" type="curve" smooth="yes"/>
      <point x="1486" y="182"/>
      <point x="1596" y="302"/>
    </contour>
    <contour>
      <point x="1824" y="444" type="curve" smooth="yes"/>
      <point x="1824" y="174"/>
      <point x="1606" y="-46"/>
      <point x="1344" y="-46" type="curve" smooth="yes"/>
      <point x="1192" y="-46"/>
      <point x="1062" y="22"/>
      <point x="974" y="128" type="curve"/>
      <point x="892" y="24"/>
      <point x="762" y="-46"/>
      <point x="600" y="-46" type="curve" smooth="yes"/>
      <point x="414" y="-46"/>
      <point x="114" y="100"/>
      <point x="114" y="384" type="curve"/>
      <point x="274" y="488"/>
      <point x="420" y="512"/>
      <point x="500" y="512" type="curve" smooth="yes"/>
      <point x="594" y="512"/>
      <point x="748" y="474"/>
      <point x="848" y="368" type="curve"/>
      <point x="856" y="392"/>
      <point x="860" y="414"/>
      <point x="860" y="444" type="curve" smooth="yes"/>
      <point x="860" y="490"/>
      <point x="816" y="704"/>
      <point x="600" y="704" type="curve" smooth="yes"/>
      <point x="522" y="704"/>
      <point x="444" y="686"/>
      <point x="354" y="566" type="curve"/>
      <point x="156" y="672" type="line"/>
      <point x="240" y="844"/>
      <point x="428" y="932"/>
      <point x="600" y="932" type="curve" smooth="yes"/>
      <point x="768" y="932"/>
      <point x="892" y="856"/>
      <point x="972" y="752" type="curve"/>
      <point x="1062" y="864"/>
      <point x="1192" y="932"/>
      <point x="1344" y="932" type="curve" smooth="yes"/>
      <point x="1612" y="932"/>
      <point x="1824" y="710"/>
    </contour>
  </outline>
</glyph>
<glyph name="u1007" format="2">
  <advance width="1296"/>
  <unicode hex="1007"/>
  <anchor x="572" y="-106" name="BD"/>
  <anchor x="594" y="-106" name="BS"/>
  <anchor x="594" y="-106" name="L"/>
  <anchor x="596" y="990" name="U"/>
  <anchor x="0" y="0" name="_R"/>
  <outline>
    <contour>
      <point x="1214" y="300" type="line"/>
      <point x="1162" y="414"/>
      <point x="1094" y="536"/>
      <point x="1040" y="602" type="curve"/>
      <point x="1008" y="842"/>
      <point x="780" y="932"/>
      <point x="594" y="932" type="curve" smooth="yes"/>
      <point x="342" y="932"/>
      <point x="110" y="710"/>
      <point x="110" y="444" type="curve" smooth="yes"/>
      <point x="110" y="174"/>
      <point x="338" y="-46"/>
      <point x="594" y="-46" type="curve" smooth="yes"/>
      <point x="794" y="-46"/>
      <point x="890" y="-6"/>
      <point x="962" y="72" type="curve"/>
      <point x="800" y="230" type="line"/>
      <point x="762" y="204"/>
      <point x="692" y="182"/>
      <point x="594" y="182" type="curve" smooth="yes"/>
      <point x="452" y="182"/>
      <point x="338" y="302"/>
      <point x="338" y="444" type="curve" smooth="yes"/>
      <point x="338" y="582"/>
      <point x="474" y="714"/>
      <point x="594" y="714" type="curve" smooth="yes"/>
      <point x="636" y="714"/>
      <point x="672" y="708"/>
      <point x="706" y="696" type="curve"/>
      <point x="680" y="690"/>
      <point x="656" y="682"/>
      <point x="636" y="670" type="curve" smooth="yes"/>
      <point x="562" y="628"/>
      <point x="534" y="550"/>
      <point x="534" y="488" type="curve" smooth="yes"/>
      <point x="534" y="360"/>
      <point x="650" y="276"/>
      <point x="770" y="276" type="curve" smooth="yes"/>
      <point x="840" y="276"/>
      <point x="912" y="294"/>
      <point x="966" y="342" type="curve"/>
      <point x="986" y="308"/>
      <point x="1032" y="226"/>
      <point x="1052" y="182" type="curve"/>
    </contour>
    <contour>
      <point x="770" y="444" type="curve" smooth="yes"/>
      <point x="750" y="444"/>
      <point x="702" y="452"/>
      <point x="702" y="488" type="curve" smooth="yes"/>
      <point x="702" y="522"/>
      <point x="726" y="540"/>
      <point x="758" y="540" type="curve" smooth="yes"/>
      <point x="812" y="540"/>
      <point x="828" y="536"/>
      <point x="860" y="494" type="curve"/>
      <point x="852" y="460"/>
      <point x="822" y="444"/>
    </contour>
  </outline>
</glyph>
<glyph name="u1008" format="2">
  <advance width="1676"/>
  <unicode hex="1008"/>
  <anchor x="1620" y="-106" name="BD"/>
  <anchor x="1808" y="-106" name="BS"/>
  <anchor x="1808" y="-106" name="L"/>
  <anchor x="342" y="-106" name="LL"/>
  <anchor x="1052" y="990" name="U"/>
  <anchor x="0" y="0" name="_R"/>
  <outline>
    <contour>
      <point x="1488" y="-942" type="line"/>
      <point x="1488" y="932" type="line"/>
      <point x="1260" y="932" type="line"/>
      <point x="1260" y="-648" type="line"/>
      <point x="894" y="-568" type="line"/>
      <point x="894" y="62" type="line"/>
      <point x="1004" y="152"/>
      <point x="1070" y="288"/>
      <point x="1070" y="446" type="curve" smooth="yes"/>
      <point x="1070" y="712"/>
      <point x="860" y="936"/>
      <point x="588" y="936" type="curve" smooth="yes"/>
      <point x="324" y="936"/>
      <point x="110" y="712"/>
      <point x="110" y="446" type="curve" smooth="yes"/>
      <point x="110" y="174"/>
      <point x="324" y="-42"/>
      <point x="594" y="-42" type="curve" smooth="yes"/>
      <point x="618" y="-42"/>
      <point x="636" y="-42"/>
      <point x="666" y="-36" type="curve"/>
      <point x="666" y="-748" type="line"/>
    </contour>
    <contour>
      <point x="432" y="242" type="curve"/>
      <point x="374" y="290"/>
      <point x="338" y="360"/>
      <point x="338" y="446" type="curve" smooth="yes"/>
      <point x="338" y="528"/>
      <point x="374" y="600"/>
      <point x="432" y="648" type="curve"/>
      <point x="478" y="586"/>
      <point x="500" y="520"/>
      <point x="500" y="446" type="curve" smooth="yes"/>
      <point x="500" y="372"/>
      <point x="474" y="304"/>
    </contour>
    <contour>
      <point x="842" y="446" type="curve" smooth="yes"/>
      <point x="842" y="312"/>
      <point x="736" y="186"/>
      <point x="616" y="182" type="curve" smooth="yes"/>
      <point x="614" y="182"/>
      <point x="610" y="182"/>
      <point x="608" y="184" type="curve"/>
      <point x="666" y="272"/>
      <point x="686" y="372"/>
      <point x="686" y="446" type="curve" smooth="yes"/>
      <point x="686" y="520"/>
      <point x="670" y="618"/>
      <point x="608" y="706" type="curve"/>
      <point x="612" y="708"/>
      <point x="614" y="708"/>
      <point x="616" y="708" type="curve" smooth="yes"/>
      <point x="744" y="708"/>
      <point x="842" y="582"/>
    </contour>
  </outline>
</glyph>
<glyph name="u1009" format="2">
  <advance width="579"/>
  <unicode hex="1009"/>
  <anchor x="450" y="-53" name="BD"/>
  <anchor x="450" y="-53" name="BS"/>
  <anchor x="304" y="-53" name="L"/>
  <anchor x="724" y="-53" name="LL"/>
  <anchor x="279" y="495" name="U"/>
  <anchor x="0" y="0" name="_R"/>
  <outline>
    <contour>
      <point x="244" y="-471" type="curve" smooth="yes"/>
      <point x="765" y="-471" type="line" smooth="yes"/>
      <point x="822" y="-471"/>
      <point x="849" y="-460"/>
      <point x="868" y="-437" type="curve" smooth="yes"/>
      <point x="884" y="-418"/>
      <point x="892" y="-391"/>
      <point x="892" y="-344" type="curve" smooth="yes"/>
      <point x="892" y="-272" type="line"/>
      <point x="778" y="-272" type="line"/>
      <point x="778" y="-320" type="line" smooth="yes"/>
      <point x="778" y="-346"/>
      <point x="771" y="-357"/>
      <point x="748" y="-357" type="curve" smooth="yes"/>
      <point x="256" y="-357" type="line" smooth="yes"/>
      <point x="225" y="-357"/>
      <point x="206" y="-347"/>
      <point x="190" y="-332" type="curve" smooth="yes"/>
      <point x="176" y="-319"/>
      <point x="169" y="-294"/>
      <point x="169" y="-273" type="curve" smooth="yes"/>
      <point x="169" y="1" type="line"/>
      <point x="208" y="-15"/>
      <point x="245" y="-23"/>
      <point x="280" y="-23" type="curve" smooth="yes"/>
      <point x="412" y="-23"/>
      <point x="523" y="87"/>
      <point x="523" y="222" type="curve" smooth="yes"/>
      <point x="523" y="355"/>
      <point x="412" y="466"/>
      <point x="280" y="466" type="curve" smooth="yes"/>
      <point x="205" y="466"/>
      <point x="106" y="432"/>
      <point x="55" y="336" type="curve"/>
      <point x="157" y="283" type="line"/>
      <point x="200" y="351"/>
      <point x="262" y="352"/>
      <point x="280" y="352" type="curve" smooth="yes"/>
      <point x="352" y="352"/>
      <point x="409" y="291"/>
      <point x="409" y="222" type="curve" smooth="yes"/>
      <point x="409" y="150"/>
      <point x="351" y="91"/>
      <point x="278" y="91" type="curve" smooth="yes"/>
      <point x="236" y="91"/>
      <point x="189" y="108"/>
      <point x="157" y="160" type="curve"/>
      <point x="55" y="108" type="line"/>
      <point x="55" y="-282" type="line" smooth="yes"/>
      <point x="55" y="-332"/>
      <point x="73" y="-377"/>
      <point x="109" y="-413" type="curve" smooth="yes"/>
      <point x="143" y="-447"/>
      <point x="187" y="-471"/>
    </contour>
  </outline>
</glyph>
<glyph name="u100B" format="2">
  <advance width="1298"/>
  <unicode hex="100B"/>
  <anchor x="1314" y="-106" name="BD"/>
  <anchor x="1368" y="-106" name="BS"/>
  <anchor x="1368" y="-106" name="L"/>
  <anchor x="600" y="990" name="U"/>
  <anchor x="0" y="0" name="_R"/>
  <outline>
    <contour>
      <point x="1188" y="-862" type="line"/>
      <point x="1128" y="-900"/>
      <point x="1012" y="-942"/>
      <point x="984" y="-942" type="curve" smooth="yes"/>
      <point x="880" y="-942"/>
      <point x="816" y="-884"/>
      <point x="816" y="-774" type="curve" smooth="yes"/>
      <point x="816" y="-636" type="line"/>
      <point x="744" y="-652"/>
      <point x="670" y="-660"/>
      <point x="596" y="-660" type="curve" smooth="yes"/>
      <point x="452" y="-660"/>
      <point x="308" y="-634"/>
      <point x="174" y="-576" type="curve"/>
      <point x="174" y="26" type="line"/>
      <point x="286" y="-68"/>
      <point x="434" y="-142"/>
      <point x="596" y="-142" type="curve" smooth="yes"/>
      <point x="684" y="-142"/>
      <point x="754" y="-124"/>
      <point x="816" y="-94" type="curve"/>
      <point x="816" y="2" type="line"/>
      <point x="740" y="-30"/>
      <point x="666" y="-46"/>
      <point x="596" y="-46" type="curve" smooth="yes"/>
      <point x="332" y="-46"/>
      <point x="110" y="174"/>
      <point x="110" y="444" type="curve" smooth="yes"/>
      <point x="110" y="710"/>
      <point x="332" y="932"/>
      <point x="596" y="932" type="curve" smooth="yes"/>
      <point x="744" y="932"/>
      <point x="942" y="864"/>
      <point x="1044" y="672" type="curve"/>
      <point x="840" y="566" type="line"/>
      <point x="786" y="658"/>
      <point x="694" y="704"/>
      <point x="596" y="704" type="curve" smooth="yes"/>
      <point x="458" y="704"/>
      <point x="338" y="582"/>
      <point x="338" y="444" type="curve" smooth="yes"/>
      <point x="338" y="302"/>
      <point x="458" y="182"/>
      <point x="596" y="182" type="curve" smooth="yes"/>
      <point x="704" y="182"/>
      <point x="786" y="230"/>
      <point x="840" y="320" type="curve"/>
      <point x="1044" y="216" type="line"/>
      <point x="1044" y="-196" type="line"/>
      <point x="910" y="-298"/>
      <point x="754" y="-352"/>
      <point x="596" y="-352" type="curve" smooth="yes"/>
      <point x="530" y="-352"/>
      <point x="464" y="-342"/>
      <point x="402" y="-328" type="curve"/>
      <point x="402" y="-430" type="line"/>
      <point x="464" y="-444"/>
      <point x="530" y="-450"/>
      <point x="596" y="-450" type="curve" smooth="yes"/>
      <point x="764" y="-450"/>
      <point x="900" y="-408"/>
      <point x="1044" y="-318" type="curve"/>
      <point x="1044" y="-636" type="line" smooth="yes"/>
      <point x="1044" y="-658"/>
      <point x="1050" y="-666"/>
      <point x="1064" y="-666" type="curve" smooth="yes"/>
      <point x="1078" y="-666"/>
      <point x="1096" y="-660"/>
      <point x="1134" y="-646" type="curve"/>
    </contour>
  </outline>
</glyph>
<glyph name="u100C" format="2">
  <advance width="1154"/>
  <unicode hex="100C"/>
  <anchor x="1314" y="-106" name="BD"/>
  <anchor x="1368" y="-106" name="BS"/>
  <anchor x="1368" y="-106" name="L"/>
  <anchor x="596" y="990" name="U"/>
  <anchor x="0" y="0" name="_R"/>
  <outline>
    <contour>
      <point x="1044" y="216" type="line"/>
      <point x="1044" y="-534" type="line" smooth="yes"/>
      <point x="1044" y="-678"/>
      <point x="998" y="-756"/>
      <point x="932" y="-826" type="curve" smooth="yes"/>
      <point x="870" y="-890"/>
      <point x="792" y="-942"/>
      <point x="666" y="-942" type="curve" smooth="yes"/>
      <point x="422" y="-942" type="line" smooth="yes"/>
      <point x="214" y="-942"/>
      <point x="138" y="-748"/>
      <point x="138" y="-624" type="curve" smooth="yes"/>
      <point x="138" y="-448"/>
      <point x="276" y="-316"/>
      <point x="446" y="-316" type="curve" smooth="yes"/>
      <point x="556" y="-316"/>
      <point x="614" y="-340"/>
      <point x="660" y="-372" type="curve"/>
      <point x="558" y="-576" type="line"/>
      <point x="524" y="-558"/>
      <point x="494" y="-544"/>
      <point x="446" y="-544" type="curve" smooth="yes"/>
      <point x="420" y="-544"/>
      <point x="366" y="-562"/>
      <point x="366" y="-624" type="curve" smooth="yes"/>
      <point x="366" y="-690"/>
      <point x="412" y="-714"/>
      <point x="476" y="-714" type="curve" smooth="yes"/>
      <point x="620" y="-714" type="line" smooth="yes"/>
      <point x="706" y="-714"/>
      <point x="744" y="-694"/>
      <point x="774" y="-664" type="curve" smooth="yes"/>
      <point x="802" y="-634"/>
      <point x="816" y="-584"/>
      <point x="816" y="-514" type="curve" smooth="yes"/>
      <point x="816" y="2" type="line"/>
      <point x="740" y="-30"/>
      <point x="666" y="-46"/>
      <point x="596" y="-46" type="curve" smooth="yes"/>
      <point x="332" y="-46"/>
      <point x="110" y="174"/>
      <point x="110" y="444" type="curve" smooth="yes"/>
      <point x="110" y="710"/>
      <point x="332" y="932"/>
      <point x="596" y="932" type="curve" smooth="yes"/>
      <point x="744" y="932"/>
      <point x="942" y="864"/>
      <point x="1044" y="672" type="curve"/>
      <point x="840" y="566" type="line"/>
      <point x="774" y="666"/>
      <point x="692" y="704"/>
      <point x="596" y="704" type="curve" smooth="yes"/>
      <point x="458" y="704"/>
      <point x="338" y="582"/>
      <point x="338" y="444" type="curve" smooth="yes"/>
      <point x="338" y="302"/>
      <point x="458" y="182"/>
      <point x="596" y="182" type="curve" smooth="yes"/>
      <point x="692" y="182"/>
      <point x="772" y="214"/>
      <point x="840" y="320" type="curve"/>
    </contour>
  </outline>
</glyph>
<glyph name="u100E" format="2">
  <advance width="1184"/>
  <unicode hex="100E"/>
  <anchor x="570" y="-106" name="BD"/>
  <anchor x="584" y="-106" name="BS"/>
  <anchor x="584" y="-106" name="L"/>
  <anchor x="584" y="990" name="U"/>
  <anchor x="0" y="0" name="_R"/>
  <outline>
    <contour>
      <point x="1074" y="480" type="curve" smooth="yes"/>
      <point x="1074" y="166"/>
      <point x="840" y="-46"/>
      <point x="584" y="-46" type="curve" smooth="yes"/>
      <point x="294" y="-46"/>
      <point x="110" y="162"/>
      <point x="110" y="332" type="curve" smooth="yes"/>
      <point x="110" y="638"/>
      <point x="386" y="572"/>
      <point x="386" y="684" type="curve" smooth="yes"/>
      <point x="386" y="722"/>
      <point x="360" y="734"/>
      <point x="326" y="734" type="curve" smooth="yes"/>
      <point x="310" y="734"/>
      <point x="288" y="728"/>
      <point x="278" y="714" type="curve"/>
      <point x="110" y="816" type="line"/>
      <point x="134" y="872"/>
      <point x="222" y="932"/>
      <point x="318" y="932" type="curve" smooth="yes"/>
      <point x="462" y="932"/>
      <point x="584" y="854"/>
      <point x="584" y="684" type="curve" smooth="yes"/>
      <point x="584" y="460"/>
      <point x="338" y="474"/>
      <point x="338" y="332" type="curve" smooth="yes"/>
      <point x="338" y="266"/>
      <point x="432" y="182"/>
      <point x="584" y="182" type="curve" smooth="yes"/>
      <point x="662" y="182"/>
      <point x="846" y="240"/>
      <point x="846" y="480" type="curve" smooth="yes"/>
      <point x="846" y="590"/>
      <point x="820" y="684"/>
      <point x="762" y="746" type="curve"/>
      <point x="894" y="932" type="line"/>
      <point x="1008" y="846"/>
      <point x="1074" y="698"/>
    </contour>
  </outline>
</glyph>
<glyph name="u100F" format="2">
  <advance width="1054"/>
  <unicode hex="100F"/>
  <anchor x="531" y="-53" name="BD"/>
  <anchor x="771" y="-53" name="BS"/>
  <anchor x="771" y="-53" name="L"/>
  <anchor x="771" y="495" name="U"/>
  <anchor x="0" y="0" name="_R"/>
  <outline>
    <contour>
      <point x="585" y="333" type="curve"/>
      <point x="572" y="343"/>
      <point x="546" y="352"/>
      <point x="531" y="352" type="curve" smooth="yes"/>
      <point x="515" y="352"/>
      <point x="489" y="344"/>
      <point x="474" y="334" type="curve"/>
      <point x="487" y="303"/>
      <point x="496" y="267"/>
      <point x="496" y="222" type="curve" smooth="yes"/>
      <point x="496" y="198"/>
      <point x="483" y="160"/>
      <point x="483" y="144" type="curve" smooth="yes"/>
      <point x="483" y="103"/>
      <point x="502" y="91"/>
      <point x="531" y="91" type="curve" smooth="yes"/>
      <point x="558" y="91"/>
      <point x="577" y="103"/>
      <point x="577" y="144" type="curve" smooth="yes"/>
      <point x="577" y="160"/>
      <point x="565" y="198"/>
      <point x="565" y="222" type="curve" smooth="yes"/>
      <point x="565" y="265"/>
      <point x="572" y="302"/>
    </contour>
    <contour>
      <point x="999" y="222" type="curve" smooth="yes"/>
      <point x="999" y="87"/>
      <point x="904" y="-23"/>
      <point x="771" y="-23" type="curve" smooth="yes"/>
      <point x="755" y="-23"/>
      <point x="732" y="-22"/>
      <point x="720" y="-17" type="curve"/>
      <point x="757" y="93" type="line"/>
      <point x="761" y="92"/>
      <point x="766" y="91"/>
      <point x="771" y="91" type="curve" smooth="yes"/>
      <point x="843" y="91"/>
      <point x="885" y="151"/>
      <point x="885" y="222" type="curve" smooth="yes"/>
      <point x="885" y="291"/>
      <point x="843" y="352"/>
      <point x="771" y="352" type="curve" smooth="yes"/>
      <point x="711" y="352"/>
      <point x="678" y="289"/>
      <point x="678" y="222" type="curve" smooth="yes"/>
      <point x="678" y="174"/>
      <point x="694" y="152"/>
      <point x="694" y="109" type="curve" smooth="yes"/>
      <point x="694" y="18"/>
      <point x="592" y="-23"/>
      <point x="531" y="-23" type="curve" smooth="yes"/>
      <point x="468" y="-23"/>
      <point x="367" y="18"/>
      <point x="367" y="109" type="curve" smooth="yes"/>
      <point x="367" y="160"/>
      <point x="384" y="175"/>
      <point x="384" y="222" type="curve" smooth="yes"/>
      <point x="384" y="291"/>
      <point x="345" y="352"/>
      <point x="283" y="352" type="curve" smooth="yes"/>
      <point x="211" y="352"/>
      <point x="169" y="291"/>
      <point x="169" y="222" type="curve" smooth="yes"/>
      <point x="169" y="151"/>
      <point x="211" y="91"/>
      <point x="283" y="91" type="curve" smooth="yes"/>
      <point x="288" y="91"/>
      <point x="294" y="92"/>
      <point x="297" y="93" type="curve" smooth="yes"/>
      <point x="334" y="-17" type="line"/>
      <point x="324" y="-22"/>
      <point x="298" y="-23"/>
      <point x="283" y="-23" type="curve" smooth="yes"/>
      <point x="150" y="-23"/>
      <point x="55" y="87"/>
      <point x="55" y="222" type="curve" smooth="yes"/>
      <point x="55" y="355"/>
      <point x="150" y="466"/>
      <point x="283" y="466" type="curve" smooth="yes"/>
      <point x="319" y="466"/>
      <point x="366" y="451"/>
      <point x="406" y="423" type="curve"/>
      <point x="445" y="448"/>
      <point x="483" y="466"/>
      <point x="531" y="466" type="curve" smooth="yes"/>
      <point x="576" y="466"/>
      <point x="618" y="448"/>
      <point x="654" y="424" type="curve"/>
      <point x="697" y="453"/>
      <point x="740" y="466"/>
      <point x="771" y="466" type="curve" smooth="yes"/>
      <point x="904" y="466"/>
      <point x="999" y="355"/>
    </contour>
  </outline>
</glyph>
<glyph name="u1010" format="2">
  <advance width="1932"/>
  <unicode hex="1010"/>
  <anchor x="966" y="-106" name="BD"/>
  <anchor x="1334" y="-106" name="BS"/>
  <anchor x="1334" y="-106" name="L"/>
  <anchor x="1334" y="990" name="U"/>
  <anchor x="0" y="0" name="_R"/>
  <outline>
    <contour>
      <point x="842" y="444" type="curve" smooth="yes"/>
      <point x="842" y="582"/>
      <point x="728" y="704"/>
      <point x="594" y="704" type="curve" smooth="yes"/>
      <point x="452" y="704"/>
      <point x="338" y="582"/>
      <point x="338" y="444" type="curve" smooth="yes"/>
      <point x="338" y="302"/>
      <point x="452" y="182"/>
      <point x="588" y="182" type="curve" smooth="yes"/>
      <point x="726" y="182"/>
      <point x="842" y="302"/>
    </contour>
    <contour>
      <point x="1824" y="444" type="curve" smooth="yes"/>
      <point x="1824" y="174"/>
      <point x="1600" y="-46"/>
      <point x="1334" y="-46" type="curve" smooth="yes"/>
      <point x="1284" y="-46"/>
      <point x="1228" y="-40"/>
      <point x="1194" y="-22" type="curve"/>
      <point x="1284" y="188" type="line"/>
      <point x="1298" y="184"/>
      <point x="1318" y="182"/>
      <point x="1334" y="182" type="curve" smooth="yes"/>
      <point x="1478" y="182"/>
      <point x="1596" y="302"/>
      <point x="1596" y="444" type="curve" smooth="yes"/>
      <point x="1596" y="582"/>
      <point x="1478" y="704"/>
      <point x="1334" y="704" type="curve" smooth="yes"/>
      <point x="1202" y="704"/>
      <point x="1088" y="562"/>
      <point x="1070" y="444" type="curve"/>
      <point x="1070" y="174"/>
      <point x="858" y="-46"/>
      <point x="594" y="-46" type="curve" smooth="yes"/>
      <point x="324" y="-46"/>
      <point x="110" y="174"/>
      <point x="110" y="444" type="curve" smooth="yes"/>
      <point x="110" y="710"/>
      <point x="324" y="932"/>
      <point x="588" y="932" type="curve" smooth="yes"/>
      <point x="740" y="932"/>
      <point x="878" y="858"/>
      <point x="966" y="744" type="curve"/>
      <point x="1044" y="846"/>
      <point x="1172" y="932"/>
      <point x="1334" y="932" type="curve" smooth="yes"/>
      <point x="1600" y="932"/>
      <point x="1824" y="710"/>
    </contour>
  </outline>
</glyph>
<glyph name="u1011" format="2">
  <advance width="961"/>
  <unicode hex="1011"/>
  <anchor x="481" y="-53" name="BD"/>
  <anchor x="667" y="-53" name="BS"/>
  <anchor x="667" y="-53" name="L"/>
  <anchor x="667" y="495" name="U"/>
  <anchor x="0" y="0" name="_R"/>
  <outline>
    <contour>
      <point x="288" y="-23" type="curve" smooth="yes"/>
      <point x="422" y="-23"/>
      <point x="532" y="87"/>
      <point x="532" y="222" type="curve" smooth="yes"/>
      <point x="532" y="356"/>
      <point x="422" y="466"/>
      <point x="288" y="466" type="curve" smooth="yes"/>
      <point x="153" y="466"/>
      <point x="43" y="356"/>
      <point x="43" y="222" type="curve" smooth="yes"/>
      <point x="43" y="87"/>
      <point x="153" y="-23"/>
    </contour>
    <contour>
      <point x="288" y="91" type="curve" smooth="yes"/>
      <point x="216" y="91"/>
      <point x="157" y="150"/>
      <point x="157" y="222" type="curve" smooth="yes"/>
      <point x="157" y="293"/>
      <point x="216" y="352"/>
      <point x="288" y="352" type="curve" smooth="yes"/>
      <point x="359" y="352"/>
      <point x="418" y="293"/>
      <point x="418" y="222" type="curve" smooth="yes"/>
      <point x="418" y="150"/>
      <point x="359" y="91"/>
    </contour>
    <contour>
      <point x="663" y="-23" type="curve" smooth="yes"/>
      <point x="797" y="-23"/>
      <point x="907" y="87"/>
      <point x="907" y="222" type="curve" smooth="yes"/>
      <point x="907" y="356"/>
      <point x="797" y="466"/>
      <point x="663" y="466" type="curve" smooth="yes"/>
      <point x="528" y="466"/>
      <point x="418" y="356"/>
      <point x="418" y="222" type="curve" smooth="yes"/>
      <point x="418" y="87"/>
      <point x="528" y="-23"/>
    </contour>
    <contour>
      <point x="663" y="91" type="curve" smooth="yes"/>
      <point x="591" y="91"/>
      <point x="532" y="150"/>
      <point x="532" y="222" type="curve" smooth="yes"/>
      <point x="532" y="293"/>
      <point x="591" y="352"/>
      <point x="663" y="352" type="curve" smooth="yes"/>
      <point x="734" y="352"/>
      <point x="793" y="293"/>
      <point x="793" y="222" type="curve" smooth="yes"/>
      <point x="793" y="150"/>
      <point x="734" y="91"/>
    </contour>
  </outline>
</glyph>
<glyph name="u1012" format="2">
  <advance width="1104"/>
  <unicode hex="1012"/>
  <anchor x="534" y="-106" name="BD"/>
  <anchor x="552" y="-106" name="BS"/>
  <anchor x="552" y="-106" name="L"/>
  <anchor x="552" y="990" name="U"/>
  <anchor x="0" y="0" name="_R"/>
  <outline>
    <contour>
      <point x="996" y="266" type="curve" smooth="yes"/>
      <point x="996" y="98"/>
      <point x="858" y="-46"/>
      <point x="552" y="-46" type="curve" smooth="yes"/>
      <point x="254" y="-46"/>
      <point x="110" y="78"/>
      <point x="110" y="242" type="curve"/>
      <point x="330" y="324" type="line"/>
      <point x="330" y="294"/>
      <point x="382" y="182"/>
      <point x="552" y="182" type="curve" smooth="yes"/>
      <point x="656" y="182"/>
      <point x="768" y="206"/>
      <point x="768" y="270" type="curve" smooth="yes"/>
      <point x="768" y="316"/>
      <point x="694" y="354"/>
      <point x="534" y="354" type="curve"/>
      <point x="534" y="534" type="line"/>
      <point x="694" y="534"/>
      <point x="768" y="570"/>
      <point x="768" y="620" type="curve" smooth="yes"/>
      <point x="768" y="678"/>
      <point x="656" y="704"/>
      <point x="552" y="704" type="curve" smooth="yes"/>
      <point x="382" y="704"/>
      <point x="330" y="592"/>
      <point x="330" y="564" type="curve"/>
      <point x="110" y="644" type="line"/>
      <point x="110" y="806"/>
      <point x="266" y="932"/>
      <point x="552" y="932" type="curve" smooth="yes"/>
      <point x="858" y="932"/>
      <point x="996" y="788"/>
      <point x="996" y="618" type="curve" smooth="yes"/>
      <point x="996" y="548"/>
      <point x="966" y="486"/>
      <point x="920" y="440" type="curve"/>
      <point x="966" y="392"/>
      <point x="996" y="332"/>
    </contour>
  </outline>
</glyph>
<glyph name="u1013" format="2">
  <advance width="591"/>
  <unicode hex="1013"/>
  <anchor x="288" y="-53" name="BD"/>
  <anchor x="297" y="-53" name="BS"/>
  <anchor x="297" y="-53" name="L"/>
  <anchor x="297" y="495" name="U"/>
  <anchor x="0" y="0" name="_R"/>
  <outline>
    <contour>
      <point x="292" y="-15" type="curve" smooth="yes"/>
      <point x="422" y="-15"/>
      <point x="531" y="91"/>
      <point x="531" y="223" type="curve" smooth="yes"/>
      <point x="531" y="353"/>
      <point x="425" y="459"/>
      <point x="295" y="459" type="curve" smooth="yes"/>
      <point x="163" y="459"/>
      <point x="57" y="353"/>
      <point x="57" y="223" type="curve" smooth="yes"/>
      <point x="57" y="91"/>
      <point x="160" y="-15"/>
    </contour>
    <contour>
      <point x="295" y="99" type="curve" smooth="yes"/>
      <point x="227" y="99"/>
      <point x="171" y="154"/>
      <point x="171" y="222" type="curve" smooth="yes"/>
      <point x="171" y="289"/>
      <point x="227" y="345"/>
      <point x="294" y="345" type="curve" smooth="yes"/>
      <point x="362" y="345"/>
      <point x="417" y="289"/>
      <point x="417" y="222" type="curve" smooth="yes"/>
      <point x="417" y="154"/>
      <point x="363" y="99"/>
    </contour>
    <contour>
      <point x="411" y="103" type="curve"/>
      <point x="458" y="185" type="line"/>
      <point x="410" y="231"/>
      <point x="353" y="254"/>
      <point x="295" y="254" type="curve" smooth="yes"/>
      <point x="237" y="254"/>
      <point x="180" y="231"/>
      <point x="131" y="187" type="curve"/>
      <point x="177" y="103" type="line"/>
      <point x="209" y="133"/>
      <point x="252" y="147"/>
      <point x="294" y="147" type="curve" smooth="yes"/>
      <point x="337" y="147"/>
      <point x="379" y="133"/>
    </contour>
  </outline>
</glyph>
<glyph name="u1014" format="2">
  <advance width="1134"/>
  <unicode hex="1014"/>
  <anchor x="1062" y="-106" name="BD"/>
  <anchor x="1174" y="-106" name="BS"/>
  <anchor x="1096" y="-106" name="L"/>
  <anchor x="596" y="990" name="U"/>
  <anchor x="0" y="0" name="_R"/>
  <outline>
    <contour>
      <point x="528" y="-942" type="line"/>
      <point x="756" y="-942" type="line"/>
      <point x="756" y="-24" type="line"/>
      <point x="956" y="18"/>
      <point x="1044" y="116"/>
      <point x="1044" y="276" type="curve" smooth="yes"/>
      <point x="1044" y="648"/>
      <point x="512" y="608"/>
      <point x="512" y="714" type="curve" smooth="yes"/>
      <point x="512" y="736"/>
      <point x="540" y="746"/>
      <point x="596" y="746" type="curve" smooth="yes"/>
      <point x="644" y="746"/>
      <point x="686" y="726"/>
      <point x="720" y="698" type="curve"/>
      <point x="810" y="854" type="line"/>
      <point x="782" y="884"/>
      <point x="714" y="932"/>
      <point x="596" y="932" type="curve" smooth="yes"/>
      <point x="386" y="932"/>
      <point x="284" y="836"/>
      <point x="284" y="714" type="curve" smooth="yes"/>
      <point x="284" y="448"/>
      <point x="816" y="476"/>
      <point x="816" y="276" type="curve" smooth="yes"/>
      <point x="816" y="240"/>
      <point x="790" y="210"/>
      <point x="738" y="188" type="curve"/>
      <point x="712" y="270"/>
      <point x="664" y="336"/>
      <point x="598" y="386" type="curve" smooth="yes"/>
      <point x="532" y="436"/>
      <point x="462" y="462"/>
      <point x="390" y="462" type="curve" smooth="yes"/>
      <point x="236" y="462"/>
      <point x="90" y="344"/>
      <point x="90" y="194" type="curve" smooth="yes"/>
      <point x="90" y="-44"/>
      <point x="346" y="-46"/>
      <point x="486" y="-46" type="curve" smooth="yes"/>
      <point x="528" y="-46" type="line"/>
    </contour>
    <contour>
      <point x="438" y="146" type="line" smooth="yes"/>
      <point x="368" y="146"/>
      <point x="288" y="152"/>
      <point x="288" y="194" type="curve" smooth="yes"/>
      <point x="288" y="234"/>
      <point x="350" y="264"/>
      <point x="390" y="264" type="curve" smooth="yes"/>
      <point x="454" y="264"/>
      <point x="496" y="224"/>
      <point x="518" y="146" type="curve"/>
    </contour>
  </outline>
</glyph>
<glyph name="u1015" format="2">
  <advance width="600"/>
  <unicode hex="1015"/>
  <anchor x="292" y="-53" name="BD"/>
  <anchor x="300" y="-53" name="BS"/>
  <anchor x="300" y="-53" name="L"/>
  <anchor x="300" y="495" name="U"/>
  <anchor x="0" y="0" name="_R"/>
  <outline>
    <contour>
      <point x="548" y="242" type="curve" smooth="yes"/>
      <point x="548" y="103"/>
      <point x="453" y="-23"/>
      <point x="300" y="-23" type="curve" smooth="yes"/>
      <point x="146" y="-23"/>
      <point x="53" y="104"/>
      <point x="53" y="243" type="curve" smooth="yes"/>
      <point x="53" y="320"/>
      <point x="82" y="401"/>
      <point x="145" y="466" type="curve"/>
      <point x="211" y="373" type="line"/>
      <point x="182" y="333"/>
      <point x="168" y="287"/>
      <point x="168" y="244" type="curve" smooth="yes"/>
      <point x="168" y="163"/>
      <point x="217" y="91"/>
      <point x="300" y="91" type="curve" smooth="yes"/>
      <point x="383" y="91"/>
      <point x="433" y="163"/>
      <point x="433" y="245" type="curve" smooth="yes"/>
      <point x="433" y="288"/>
      <point x="417" y="334"/>
      <point x="388" y="373" type="curve"/>
      <point x="454" y="466" type="line"/>
      <point x="518" y="400"/>
      <point x="548" y="319"/>
    </contour>
  </outline>
</glyph>
<glyph name="u1016" format="2">
  <advance width="1198"/>
  <unicode hex="1016"/>
  <anchor x="584" y="-106" name="BD"/>
  <anchor x="600" y="-106" name="BS"/>
  <anchor x="600" y="-106" name="L"/>
  <anchor x="600" y="990" name="U"/>
  <anchor x="0" y="0" name="_R"/>
  <outline>
    <contour>
      <point x="860" y="474" type="curve" smooth="yes"/>
      <point x="860" y="564"/>
      <point x="828" y="620"/>
      <point x="788" y="662" type="curve"/>
      <point x="754" y="620"/>
      <point x="728" y="564"/>
      <point x="728" y="474" type="curve" smooth="yes"/>
      <point x="728" y="404"/>
      <point x="764" y="348"/>
      <point x="812" y="306" type="curve"/>
      <point x="842" y="348"/>
      <point x="860" y="410"/>
    </contour>
    <contour>
      <point x="1088" y="474" type="curve" smooth="yes"/>
      <point x="1088" y="186"/>
      <point x="868" y="-46"/>
      <point x="600" y="-46" type="curve" smooth="yes"/>
      <point x="330" y="-46"/>
      <point x="110" y="186"/>
      <point x="110" y="474" type="curve" smooth="yes"/>
      <point x="110" y="666"/>
      <point x="152" y="818"/>
      <point x="290" y="932" type="curve"/>
      <point x="422" y="746" type="line"/>
      <point x="366" y="680"/>
      <point x="338" y="620"/>
      <point x="338" y="474" type="curve" smooth="yes"/>
      <point x="338" y="310"/>
      <point x="458" y="182"/>
      <point x="600" y="182" type="curve" smooth="yes"/>
      <point x="632" y="182"/>
      <point x="652" y="184"/>
      <point x="666" y="188" type="curve"/>
      <point x="588" y="268"/>
      <point x="542" y="374"/>
      <point x="542" y="470" type="curve" smooth="yes"/>
      <point x="542" y="704"/>
      <point x="676" y="894"/>
      <point x="840" y="932" type="curve"/>
      <point x="986" y="804"/>
      <point x="1088" y="666"/>
    </contour>
  </outline>
</glyph>
<glyph name="u1017" format="2">
  <advance width="600"/>
  <unicode hex="1017"/>
  <anchor x="292" y="-53" name="BD"/>
  <anchor x="300" y="-53" name="BS"/>
  <anchor x="300" y="-53" name="L"/>
  <anchor x="300" y="495" name="U"/>
  <anchor x="0" y="0" name="_R"/>
  <outline>
    <contour>
      <point x="298" y="-23" type="curve" smooth="yes"/>
      <point x="433" y="-23"/>
      <point x="543" y="87"/>
      <point x="543" y="233" type="curve" smooth="yes"/>
      <point x="543" y="333"/>
      <point x="506" y="413"/>
      <point x="449" y="461" type="curve"/>
      <point x="410" y="331" type="line"/>
      <point x="422" y="305"/>
      <point x="429" y="273"/>
      <point x="429" y="233" type="curve" smooth="yes"/>
      <point x="429" y="150"/>
      <point x="370" y="91"/>
      <point x="298" y="91" type="curve" smooth="yes"/>
      <point x="226" y="91"/>
      <point x="167" y="150"/>
      <point x="167" y="233" type="curve" smooth="yes"/>
      <point x="167" y="273"/>
      <point x="174" y="305"/>
      <point x="186" y="330" type="curve"/>
      <point x="147" y="461" type="line"/>
      <point x="90" y="413"/>
      <point x="53" y="333"/>
      <point x="53" y="233" type="curve" smooth="yes"/>
      <point x="53" y="87"/>
      <point x="163" y="-23"/>
    </contour>
    <contour>
      <point x="298" y="222" type="curve" smooth="yes"/>
      <point x="363" y="222"/>
      <point x="433" y="257"/>
      <point x="489" y="345" type="curve"/>
      <point x="449" y="461" type="line"/>
      <point x="414" y="384"/>
      <point x="372" y="333"/>
      <point x="298" y="333" type="curve" smooth="yes"/>
      <point x="224" y="333"/>
      <point x="172" y="384"/>
      <point x="147" y="461" type="curve"/>
      <point x="107" y="345" type="line"/>
      <point x="152" y="257"/>
      <point x="222" y="222"/>
    </contour>
  </outline>
</glyph>
<glyph name="u1018" format="2">
  <advance width="954"/>
  <unicode hex="1018"/>
  <anchor x="469" y="-53" name="BD"/>
  <anchor x="655" y="-53" name="BS"/>
  <anchor x="655" y="-53" name="L"/>
  <anchor x="655" y="495" name="U"/>
  <anchor x="0" y="0" name="_R"/>
  <outline>
    <contour>
      <point x="889" y="222" type="curve" smooth="yes"/>
      <point x="889" y="356"/>
      <point x="779" y="466"/>
      <point x="645" y="466" type="curve" smooth="yes"/>
      <point x="558" y="466"/>
      <point x="481" y="420"/>
      <point x="437" y="351" type="curve"/>
      <point x="514" y="222" type="line"/>
      <point x="514" y="293"/>
      <point x="573" y="352"/>
      <point x="645" y="352" type="curve" smooth="yes"/>
      <point x="716" y="352"/>
      <point x="775" y="293"/>
      <point x="775" y="222" type="curve" smooth="yes"/>
      <point x="775" y="150"/>
      <point x="716" y="91"/>
      <point x="645" y="91" type="curve" smooth="yes"/>
      <point x="642" y="91"/>
      <point x="639" y="91"/>
      <point x="636" y="91" type="curve"/>
      <point x="590" y="-17" type="line"/>
      <point x="608" y="-21"/>
      <point x="626" y="-23"/>
      <point x="645" y="-23" type="curve" smooth="yes"/>
      <point x="779" y="-23"/>
      <point x="889" y="87"/>
    </contour>
    <contour>
      <point x="148" y="174" type="curve"/>
      <point x="45" y="125" type="line"/>
      <point x="83" y="38"/>
      <point x="170" y="-23"/>
      <point x="270" y="-23" type="curve" smooth="yes"/>
      <point x="404" y="-23"/>
      <point x="514" y="87"/>
      <point x="514" y="222" type="curve" smooth="yes"/>
      <point x="514" y="356"/>
      <point x="404" y="466"/>
      <point x="270" y="466" type="curve" smooth="yes"/>
      <point x="169" y="466"/>
      <point x="82" y="404"/>
      <point x="44" y="317" type="curve"/>
      <point x="147" y="266" type="line"/>
      <point x="165" y="316"/>
      <point x="214" y="352"/>
      <point x="270" y="352" type="curve" smooth="yes"/>
      <point x="341" y="352"/>
      <point x="400" y="293"/>
      <point x="400" y="222" type="curve" smooth="yes"/>
      <point x="400" y="150"/>
      <point x="341" y="91"/>
      <point x="270" y="91" type="curve" smooth="yes"/>
      <point x="215" y="91"/>
      <point x="168" y="125"/>
    </contour>
  </outline>
</glyph>
<glyph name="u1019" format="2">
  <advance width="1200"/>
  <unicode hex="1019"/>
  <anchor x="588" y="-106" name="BD"/>
  <anchor x="600" y="-106" name="BS"/>
  <anchor x="600" y="-106" name="L"/>
  <anchor x="600" y="990" name="U"/>
  <anchor x="0" y="0" name="_R"/>
  <outline>
    <contour>
      <point x="798" y="282" type="curve"/>
      <point x="742" y="324"/>
      <point x="680" y="348"/>
      <point x="600" y="348" type="curve" smooth="yes"/>
      <point x="528" y="348"/>
      <point x="462" y="326"/>
      <point x="402" y="282" type="curve"/>
      <point x="444" y="226"/>
      <point x="512" y="182"/>
      <point x="600" y="182" type="curve" smooth="yes"/>
      <point x="688" y="182"/>
      <point x="752" y="226"/>
    </contour>
    <contour>
      <point x="1088" y="474" type="curve" smooth="yes"/>
      <point x="1088" y="196"/>
      <point x="880" y="-46"/>
      <point x="600" y="-46" type="curve" smooth="yes"/>
      <point x="318" y="-46"/>
      <point x="110" y="196"/>
      <point x="110" y="474" type="curve" smooth="yes"/>
      <point x="110" y="666"/>
      <point x="146" y="804"/>
      <point x="290" y="932" type="curve"/>
      <point x="422" y="746" type="line"/>
      <point x="356" y="662"/>
      <point x="338" y="602"/>
      <point x="338" y="474" type="curve" smooth="yes"/>
      <point x="338" y="472"/>
      <point x="338" y="464"/>
      <point x="338" y="462" type="curve"/>
      <point x="410" y="518"/>
      <point x="504" y="534"/>
      <point x="600" y="534" type="curve" smooth="yes"/>
      <point x="696" y="534"/>
      <point x="780" y="514"/>
      <point x="860" y="458" type="curve"/>
      <point x="860" y="462"/>
      <point x="860" y="470"/>
      <point x="860" y="474" type="curve" smooth="yes"/>
      <point x="860" y="600"/>
      <point x="844" y="658"/>
      <point x="776" y="746" type="curve"/>
      <point x="908" y="932" type="line"/>
      <point x="1052" y="804"/>
      <point x="1088" y="666"/>
    </contour>
  </outline>
</glyph>
<glyph name="u101A" format="2">
  <advance width="977"/>
  <unicode hex="101A"/>
  <anchor x="0" y="0" name="_R"/>
  <anchor x="678" y="-53" name="BS"/>
  <anchor x="678" y="-53" name="L"/>
  <anchor x="492" y="-53" name="BD"/>
  <anchor x="678" y="495" name="U"/>
  <outline>
    <contour>
      <point x="922" y="222" type="curve" smooth="yes"/>
      <point x="922" y="89"/>
      <point x="811" y="-23"/>
      <point x="678" y="-23" type="curve" smooth="yes"/>
      <point x="594" y="-23"/>
      <point x="531" y="22"/>
      <point x="492" y="75" type="curve"/>
      <point x="447" y="15"/>
      <point x="380" y="-24"/>
      <point x="300" y="-24" type="curve" smooth="yes"/>
      <point x="160" y="-24"/>
      <point x="55" y="96"/>
      <point x="55" y="235" type="curve" smooth="yes"/>
      <point x="55" y="331"/>
      <point x="73" y="401"/>
      <point x="145" y="465" type="curve"/>
      <point x="211" y="372" type="line"/>
      <point x="177" y="329"/>
      <point x="169" y="303"/>
      <point x="169" y="235" type="curve" smooth="yes"/>
      <point x="169" y="166"/>
      <point x="216" y="90"/>
      <point x="300" y="90" type="curve" smooth="yes"/>
      <point x="384" y="90"/>
      <point x="430" y="166"/>
      <point x="430" y="235" type="curve" smooth="yes"/>
      <point x="430" y="299"/>
      <point x="421" y="329"/>
      <point x="388" y="372" type="curve"/>
      <point x="454" y="465" type="line"/>
      <point x="525" y="402"/>
      <point x="544" y="329"/>
      <point x="544" y="232" type="curve" smooth="yes"/>
      <point x="544" y="174"/>
      <point x="607" y="91"/>
      <point x="678" y="91" type="curve" smooth="yes"/>
      <point x="750" y="91"/>
      <point x="808" y="151"/>
      <point x="808" y="222" type="curve" smooth="yes"/>
      <point x="808" y="291"/>
      <point x="750" y="352"/>
      <point x="678" y="352" type="curve" smooth="yes"/>
      <point x="669" y="352"/>
      <point x="660" y="351"/>
      <point x="652" y="349" type="curve"/>
      <point x="607" y="453" type="line"/>
      <point x="624" y="462"/>
      <point x="651" y="466"/>
      <point x="678" y="466" type="curve" smooth="yes"/>
      <point x="811" y="466"/>
      <point x="922" y="358"/>
    </contour>
  </outline>
</glyph>
